<svg width="191" height="64" viewBox="0 0 191 64" fill="none" xmlns="http://www.w3.org/2000/svg">
<circle cx="32" cy="32" r="32" fill="#BEBEBE"/>
<path d="M31.125 12.75L14.5 21.5V25H47.75V21.5M39 28.5V40.75H44.25V28.5M14.5 49.5H47.75V44.25H14.5M28.5 28.5V40.75H33.75V28.5M18 28.5V40.75H23.25V28.5H18Z" fill="#121B28"/>
<path d="M85.398 46V40.528H90.376C91.3387 40.528 92.1113 40.2747 92.694 39.768C93.2767 39.236 93.568 38.514 93.568 37.602C93.568 36.994 93.4287 36.4747 93.15 36.044C92.8967 35.588 92.5293 35.246 92.048 35.018C91.592 34.79 91.0347 34.676 90.376 34.676H85.398V29.432H90.034C90.8447 29.432 91.516 29.2293 92.048 28.824C92.58 28.4187 92.846 27.7853 92.846 26.924C92.846 26.0627 92.58 25.4293 92.048 25.024C91.516 24.6187 90.8447 24.416 90.034 24.416H85.398V18.944H92.162C93.8087 18.944 95.24 19.2607 96.456 19.894C97.6973 20.502 98.66 21.3507 99.344 22.44C100.028 23.504 100.37 24.7327 100.37 26.126C100.37 28.0513 99.686 29.622 98.318 30.838C96.95 32.054 94.9487 32.7507 92.314 32.928L92.238 30.306C95.1007 30.4833 97.292 31.2687 98.812 32.662C100.332 34.0553 101.092 35.8413 101.092 38.02C101.092 39.5907 100.699 40.984 99.914 42.2C99.1287 43.3907 98.0267 44.328 96.608 45.012C95.2147 45.6707 93.5807 46 91.706 46H85.398ZM79.242 46V18.944H86.69V46H79.242ZM111.625 46.38C109.877 46.38 108.331 45.962 106.989 45.126C105.646 44.29 104.595 43.15 103.835 41.706C103.075 40.2367 102.695 38.552 102.695 36.652C102.695 34.752 103.075 33.0673 103.835 31.598C104.595 30.1287 105.646 28.9887 106.989 28.178C108.331 27.342 109.877 26.924 111.625 26.924C112.714 26.924 113.715 27.114 114.627 27.494C115.564 27.8487 116.337 28.3553 116.945 29.014C117.578 29.6727 117.983 30.4327 118.161 31.294V42.01C117.983 42.8713 117.578 43.6313 116.945 44.29C116.337 44.9487 115.564 45.468 114.627 45.848C113.715 46.2027 112.714 46.38 111.625 46.38ZM113.297 39.844C114.234 39.844 114.981 39.5527 115.539 38.97C116.121 38.362 116.413 37.5893 116.413 36.652C116.413 36.0187 116.286 35.474 116.033 35.018C115.779 34.5367 115.412 34.1567 114.931 33.878C114.475 33.5993 113.943 33.46 113.335 33.46C112.727 33.46 112.182 33.5993 111.701 33.878C111.245 34.1567 110.877 34.5367 110.599 35.018C110.32 35.4993 110.181 36.044 110.181 36.652C110.181 37.26 110.307 37.8047 110.561 38.286C110.839 38.7673 111.219 39.1473 111.701 39.426C112.182 39.7047 112.714 39.844 113.297 39.844ZM116.185 46V40.984L117.211 36.424L116.185 31.902V27.304H123.443V46H116.185ZM138.922 46V35.512C138.922 34.7773 138.707 34.22 138.276 33.84C137.871 33.4347 137.352 33.232 136.718 33.232C136.288 33.232 135.895 33.3207 135.54 33.498C135.211 33.6753 134.945 33.9413 134.742 34.296C134.565 34.6253 134.476 35.0307 134.476 35.512L131.588 34.22C131.588 32.7 131.918 31.3953 132.576 30.306C133.26 29.2167 134.185 28.3807 135.35 27.798C136.541 27.2153 137.884 26.924 139.378 26.924C140.721 26.924 141.912 27.228 142.95 27.836C144.014 28.4187 144.85 29.2293 145.458 30.268C146.066 31.2813 146.37 32.4593 146.37 33.802V46H138.922ZM127.028 46V27.304H134.476V46H127.028ZM161.6 46L156.394 36.158L161.562 27.304H169.58L162.892 37.298L163.082 34.866L169.96 46H161.6ZM149.554 46V18.184H157.002V46H149.554ZM176.401 46L169.029 27.304H176.933L181.265 43.226H177.997L182.253 27.304H190.119L182.785 45.962L176.401 46ZM172.335 53.98L177.769 41.706L182.785 45.962L179.631 53.98H172.335Z" fill="white"/>
</svg>
