<svg width="24" height="24" viewBox="0 0 24 24" fill="none" xmlns="http://www.w3.org/2000/svg">
<path d="M2.21998 2.21995C2.09296 2.34694 2.01573 2.51529 2.00233 2.6944C1.98894 2.87351 2.04026 3.05148 2.14698 3.19595L2.21998 3.27995L6.25398 7.31495C4.28701 8.69358 2.88286 10.735 2.29898 13.0649C2.25396 13.2568 2.28621 13.4586 2.38878 13.6268C2.49135 13.795 2.65599 13.9161 2.84711 13.9639C3.03824 14.0117 3.24051 13.9824 3.4102 13.8823C3.57989 13.7822 3.70338 13.6194 3.75398 13.429C4.27288 11.361 5.55088 9.5639 7.33398 8.39495L9.14398 10.205C8.42097 10.9604 8.02257 11.969 8.0341 13.0147C8.04563 14.0603 8.46619 15.0599 9.20568 15.7992C9.94517 16.5386 10.9448 16.959 11.9904 16.9703C13.0361 16.9817 14.0446 16.5831 14.8 15.86L20.719 21.78C20.8528 21.9141 21.0325 21.9927 21.2219 21.9998C21.4112 22.0069 21.5963 21.9421 21.7398 21.8183C21.8833 21.6946 21.9747 21.5211 21.9955 21.3327C22.0163 21.1443 21.965 20.9551 21.852 20.8029L21.779 20.719L15.666 14.6049L15.667 14.603L8.71698 7.65695L8.71898 7.65495L7.58598 6.52495L3.27998 2.21995C3.13935 2.0795 2.94873 2.00061 2.74998 2.00061C2.55123 2.00061 2.3606 2.0795 2.21998 2.21995ZM12 5.49995C11 5.49995 10.03 5.64795 9.11098 5.92495L10.348 7.16095C12.4875 6.73731 14.7081 7.15203 16.5505 8.31938C18.3929 9.48672 19.7162 11.3174 20.247 13.433C20.2988 13.6219 20.4225 13.783 20.5916 13.882C20.7607 13.9809 20.9617 14.0097 21.1518 13.9623C21.3419 13.9149 21.5059 13.795 21.6087 13.6282C21.7115 13.4614 21.745 13.2611 21.702 13.07C21.1597 10.9074 19.9105 8.98801 18.1528 7.61652C16.395 6.24504 14.2295 5.50008 12 5.49995ZM12.195 9.00995L15.996 12.81C15.9468 11.8178 15.5305 10.8795 14.8281 10.1772C14.1256 9.47488 13.1871 9.05886 12.195 9.00995Z" fill="#7D8F92"/>
</svg>
