<svg width="354" height="225" viewBox="0 0 354 225" fill="none" xmlns="http://www.w3.org/2000/svg">
<path opacity="0.35" d="M353.979 21.5327V203.468C353.979 203.835 353.969 204.192 353.948 204.559C353.937 204.821 353.906 205.084 353.895 205.346C352.942 216.175 343.855 224.675 332.799 224.675H21.1805C13.2365 224.675 6.31957 220.299 2.7039 213.814C2.60958 213.678 2.54669 213.562 2.48381 213.436C0.890819 210.467 0 207.077 0 203.468V21.5327C0 21.0604 0.0104834 20.5882 0.0524042 20.116C0.0628844 19.8537 0.0943201 19.5914 0.1048 19.329C1.2157 8.66771 10.2287 0.335938 21.1805 0.335938H332.799C336.97 0.335938 340.889 1.56367 344.17 3.66235C346.915 5.41475 349.211 7.75479 350.908 10.5355C350.929 10.588 350.971 10.63 350.992 10.6825C352.889 13.862 353.979 17.5661 353.979 21.5327Z" fill="url(#paint0_linear_92_2)"/>
<path d="M354 21.2072V203.142C354 203.614 353.989 204.087 353.947 204.559C353.937 204.821 353.906 205.083 353.895 205.346C352.784 216.007 343.761 224.339 332.819 224.339H21.2013C16.2651 224.339 11.7377 222.66 8.13248 219.806C7.97528 219.701 7.81808 219.564 7.66088 219.438C2.98671 215.545 0.020813 209.68 0.020813 203.142V21.2072C0.020813 20.8399 0.0312919 20.4727 0.0522523 20.1159C0.0627325 19.8221 0.0941705 19.5388 0.115131 19.2449C1.10027 8.4472 10.1552 0 21.2013 0H332.819C336.991 0 340.91 1.20674 344.19 3.32641C344.547 3.54678 344.903 3.78812 345.249 4.03997C345.459 4.20786 345.679 4.36526 345.888 4.55414C350.835 8.40523 354 14.439 354 21.2072Z" fill="url(#paint1_linear_92_2)"/>
<mask id="mask0_92_2" style="mask-type:alpha" maskUnits="userSpaceOnUse" x="0" y="0" width="353" height="225">
<path d="M352.407 21.6687V203.782C352.407 204.255 352.397 204.728 352.355 205.2C352.345 205.463 352.313 205.726 352.303 205.988C351.198 216.66 342.221 225 331.337 225H21.3426C16.4321 225 11.9283 223.319 8.34189 220.462C8.18551 220.357 8.02913 220.221 7.87274 220.095C3.22293 216.198 0.272491 210.326 0.272491 203.782V21.6687C0.272491 21.3011 0.282916 20.9335 0.303767 20.5763C0.314193 20.2822 0.345467 19.9986 0.366318 19.7045C1.34632 8.89617 10.354 0.440674 21.3426 0.440674H331.337C335.486 0.440674 339.386 1.6486 342.649 3.77035C343.003 3.99093 343.358 4.23252 343.702 4.48461C343.91 4.65267 344.129 4.81022 344.338 4.99929C349.259 8.85416 352.407 14.8938 352.407 21.6687Z" fill="url(#paint2_linear_92_2)"/>
</mask>
<g mask="url(#mask0_92_2)">
<path d="M148.295 54.8175L150.359 58.0075C151.145 59.2247 152.77 59.5605 153.975 58.7735L289.421 -29.3188C290.637 -30.1058 290.972 -31.7323 290.186 -32.939L288.122 -36.129C287.336 -37.3463 285.711 -37.6821 284.506 -36.8951L149.06 51.1867C147.855 51.9842 147.509 53.6002 148.295 54.8175Z" fill="url(#paint3_linear_92_2)"/>
<path d="M190.31 49.5604L192.374 52.7504C193.16 53.9676 194.785 54.3034 195.99 53.5164L331.436 -34.5864C332.652 -35.3734 332.987 -36.9999 332.201 -38.2066L330.137 -41.3966C329.351 -42.6139 327.726 -42.9497 326.521 -42.1626L191.075 45.9296C189.87 46.7167 189.524 48.3431 190.31 49.5604Z" fill="url(#paint4_linear_92_2)"/>
<path d="M171.928 79.7918L173.992 82.9818C174.778 84.1991 176.403 84.5349 177.608 83.7479L313.054 -4.34445C314.27 -5.13146 314.605 -6.75794 313.819 -7.96468L311.754 -11.1547C310.968 -12.3719 309.344 -12.7077 308.139 -11.9207L172.693 76.1716C171.487 76.9586 171.142 78.5746 171.928 79.7918Z" fill="url(#paint5_linear_92_2)"/>
<path d="M202.131 103.455L204.196 106.645C204.982 107.862 206.607 108.198 207.812 107.411L343.258 19.3184C344.473 18.5314 344.809 16.9049 344.023 15.6982L341.958 12.5082C341.172 11.2909 339.548 10.9551 338.343 11.7421L202.897 99.8344C201.681 100.621 201.335 102.237 202.131 103.455Z" fill="url(#paint6_linear_92_2)"/>
<path d="M186.369 75.8465L188.434 79.0365C189.22 80.2538 190.844 80.5895 192.05 79.8025L327.496 -8.28976C328.711 -9.07677 329.047 -10.7033 328.261 -11.91L326.196 -15.1C325.41 -16.3172 323.786 -16.653 322.58 -15.866L187.134 72.2263C185.929 73.0133 185.583 74.6293 186.369 75.8465Z" fill="url(#paint7_linear_92_2)"/>
<path d="M198.191 66.6436L200.256 69.8336C201.042 71.0509 202.666 71.3867 203.871 70.5997L339.317 -17.4926C340.533 -18.2797 340.868 -19.9061 340.082 -21.1129L338.018 -24.3029C337.232 -25.5201 335.607 -25.8559 334.402 -25.0689L198.956 63.0234C197.74 63.8104 197.405 65.4369 198.191 66.6436Z" fill="url(#paint8_linear_92_2)"/>
<path d="M123.352 120.538L125.416 123.728C126.202 124.945 127.827 125.281 129.032 124.494L264.478 36.4016C265.694 35.6146 266.029 33.9882 265.243 32.7814L263.179 29.5914C262.393 28.3742 260.768 28.0384 259.563 28.8254L124.117 116.918C122.912 117.705 122.566 119.331 123.352 120.538Z" fill="url(#paint9_linear_92_2)"/>
<path d="M215.253 107.4L217.317 110.59C218.103 111.807 219.728 112.143 220.933 111.356L356.379 23.2637C357.595 22.4767 357.93 20.8502 357.144 19.6435L355.079 16.4535C354.293 15.2362 352.669 14.9004 351.464 15.6875L216.018 103.78C214.813 104.567 214.467 106.183 215.253 107.4Z" fill="url(#paint10_linear_92_2)"/>
<path d="M145.675 133.686L147.739 136.876C148.525 138.093 150.15 138.429 151.355 137.642L286.801 49.5498C288.017 48.7628 288.352 47.1363 287.566 45.9296L285.501 42.7396C284.715 41.5224 283.091 41.1866 281.886 41.9736L146.44 130.066C145.224 130.853 144.889 132.479 145.675 133.686Z" fill="url(#paint11_linear_92_2)"/>
<path d="M175.868 163.928L177.933 167.118C178.719 168.336 180.343 168.671 181.548 167.884L316.994 79.792C318.21 79.005 318.545 77.3785 317.759 76.1718L315.695 72.9818C314.909 71.7646 313.284 71.4288 312.079 72.2158L176.633 160.308C175.428 161.085 175.082 162.711 175.868 163.928Z" fill="url(#paint12_linear_92_2)"/>
<path d="M212.633 99.5091L214.697 102.699C215.483 103.916 217.108 104.252 218.313 103.465L353.759 15.3728C354.975 14.5858 355.31 12.9593 354.524 11.7526L352.459 8.5626C351.673 7.34537 350.049 7.00957 348.844 7.79658L213.398 95.8889C212.182 96.6759 211.847 98.2919 212.633 99.5091Z" fill="url(#paint13_linear_92_2)"/>
<path d="M259.898 79.7918L261.963 82.9818C262.749 84.1991 264.373 84.5349 265.579 83.7479L401.025 -4.34445C402.24 -5.13146 402.576 -6.75794 401.79 -7.96468L399.725 -11.1547C398.939 -12.3719 397.315 -12.7077 396.109 -11.9207L260.663 76.1716C259.448 76.9586 259.112 78.5746 259.898 79.7918Z" fill="url(#paint14_linear_92_2)"/>
<path d="M202.131 111.335L204.196 114.525C204.982 115.742 206.607 116.078 207.812 115.291L343.258 27.1988C344.473 26.4118 344.809 24.7853 344.023 23.5785L341.958 20.3885C341.172 19.1713 339.548 18.8355 338.343 19.6225L202.897 107.715C201.681 108.502 201.335 110.128 202.131 111.335Z" fill="url(#paint15_linear_92_2)"/>
<path d="M263.828 115.281L265.893 118.471C266.679 119.688 268.303 120.024 269.509 119.237L404.955 31.1443C406.17 30.3573 406.506 28.7308 405.72 27.5241L403.655 24.3341C402.869 23.1168 401.245 22.7811 400.04 23.5681L264.593 111.66C263.388 112.447 263.042 114.074 263.828 115.281Z" fill="url(#paint16_linear_92_2)"/>
<path d="M181.119 103.455L183.183 106.645C183.969 107.862 185.594 108.198 186.799 107.411L322.245 19.3184C323.461 18.5314 323.796 16.9049 323.01 15.6982L320.945 12.5082C320.159 11.2909 318.535 10.9551 317.33 11.7421L181.884 99.8344C180.679 100.621 180.333 102.237 181.119 103.455Z" fill="url(#paint17_linear_92_2)"/>
<path d="M228.384 94.2518L230.449 97.4418C231.235 98.659 232.859 98.9948 234.065 98.2078L369.511 10.1155C370.726 9.3285 371.062 7.70202 370.276 6.49528L368.211 3.30528C367.425 2.08804 365.801 1.75225 364.595 2.53926L229.149 90.6316C227.944 91.4186 227.598 93.0346 228.384 94.2518Z" fill="url(#paint18_linear_92_2)"/>
<path d="M233.635 125.806L235.7 128.995C236.486 130.213 238.11 130.549 239.315 129.762L374.761 41.6692C375.977 40.8822 376.312 39.2557 375.526 38.049L373.462 34.859C372.676 33.6418 371.051 33.306 369.846 34.093L234.4 122.175C233.195 122.962 232.849 124.588 233.635 125.806Z" fill="url(#paint19_linear_92_2)"/>
<path d="M263.828 141.577L265.893 144.767C266.679 145.984 268.303 146.32 269.509 145.533L404.955 57.4409C406.17 56.6539 406.506 55.0275 405.72 53.8207L403.655 50.6307C402.869 49.4135 401.245 49.0777 400.04 49.8647L264.593 137.957C263.388 138.744 263.042 140.36 263.828 141.577Z" fill="url(#paint20_linear_92_2)"/>
<path d="M181.119 138.943L183.183 142.133C183.969 143.35 185.594 143.686 186.799 142.899L322.245 54.8069C323.461 54.0199 323.796 52.3934 323.01 51.1867L320.945 47.9967C320.159 46.7794 318.535 46.4437 317.33 47.2307L181.884 135.323C180.679 136.11 180.333 137.736 181.119 138.943Z" fill="url(#paint21_linear_92_2)"/>
<path d="M157.486 123.172L159.551 126.362C160.337 127.579 161.961 127.915 163.166 127.128L298.612 39.0354C299.828 38.2484 300.163 36.6219 299.377 35.4152L297.313 32.2252C296.527 31.008 294.902 30.6722 293.697 31.4592L158.251 119.551C157.046 120.338 156.7 121.954 157.486 123.172Z" fill="url(#paint22_linear_92_2)"/>
<path d="M-106.405 202.051L-104.341 205.241C-103.555 206.458 -101.93 206.794 -100.725 206.007L34.7209 117.915C35.9366 117.128 36.2719 115.501 35.4859 114.294L33.4213 111.104C32.6353 109.887 31.0109 109.551 29.8056 110.338L-105.64 198.42C-106.856 199.207 -107.202 200.834 -106.405 202.051Z" fill="url(#paint23_linear_92_2)"/>
<path d="M-64.4007 196.783L-62.3361 199.973C-61.5501 201.19 -59.9257 201.526 -58.7205 200.739L76.7256 112.647C77.9413 111.86 78.2766 110.233 77.4906 109.027L75.426 105.837C74.64 104.619 73.0156 104.284 71.8103 105.071L-63.6252 193.163C-64.8409 193.95 -65.1868 195.576 -64.4007 196.783Z" fill="url(#paint24_linear_92_2)"/>
<path d="M-82.7725 227.025L-80.7079 230.215C-79.9219 231.432 -78.2975 231.768 -77.0923 230.981L58.3538 142.889C59.5695 142.102 59.9048 140.475 59.1188 139.269L57.0542 136.079C56.2682 134.861 54.6438 134.526 53.4385 135.313L-82.0075 223.405C-83.2232 224.192 -83.569 225.808 -82.7725 227.025Z" fill="url(#paint25_linear_92_2)"/>
<path d="M-52.5792 250.688L-50.5146 253.878C-49.7285 255.095 -48.1041 255.431 -46.8989 254.644L88.5471 166.552C89.7629 165.765 90.0982 164.138 89.3122 162.931L87.2476 159.741C86.4616 158.524 84.8372 158.188 83.6319 158.975L-51.8141 247.068C-53.0193 247.855 -53.3652 249.471 -52.5792 250.688Z" fill="url(#paint26_linear_92_2)"/>
<path d="M-68.3309 223.08L-66.2663 226.27C-65.4802 227.487 -63.8558 227.823 -62.6506 227.036L72.7954 138.943C74.0111 138.156 74.3465 136.53 73.5605 135.323L71.4959 132.133C70.7099 130.916 69.0854 130.58 67.8802 131.367L-67.5658 219.459C-68.7815 220.246 -69.1274 221.862 -68.3309 223.08Z" fill="url(#paint27_linear_92_2)"/>
<path d="M-56.5197 213.877L-54.4551 217.067C-53.669 218.284 -52.0446 218.62 -50.8394 217.833L84.6067 129.741C85.8224 128.954 86.1577 127.327 85.3717 126.12L83.3071 122.93C82.5211 121.713 80.8967 121.377 79.6914 122.164L-55.7546 210.257C-56.9598 211.044 -57.3057 212.66 -56.5197 213.877Z" fill="url(#paint28_linear_92_2)"/>
<path d="M-131.359 267.771L-129.294 270.961C-128.508 272.179 -126.884 272.514 -125.678 271.727L9.76755 183.635C10.9833 182.848 11.3186 181.222 10.5326 180.015L8.46802 176.825C7.68201 175.608 6.05756 175.272 4.85234 176.059L-130.583 264.151C-131.799 264.938 -132.145 266.565 -131.359 267.771Z" fill="url(#paint29_linear_92_2)"/>
<path d="M-39.4474 254.633L-37.3828 257.823C-36.5968 259.041 -34.9724 259.376 -33.7672 258.589L101.679 170.497C102.895 169.71 103.23 168.084 102.444 166.877L100.379 163.687C99.5933 162.47 97.9689 162.134 96.7637 162.921L-38.6824 251.003C-39.8981 251.8 -40.2334 253.416 -39.4474 254.633Z" fill="url(#paint30_linear_92_2)"/>
<path d="M-109.036 280.919L-106.971 284.109C-106.185 285.327 -104.561 285.662 -103.356 284.875L32.0904 196.783C33.3061 195.996 33.6414 194.37 32.8554 193.163L30.7908 189.973C30.0048 188.756 28.3804 188.42 27.1751 189.207L-108.271 277.299C-109.476 278.086 -109.822 279.713 -109.036 280.919Z" fill="url(#paint31_linear_92_2)"/>
<path d="M-78.8425 311.162L-76.7779 314.352C-75.9919 315.569 -74.3675 315.905 -73.1622 315.118L62.2838 227.025C63.4995 226.238 63.8349 224.612 63.0489 223.405L60.9843 220.215C60.1982 218.998 58.5738 218.662 57.3686 219.449L-78.067 307.531C-79.2827 308.318 -79.6285 309.944 -78.8425 311.162Z" fill="url(#paint32_linear_92_2)"/>
<path d="M-42.078 246.742L-40.0134 249.932C-39.2274 251.15 -37.603 251.485 -36.3977 250.698L99.0483 162.606C100.264 161.819 100.599 160.192 99.8134 158.986L97.7488 155.796C96.9627 154.579 95.3383 154.243 94.1331 155.03L-41.3129 243.122C-42.5182 243.909 -42.864 245.525 -42.078 246.742Z" fill="url(#paint33_linear_92_2)"/>
<path d="M5.18769 227.025L7.25229 230.215C8.0383 231.432 9.66273 231.768 10.8679 230.981L146.314 142.889C147.53 142.102 147.865 140.475 147.079 139.269L145.014 136.079C144.228 134.861 142.604 134.526 141.399 135.313L5.95274 223.405C4.74751 224.192 4.40167 225.808 5.18769 227.025Z" fill="url(#paint34_linear_92_2)"/>
<path d="M-52.5791 258.568L-50.5145 261.758C-49.7285 262.976 -48.1041 263.311 -46.8989 262.524L88.5472 174.432C89.7629 173.645 90.0983 172.019 89.3122 170.812L87.2476 167.622C86.4616 166.405 84.8372 166.069 83.632 166.856L-51.8141 254.948C-53.0193 255.735 -53.3651 257.362 -52.5791 258.568Z" fill="url(#paint35_linear_92_2)"/>
<path d="M9.12824 262.514L11.1928 265.704C11.9789 266.921 13.6033 267.257 14.8085 266.47L150.255 178.378C151.47 177.591 151.806 175.964 151.02 174.757L148.955 171.567C148.169 170.35 146.545 170.014 145.339 170.801L9.89329 258.894C8.68806 259.681 8.34222 261.307 9.12824 262.514Z" fill="url(#paint36_linear_92_2)"/>
<path d="M-73.592 250.688L-71.5274 253.878C-70.7413 255.095 -69.1169 255.431 -67.9117 254.644L67.5343 166.552C68.75 165.765 69.0854 164.138 68.2994 162.931L66.2348 159.741C65.4488 158.524 63.8244 158.188 62.6191 158.975L-72.8164 247.068C-74.0321 247.855 -74.378 249.471 -73.592 250.688Z" fill="url(#paint37_linear_92_2)"/>
<path d="M-26.3262 241.485L-24.2616 244.675C-23.4756 245.892 -21.8512 246.228 -20.646 245.441L114.8 157.349C116.016 156.562 116.351 154.935 115.565 153.728L113.501 150.538C112.715 149.321 111.09 148.985 109.885 149.772L-25.5612 237.865C-26.7664 238.652 -27.1122 240.268 -26.3262 241.485Z" fill="url(#paint38_linear_92_2)"/>
<path d="M-21.0652 273.028L-19.0006 276.218C-18.2146 277.436 -16.5901 277.771 -15.3849 276.984L120.061 188.892C121.277 188.105 121.612 186.479 120.826 185.272L118.762 182.082C117.976 180.865 116.351 180.529 115.146 181.316L-20.3001 269.408C-21.5158 270.195 -21.8617 271.822 -21.0652 273.028Z" fill="url(#paint39_linear_92_2)"/>
<path d="M9.12824 288.81L11.1928 292C11.9789 293.218 13.6033 293.553 14.8085 292.766L150.255 204.674C151.47 203.887 151.806 202.261 151.02 201.054L148.955 197.864C148.169 196.647 146.545 196.311 145.339 197.098L9.89329 285.19C8.68806 285.977 8.34222 287.593 9.12824 288.81Z" fill="url(#paint40_linear_92_2)"/>
<path d="M-73.592 286.177L-71.5274 289.367C-70.7413 290.584 -69.1169 290.92 -67.9117 290.133L67.5343 202.04C68.75 201.253 69.0854 199.627 68.2994 198.42L66.2348 195.23C65.4488 194.013 63.8244 193.677 62.6191 194.464L-72.8164 282.556C-74.0321 283.343 -74.378 284.97 -73.592 286.177Z" fill="url(#paint41_linear_92_2)"/>
<path d="M-97.2247 270.405L-95.1601 273.595C-94.3741 274.812 -92.7497 275.148 -91.5445 274.361L43.9016 186.269C45.1173 185.482 45.4526 183.855 44.6666 182.648L42.602 179.458C41.816 178.241 40.1916 177.905 38.9864 178.692L-96.4492 266.785C-97.6649 267.572 -98.0108 269.188 -97.2247 270.405Z" fill="url(#paint42_linear_92_2)"/>
</g>
<g clip-path="url(#clip0_92_2)">
<path d="M33.0312 92.05V93.8444L30.495 93.7289L31.9727 95.7752L30.3797 96.7301L29.1221 94.4425L27.8644 96.7301L26.3029 95.7752L27.7596 93.7289L25.2444 93.8444V92.05L27.7596 92.1864L26.3029 90.1192L27.8644 89.1643L29.1221 91.4519L30.3797 89.1643L31.9727 90.1192L30.495 92.1864L33.0312 92.05Z" fill="white"/>
<path d="M46.1209 92.05V93.8444L43.5847 93.7289L45.0624 95.7752L43.4694 96.7301L42.2118 94.4425L40.9542 96.7301L39.3926 95.7752L40.8494 93.7289L38.3341 93.8444V92.05L40.8494 92.1864L39.3926 90.1192L40.9542 89.1643L42.2118 91.4519L43.4694 89.1643L45.0624 90.1192L43.5847 92.1864L46.1209 92.05Z" fill="white"/>
<path d="M59.2212 92.05V93.8444L56.685 93.7289L58.1627 95.7752L56.5697 96.7301L55.3121 94.4425L54.0544 96.7301L52.4929 95.7752L53.9496 93.7289L51.4344 93.8444V92.05L53.9496 92.1864L52.4929 90.1192L54.0544 89.1643L55.3121 91.4519L56.5697 89.1643L58.1627 90.1192L56.685 92.1864L59.2212 92.05Z" fill="white"/>
<path d="M72.3109 92.05V93.8444L69.7747 93.7289L71.2524 95.7752L69.6594 96.7301L68.4018 94.4425L67.1442 96.7301L65.5826 95.7752L67.0394 93.7289L64.5241 93.8444V92.05L67.0394 92.1864L65.5826 90.1192L67.1442 89.1643L68.4018 91.4519L69.6594 89.1643L71.2524 90.1192L69.7747 92.1864L72.3109 92.05Z" fill="white"/>
<path d="M94.487 92.05V93.8444L91.9508 93.7289L93.4285 95.7752L91.8356 96.7301L90.5779 94.4425L89.3203 96.7301L87.7588 95.7752L89.2155 93.7289L86.7003 93.8444V92.05L89.2155 92.1864L87.7588 90.1192L89.3203 89.1643L90.5779 91.4519L91.8356 89.1643L93.4285 90.1192L91.9508 92.1864L94.487 92.05Z" fill="white"/>
<path d="M107.577 92.05V93.8444L105.041 93.7289L106.518 95.7752L104.925 96.7301L103.668 94.4425L102.41 96.7301L100.849 95.7752L102.305 93.7289L99.79 93.8444V92.05L102.305 92.1864L100.849 90.1192L102.41 89.1643L103.668 91.4519L104.925 89.1643L106.518 90.1192L105.041 92.1864L107.577 92.05Z" fill="white"/>
<path d="M120.677 92.05V93.8444L118.141 93.7289L119.619 95.7752L118.026 96.7301L116.768 94.4425L115.51 96.7301L113.949 95.7752L115.406 93.7289L112.89 93.8444V92.05L115.406 92.1864L113.949 90.1192L115.51 89.1643L116.768 91.4519L118.026 89.1643L119.619 90.1192L118.141 92.1864L120.677 92.05Z" fill="white"/>
<path d="M133.767 92.05V93.8444L131.231 93.7289L132.708 95.7752L131.115 96.7301L129.858 94.4425L128.6 96.7301L127.039 95.7752L128.495 93.7289L125.98 93.8444V92.05L128.495 92.1864L127.039 90.1192L128.6 89.1643L129.858 91.4519L131.115 89.1643L132.708 90.1192L131.231 92.1864L133.767 92.05Z" fill="white"/>
<path d="M155.943 92.05V93.8444L153.407 93.7289L154.884 95.7752L153.291 96.7301L152.034 94.4425L150.776 96.7301L149.215 95.7752L150.671 93.7289L148.156 93.8444V92.05L150.671 92.1864L149.215 90.1192L150.776 89.1643L152.034 91.4519L153.291 89.1643L154.884 90.1192L153.407 92.1864L155.943 92.05Z" fill="white"/>
<path d="M169.033 92.05V93.8444L166.496 93.7289L167.974 95.7752L166.381 96.7301L165.124 94.4425L163.866 96.7301L162.304 95.7752L163.761 93.7289L161.246 93.8444V92.05L163.761 92.1864L162.304 90.1192L163.866 89.1643L165.124 91.4519L166.381 89.1643L167.974 90.1192L166.496 92.1864L169.033 92.05Z" fill="white"/>
<path d="M182.133 92.05V93.8444L179.597 93.7289L181.074 95.7752L179.481 96.7301L178.224 94.4425L176.966 96.7301L175.405 95.7752L176.861 93.7289L174.346 93.8444V92.05L176.861 92.1864L175.405 90.1192L176.966 89.1643L178.224 91.4519L179.481 89.1643L181.074 90.1192L179.597 92.1864L182.133 92.05Z" fill="white"/>
<path d="M195.223 92.05V93.8444L192.686 93.7289L194.164 95.7752L192.571 96.7301L191.314 94.4425L190.056 96.7301L188.494 95.7752L189.951 93.7289L187.436 93.8444V92.05L189.951 92.1864L188.494 90.1192L190.056 89.1643L191.314 91.4519L192.571 89.1643L194.164 90.1192L192.686 92.1864L195.223 92.05Z" fill="white"/>
<path d="M26.8898 162.566C25.7474 162.566 24.8042 162.188 24.0601 161.433C23.316 160.677 22.9492 159.754 22.9492 158.652C22.9492 157.55 23.316 156.627 24.0601 155.871C24.8042 155.116 25.7474 154.738 26.8898 154.738C27.5815 154.738 28.2103 154.906 28.7867 155.231C29.3631 155.567 29.8137 156.007 30.1386 156.564L29.2688 157.067C29.0487 156.648 28.7343 156.322 28.3046 156.07C27.8749 155.819 27.4033 155.703 26.8898 155.703C26.0199 155.703 25.3073 155.987 24.7623 156.543C24.2173 157.099 23.9344 157.802 23.9344 158.641C23.9344 159.47 24.2068 160.173 24.7623 160.73C25.3073 161.286 26.0199 161.569 26.8898 161.569C27.4033 161.569 27.8749 161.443 28.3046 161.202C28.7343 160.95 29.0487 160.625 29.2688 160.215L30.1386 160.709C29.8242 161.265 29.3736 161.716 28.7972 162.052C28.2208 162.398 27.5815 162.566 26.8898 162.566Z" fill="white"/>
<path d="M35.6198 157.025H36.5525V162.419H35.6198V161.496C35.1482 162.209 34.4774 162.566 33.5866 162.566C32.832 162.566 32.1927 162.293 31.6583 161.737C31.1238 161.191 30.8618 160.52 30.8618 159.722C30.8618 158.925 31.1238 158.264 31.6583 157.707C32.1927 157.162 32.832 156.878 33.5866 156.878C34.4774 156.878 35.1586 157.235 35.6198 157.949V157.025ZM33.7019 161.653C34.2469 161.653 34.708 161.464 35.0748 161.097C35.4416 160.729 35.6198 160.268 35.6198 159.722C35.6198 159.176 35.4416 158.715 35.0748 158.347C34.708 157.98 34.2573 157.791 33.7019 157.791C33.1674 157.791 32.7063 157.98 32.3499 158.347C31.9936 158.715 31.805 159.176 31.805 159.722C31.805 160.268 31.9831 160.729 32.3499 161.097C32.7063 161.475 33.1569 161.653 33.7019 161.653Z" fill="white"/>
<path d="M38.9106 157.938C39.2145 157.267 39.7804 156.931 40.5874 156.931V157.917C40.1263 157.896 39.728 158.022 39.4031 158.285C39.0782 158.547 38.9106 158.977 38.9106 159.565V162.419H37.9778V157.025H38.9106V157.938V157.938Z" fill="white"/>
<path d="M45.6808 154.874H46.6135V162.419H45.6808V161.495C45.2092 162.209 44.5384 162.566 43.6476 162.566C42.893 162.566 42.2537 162.293 41.7193 161.737C41.1848 161.191 40.9228 160.519 40.9228 159.722C40.9228 158.924 41.1848 158.263 41.7193 157.707C42.2537 157.162 42.893 156.878 43.6476 156.878C44.5384 156.878 45.2196 157.235 45.6808 157.949V154.874ZM43.7629 161.653C44.3079 161.653 44.769 161.464 45.1358 161.097C45.5026 160.729 45.6808 160.268 45.6808 159.722C45.6808 159.176 45.5026 158.715 45.1358 158.347C44.769 157.98 44.3183 157.791 43.7629 157.791C43.2284 157.791 42.7673 157.98 42.4109 158.347C42.0546 158.715 41.866 159.176 41.866 159.722C41.866 160.268 42.0441 160.729 42.4109 161.097C42.7673 161.474 43.2179 161.653 43.7629 161.653Z" fill="white"/>
<path d="M55.4902 154.874H56.4858V162.419H55.4902V159.019H51.8326V162.419H50.8265V154.874H51.8326V158.075H55.4902V154.874V154.874Z" fill="white"/>
<path d="M62.5434 161.737C61.9879 162.283 61.3172 162.555 60.5312 162.555C59.7452 162.555 59.0745 162.283 58.519 161.737C57.9636 161.191 57.6911 160.52 57.6911 159.722C57.6911 158.925 57.9636 158.253 58.519 157.707C59.0745 157.162 59.7347 156.889 60.5312 156.889C61.3277 156.889 61.9879 157.162 62.5434 157.707C63.0988 158.253 63.3713 158.925 63.3713 159.722C63.3713 160.52 63.0988 161.191 62.5434 161.737ZM60.5312 161.642C61.0657 161.642 61.5268 161.464 61.8831 161.097C62.25 160.73 62.4281 160.278 62.4281 159.733C62.4281 159.187 62.25 158.725 61.8831 158.358C61.5163 157.991 61.0657 157.812 60.5312 157.812C59.9967 157.812 59.5461 157.991 59.1793 158.358C58.8124 158.725 58.6343 159.187 58.6343 159.733C58.6343 160.278 58.8124 160.74 59.1793 161.097C59.5461 161.464 59.9967 161.642 60.5312 161.642Z" fill="white"/>
<path d="M64.4822 162.419V154.549H65.415V162.419H64.4822Z" fill="white"/>
<path d="M71.3153 154.874H72.2481V162.419H71.3153V161.495C70.8437 162.209 70.173 162.566 69.2822 162.566C68.5276 162.566 67.8883 162.293 67.3538 161.737C66.8193 161.191 66.5573 160.519 66.5573 159.722C66.5573 158.924 66.8193 158.263 67.3538 157.707C67.8883 157.162 68.5276 156.878 69.2822 156.878C70.173 156.878 70.8542 157.235 71.3153 157.949V154.874ZM69.3974 161.653C69.9424 161.653 70.4035 161.464 70.7704 161.097C71.1372 160.729 71.3153 160.268 71.3153 159.722C71.3153 159.176 71.1372 158.715 70.7704 158.347C70.4035 157.98 69.9529 157.791 69.3974 157.791C68.863 157.791 68.4018 157.98 68.0455 158.347C67.6892 158.715 67.5005 159.176 67.5005 159.722C67.5005 160.268 67.6787 160.729 68.0455 161.097C68.4018 161.474 68.8525 161.653 69.3974 161.653Z" fill="white"/>
<path d="M74.3231 160.152C74.4174 160.635 74.6375 161.013 74.9834 161.275C75.3292 161.538 75.7589 161.674 76.2724 161.674C76.9851 161.674 77.4986 161.412 77.8235 160.887L78.62 161.338C78.096 162.146 77.31 162.555 76.2515 162.555C75.3921 162.555 74.7004 162.293 74.1659 161.747C73.6314 161.202 73.3589 160.53 73.3589 159.712C73.3589 158.904 73.621 158.222 74.145 157.686C74.669 157.151 75.3502 156.878 76.1781 156.878C76.9641 156.878 77.6139 157.162 78.1065 157.718C78.6095 158.274 78.8506 158.946 78.8506 159.733C78.8506 159.869 78.8401 160.005 78.8191 160.152H74.3231ZM76.1886 157.77C75.6856 157.77 75.2663 157.917 74.9415 158.201C74.6166 158.484 74.407 158.862 74.3336 159.334H77.9283C77.8445 158.82 77.6454 158.431 77.3205 158.169C76.9956 157.907 76.6183 157.77 76.1886 157.77Z" fill="white"/>
<path d="M80.8837 157.938C81.1877 157.267 81.7536 156.931 82.5606 156.931V157.917C82.0994 157.896 81.7012 158.022 81.3763 158.285C81.0514 158.547 80.8837 158.977 80.8837 159.565V162.419H79.951V157.025H80.8837V157.938Z" fill="white"/>
<path d="M88.8592 156.889C89.488 156.889 90.0015 157.088 90.3788 157.487C90.7561 157.886 90.9447 158.431 90.9447 159.114V162.429H90.012V159.176C90.012 158.736 89.8967 158.4 89.6557 158.159C89.4146 157.917 89.0897 157.802 88.6705 157.802C88.1989 157.802 87.8321 157.949 87.5387 158.243C87.2557 158.536 87.109 158.977 87.109 159.586V162.44H86.1762V157.046H87.109V157.823C87.4967 157.193 88.0732 156.889 88.8592 156.889Z" fill="white"/>
<path d="M96.7088 157.025H97.6416V162.419H96.7088V161.496C96.2372 162.209 95.5665 162.566 94.6757 162.566C93.9211 162.566 93.2818 162.293 92.7473 161.737C92.2128 161.191 91.9508 160.52 91.9508 159.722C91.9508 158.925 92.2128 158.264 92.7473 157.707C93.2818 157.162 93.9211 156.878 94.6757 156.878C95.5665 156.878 96.2477 157.235 96.7088 157.949V157.025ZM94.7909 161.653C95.3359 161.653 95.797 161.464 96.1639 161.097C96.5307 160.729 96.7088 160.268 96.7088 159.722C96.7088 159.176 96.5307 158.715 96.1639 158.347C95.797 157.98 95.3464 157.791 94.7909 157.791C94.2565 157.791 93.7953 157.98 93.439 158.347C93.0827 158.715 92.894 159.176 92.894 159.722C92.894 160.268 93.0722 160.729 93.439 161.097C93.8058 161.475 94.2565 161.653 94.7909 161.653Z" fill="white"/>
<path d="M104.883 156.889C105.491 156.889 105.973 157.088 106.351 157.477C106.728 157.865 106.906 158.4 106.906 159.072V162.429H105.973V159.103C105.973 158.683 105.869 158.358 105.648 158.138C105.428 157.907 105.145 157.791 104.789 157.791C104.391 157.791 104.066 157.928 103.825 158.19C103.584 158.452 103.469 158.872 103.469 159.428V162.429H102.536V159.103C102.536 158.683 102.431 158.358 102.232 158.138C102.022 157.907 101.75 157.791 101.393 157.791C100.995 157.791 100.67 157.928 100.408 158.201C100.146 158.473 100.01 158.883 100.01 159.428V162.429H99.0773V157.036H100.01V157.76C100.377 157.183 100.911 156.899 101.614 156.899C102.337 156.899 102.871 157.204 103.196 157.812C103.563 157.193 104.129 156.889 104.883 156.889Z" fill="white"/>
<path d="M108.876 160.152C108.971 160.635 109.191 161.013 109.537 161.275C109.882 161.538 110.312 161.674 110.826 161.674C111.538 161.674 112.052 161.412 112.377 160.887L113.173 161.338C112.649 162.146 111.863 162.555 110.805 162.555C109.945 162.555 109.254 162.293 108.719 161.747C108.185 161.202 107.912 160.53 107.912 159.712C107.912 158.904 108.174 158.222 108.698 157.686C109.222 157.151 109.903 156.878 110.731 156.878C111.517 156.878 112.167 157.162 112.66 157.718C113.163 158.274 113.404 158.946 113.404 159.733C113.404 159.869 113.393 160.005 113.372 160.152H108.876ZM110.731 157.77C110.228 157.77 109.809 157.917 109.484 158.201C109.159 158.484 108.95 158.862 108.876 159.334H112.471C112.387 158.82 112.188 158.431 111.863 158.169C111.538 157.907 111.161 157.77 110.731 157.77Z" fill="white"/>
<path d="M208.522 165.409H212.022V166.354H207.516V158.809H211.97V159.753H208.522V162.073H211.698V163.006H208.522V165.409Z" fill="white"/>
<path d="M217.807 166.364H216.707L215.198 164.329L213.689 166.364H212.588L214.653 163.584L212.714 160.971H213.825L215.208 162.839L216.602 160.971H217.703L215.764 163.584L217.807 166.364Z" fill="white"/>
<path d="M221.654 160.834C222.408 160.834 223.048 161.107 223.582 161.663C224.117 162.219 224.379 162.88 224.379 163.678C224.379 164.475 224.117 165.137 223.582 165.693C223.048 166.238 222.408 166.522 221.654 166.522C220.763 166.522 220.082 166.165 219.621 165.451V168.536H218.688V160.992H219.621V161.915C220.082 161.191 220.763 160.834 221.654 160.834ZM221.538 165.598C222.073 165.598 222.534 165.409 222.89 165.042C223.257 164.675 223.435 164.213 223.435 163.667C223.435 163.122 223.257 162.66 222.89 162.293C222.524 161.926 222.073 161.737 221.538 161.737C220.993 161.737 220.532 161.926 220.165 162.293C219.799 162.66 219.621 163.122 219.621 163.667C219.621 164.213 219.799 164.675 220.165 165.042C220.532 165.409 220.993 165.598 221.538 165.598Z" fill="white"/>
<path d="M225.972 159.984C225.793 159.984 225.636 159.921 225.521 159.806C225.395 159.68 225.343 159.533 225.343 159.365C225.343 159.187 225.406 159.04 225.521 158.914C225.647 158.788 225.793 158.725 225.972 158.725C226.139 158.725 226.286 158.788 226.412 158.914C226.538 159.04 226.59 159.187 226.59 159.365C226.59 159.533 226.527 159.68 226.412 159.806C226.296 159.932 226.15 159.984 225.972 159.984ZM225.5 166.364V160.971H226.433V166.364H225.5Z" fill="white"/>
<path d="M228.801 161.873C229.105 161.202 229.671 160.866 230.478 160.866V161.852C230.017 161.831 229.619 161.957 229.294 162.219C228.969 162.482 228.801 162.912 228.801 163.5V166.354H227.868V160.96H228.801V161.873Z" fill="white"/>
<path d="M235.278 160.971H236.284L234.083 166.7C233.853 167.309 233.528 167.781 233.119 168.096C232.71 168.411 232.228 168.557 231.694 168.526V167.655C232.354 167.707 232.836 167.34 233.14 166.553L233.245 166.354L230.897 160.981H231.903L233.695 165.116L235.278 160.971Z" fill="white"/>
<path d="M242.803 158.809C243.83 158.809 244.679 159.176 245.36 159.9C246.041 160.624 246.377 161.527 246.377 162.576C246.377 163.636 246.041 164.528 245.36 165.252C244.679 165.976 243.83 166.343 242.803 166.343H239.858V158.799H242.803V158.809ZM242.803 165.409C243.568 165.409 244.197 165.137 244.689 164.601C245.182 164.066 245.423 163.384 245.423 162.587C245.423 161.779 245.182 161.107 244.689 160.572C244.197 160.037 243.568 159.764 242.803 159.764H240.864V165.42H242.803V165.409Z" fill="white"/>
<path d="M251.952 160.971H252.885V166.364H251.952V165.441C251.48 166.154 250.81 166.511 249.919 166.511C249.164 166.511 248.525 166.238 247.99 165.682C247.456 165.137 247.194 164.465 247.194 163.667C247.194 162.87 247.456 162.209 247.99 161.653C248.525 161.107 249.164 160.824 249.919 160.824C250.81 160.824 251.491 161.181 251.952 161.894V160.971ZM250.034 165.598C250.579 165.598 251.04 165.409 251.407 165.042C251.774 164.675 251.952 164.213 251.952 163.667C251.952 163.122 251.774 162.66 251.407 162.293C251.04 161.926 250.59 161.737 250.034 161.737C249.5 161.737 249.038 161.926 248.682 162.293C248.326 162.66 248.137 163.122 248.137 163.667C248.137 164.213 248.315 164.675 248.682 165.042C249.049 165.409 249.5 165.598 250.034 165.598Z" fill="white"/>
<path d="M257.244 161.873H255.809V164.801C255.809 165.063 255.861 165.252 255.966 165.368C256.071 165.483 256.228 165.535 256.448 165.546C256.668 165.546 256.93 165.546 257.244 165.525V166.364C256.427 166.469 255.83 166.406 255.442 166.165C255.065 165.924 254.876 165.472 254.876 164.801V161.873H253.807V160.971H254.876V159.743L255.809 159.46V160.971H257.244V161.873Z" fill="white"/>
<path d="M258.743 164.098C258.837 164.58 259.058 164.958 259.403 165.22C259.749 165.483 260.179 165.619 260.692 165.619C261.405 165.619 261.919 165.357 262.243 164.832L263.04 165.283C262.516 166.091 261.73 166.501 260.671 166.501C259.812 166.501 259.12 166.238 258.586 165.693C258.051 165.147 257.779 164.475 257.779 163.657C257.779 162.849 258.041 162.167 258.565 161.632C259.089 161.097 259.77 160.824 260.598 160.824C261.384 160.824 262.034 161.107 262.526 161.663C263.03 162.219 263.271 162.891 263.271 163.678C263.271 163.814 263.26 163.951 263.239 164.098H258.743V164.098ZM260.598 161.716C260.095 161.716 259.676 161.863 259.351 162.146C259.026 162.429 258.816 162.807 258.743 163.279H262.338C262.254 162.765 262.055 162.377 261.73 162.114C261.416 161.852 261.038 161.716 260.598 161.716Z" fill="white"/>
<path d="M327.944 181.307H324.664C323.647 181.307 322.871 181.59 322.431 182.598L316.122 196.911H320.587C320.587 196.911 321.32 194.991 321.488 194.571H326.938C327.074 195.116 327.451 196.911 327.451 196.911H331.402L327.944 181.307ZM322.704 191.381C323.05 190.478 324.381 187.016 324.381 187.016C324.381 187.016 324.747 186.092 324.957 185.525L325.24 186.879C325.24 186.879 326.068 190.594 326.225 191.381H322.704Z" fill="white"/>
<path d="M310.463 185.63C310.452 186.365 311.375 186.848 312.852 187.572C315.305 188.684 316.437 190.038 316.416 191.821C316.384 195.064 313.492 197.152 309.017 197.152C307.12 197.131 305.275 196.743 304.29 196.323L304.887 192.818L305.432 193.07C306.816 193.647 307.728 193.889 309.436 193.889C310.652 193.889 311.962 193.406 311.972 192.367C311.983 191.675 311.427 191.181 309.771 190.415C308.157 189.67 306.019 188.422 306.04 186.176C306.061 183.143 309.027 181.024 313.219 181.024C314.865 181.024 316.196 181.359 317.034 181.685L316.458 185.064L316.08 184.885C315.294 184.57 314.288 184.266 312.905 184.287C311.238 184.287 310.463 184.99 310.463 185.63Z" fill="white"/>
<path d="M304.29 181.297L301.618 196.9H297.384L300.035 181.297H304.29Z" fill="white"/>
<path d="M289.031 189.335C287.616 185.725 284.231 182.724 279.096 181.475L279.148 181.16H285.74C286.631 181.192 287.344 181.475 287.595 182.43L289.031 189.335Z" fill="white"/>
<path d="M298.316 181.307L291.62 196.89H287.124L283.319 183.878C286.055 185.63 288.381 188.411 289.199 190.342L289.649 191.947L293.81 181.297H298.316V181.307Z" fill="white"/>
<path d="M56.4334 56.1519H28.116C26.3029 56.1519 24.8147 54.6618 24.8147 52.8465V31.8491C24.8147 30.0338 26.3029 28.5437 28.116 28.5437H56.4334C58.2465 28.5437 59.7347 30.0338 59.7347 31.8491V52.8465C59.7452 54.6618 58.257 56.1519 56.4334 56.1519Z" fill="#F6C859"/>
<path d="M38.2608 52.4687C38.1141 52.4687 37.9673 52.3848 37.9045 52.2483C37.7997 52.049 37.8835 51.8076 38.0826 51.7027C38.6695 51.3984 39.466 50.8422 39.9271 49.8663C40.514 48.6281 40.3568 47.285 40.1158 47.1695C40.0529 47.138 39.8119 47.264 39.6651 47.3374C39.2774 47.5368 38.7534 47.7991 38.1455 47.5893C37.5481 47.3794 37.2547 46.8442 37.108 46.5924C36.1962 44.9134 35.9132 40.5377 36.8774 38.376C37.2023 37.652 37.632 37.2323 38.1769 37.0958C38.7324 36.9699 39.183 37.2008 39.5394 37.3897C39.8328 37.5471 39.99 37.61 40.0843 37.5575C40.4616 37.3267 40.4511 35.9416 39.9271 34.8398C39.466 33.8639 38.6695 33.2972 38.0826 33.0034C37.8835 32.8985 37.8101 32.6571 37.9045 32.4577C38.0093 32.2584 38.2503 32.1849 38.4494 32.2794C39.1411 32.6361 40.0948 33.3077 40.6503 34.4935C41.2057 35.6582 41.4677 37.6625 40.4931 38.2501C40.0005 38.5439 39.5394 38.3026 39.1621 38.1137C38.8791 37.9563 38.6171 37.8304 38.3551 37.8828C37.9988 37.9668 37.7577 38.376 37.611 38.7013C36.7621 40.6006 37.0032 44.7246 37.8101 46.2041C37.9464 46.456 38.1141 46.7288 38.397 46.8232C38.6695 46.9177 38.921 46.8023 39.2878 46.6134C39.6442 46.435 40.0424 46.2251 40.4616 46.435C41.3629 46.8757 41.3105 48.8275 40.6503 50.2126C40.0948 51.3879 39.1411 52.07 38.4494 52.4267C38.3865 52.4582 38.3237 52.4687 38.2608 52.4687Z" fill="#7D662D"/>
<path d="M37.0451 39.1105H29.7614C29.5413 39.1105 29.3526 38.9321 29.3526 38.7012C29.3526 38.4809 29.5308 38.292 29.7614 38.292H37.0451C37.2652 38.292 37.4538 38.4704 37.4538 38.7012C37.4538 38.9321 37.2652 39.1105 37.0451 39.1105Z" fill="#7D662D"/>
<path d="M37.0451 46.4034H29.7614C29.5413 46.4034 29.3526 46.2251 29.3526 45.9942C29.3526 45.7738 29.5308 45.585 29.7614 45.585H37.0451C37.2652 45.585 37.4538 45.7633 37.4538 45.9942C37.4538 46.2146 37.2652 46.4034 37.0451 46.4034Z" fill="#7D662D"/>
<path d="M46.7497 52.4686C46.6869 52.4686 46.624 52.4581 46.5611 52.4266C45.8694 52.0698 44.9157 51.3982 44.3603 50.2125C43.7 48.8274 43.6476 46.8756 44.5489 46.4348C44.9681 46.2355 45.3664 46.4348 45.7227 46.6132C46.0895 46.8021 46.341 46.9175 46.6135 46.8231C46.9174 46.7182 47.0956 46.3929 47.2004 46.204C48.0074 44.7244 48.2484 40.6005 47.3995 38.7012C47.2528 38.3759 47.0013 37.9667 46.6554 37.8827C46.4353 37.8302 46.2991 37.6099 46.3515 37.4C46.4039 37.1796 46.624 37.0432 46.8336 37.0957C47.3786 37.2216 47.8187 37.6519 48.1331 38.3759C49.0973 40.548 48.8248 44.9133 47.9026 46.5923C47.7663 46.8441 47.4729 47.3793 46.8755 47.5891C46.2677 47.799 45.7332 47.5367 45.3559 47.3373C45.2092 47.2638 44.9576 47.1379 44.9052 47.1694C44.6642 47.2848 44.507 48.628 45.0939 49.8662C45.555 50.8421 46.3515 51.4087 46.9384 51.7025C47.1375 51.8075 47.2109 52.0488 47.1166 52.2482C47.0432 52.3951 46.8965 52.4686 46.7497 52.4686Z" fill="#7D662D"/>
<path d="M45.1358 37.4946C44.9681 37.4946 44.8109 37.3896 44.748 37.2217C43.8782 34.6194 45.9113 32.6151 46.5611 32.2793C46.7602 32.1744 47.0013 32.2583 47.1061 32.4577C47.2109 32.6571 47.127 32.8984 46.9279 33.0034C46.6345 33.1503 44.769 34.7558 45.5131 36.9699C45.5865 37.1798 45.4712 37.4106 45.2616 37.4841C45.2197 37.4841 45.1777 37.4946 45.1358 37.4946Z" fill="#7D662D"/>
<path d="M55.2492 39.1105H47.9655C47.7454 39.1105 47.5567 38.9321 47.5567 38.7012C47.5567 38.4809 47.7349 38.292 47.9655 38.292H55.2492C55.4693 38.292 55.6579 38.4704 55.6579 38.7012C55.6474 38.9321 55.4693 39.1105 55.2492 39.1105Z" fill="#7D662D"/>
<path d="M55.2492 46.4034H47.9655C47.7454 46.4034 47.5567 46.2251 47.5567 45.9942C47.5567 45.7738 47.7349 45.585 47.9655 45.585H55.2492C55.4693 45.585 55.6579 45.7633 55.6579 45.9942C55.6474 46.2146 55.4693 46.4034 55.2492 46.4034Z" fill="#7D662D"/>
</g>
<defs>
<linearGradient id="paint0_linear_92_2" x1="38.6847" y1="250.981" x2="315.642" y2="-25.6264" gradientUnits="userSpaceOnUse">
<stop stop-color="#F7931E"/>
<stop offset="1" stop-color="#ED1E79"/>
</linearGradient>
<linearGradient id="paint1_linear_92_2" x1="38.7068" y1="250.65" x2="315.661" y2="-25.955" gradientUnits="userSpaceOnUse">
<stop stop-color="#ED1C24"/>
<stop offset="1" stop-color="#4F339A"/>
</linearGradient>
<linearGradient id="paint2_linear_92_2" x1="38.7569" y1="251.337" x2="315.975" y2="-23.8193" gradientUnits="userSpaceOnUse">
<stop stop-color="#ED1C24"/>
<stop offset="1" stop-color="#4F339A"/>
</linearGradient>
<linearGradient id="paint3_linear_92_2" x1="122.871" y1="78.0195" x2="271.879" y2="-50.5752" gradientUnits="userSpaceOnUse">
<stop stop-color="#ED1E79"/>
<stop offset="1" stop-color="#662D91"/>
</linearGradient>
<linearGradient id="paint4_linear_92_2" x1="164.884" y1="72.7592" x2="313.892" y2="-55.8357" gradientUnits="userSpaceOnUse">
<stop stop-color="#ED1E79"/>
<stop offset="1" stop-color="#662D91"/>
</linearGradient>
<linearGradient id="paint5_linear_92_2" x1="146.501" y1="102.993" x2="295.509" y2="-25.6011" gradientUnits="userSpaceOnUse">
<stop stop-color="#ED1E79"/>
<stop offset="1" stop-color="#662D91"/>
</linearGradient>
<linearGradient id="paint6_linear_92_2" x1="176.697" y1="126.653" x2="325.704" y2="-1.94202" gradientUnits="userSpaceOnUse">
<stop stop-color="#ED1E79"/>
<stop offset="1" stop-color="#662D91"/>
</linearGradient>
<linearGradient id="paint7_linear_92_2" x1="160.944" y1="99.0493" x2="309.951" y2="-29.5454" gradientUnits="userSpaceOnUse">
<stop stop-color="#ED1E79"/>
<stop offset="1" stop-color="#662D91"/>
</linearGradient>
<linearGradient id="paint8_linear_92_2" x1="172.76" y1="89.847" x2="321.768" y2="-38.7478" gradientUnits="userSpaceOnUse">
<stop stop-color="#ED1E79"/>
<stop offset="1" stop-color="#662D91"/>
</linearGradient>
<linearGradient id="paint9_linear_92_2" x1="97.9213" y1="143.746" x2="246.929" y2="15.1509" gradientUnits="userSpaceOnUse">
<stop stop-color="#ED1E79"/>
<stop offset="1" stop-color="#662D91"/>
</linearGradient>
<linearGradient id="paint10_linear_92_2" x1="189.825" y1="130.595" x2="338.833" y2="2.00037" gradientUnits="userSpaceOnUse">
<stop stop-color="#ED1E79"/>
<stop offset="1" stop-color="#662D91"/>
</linearGradient>
<linearGradient id="paint11_linear_92_2" x1="120.24" y1="156.889" x2="269.247" y2="28.2945" gradientUnits="userSpaceOnUse">
<stop stop-color="#ED1E79"/>
<stop offset="1" stop-color="#662D91"/>
</linearGradient>
<linearGradient id="paint12_linear_92_2" x1="150.434" y1="187.121" x2="299.442" y2="58.5258" gradientUnits="userSpaceOnUse">
<stop stop-color="#ED1E79"/>
<stop offset="1" stop-color="#662D91"/>
</linearGradient>
<linearGradient id="paint13_linear_92_2" x1="187.2" y1="122.708" x2="336.208" y2="-5.88626" gradientUnits="userSpaceOnUse">
<stop stop-color="#ED1E79"/>
<stop offset="1" stop-color="#662D91"/>
</linearGradient>
<linearGradient id="paint14_linear_92_2" x1="234.466" y1="102.988" x2="383.474" y2="-25.6062" gradientUnits="userSpaceOnUse">
<stop stop-color="#ED1E79"/>
<stop offset="1" stop-color="#662D91"/>
</linearGradient>
<linearGradient id="paint15_linear_92_2" x1="176.696" y1="134.539" x2="325.704" y2="5.94479" gradientUnits="userSpaceOnUse">
<stop stop-color="#ED1E79"/>
<stop offset="1" stop-color="#662D91"/>
</linearGradient>
<linearGradient id="paint16_linear_92_2" x1="238.402" y1="138.479" x2="387.41" y2="9.88434" gradientUnits="userSpaceOnUse">
<stop stop-color="#ED1E79"/>
<stop offset="1" stop-color="#662D91"/>
</linearGradient>
<linearGradient id="paint17_linear_92_2" x1="155.69" y1="126.654" x2="304.698" y2="-1.94071" gradientUnits="userSpaceOnUse">
<stop stop-color="#ED1E79"/>
<stop offset="1" stop-color="#662D91"/>
</linearGradient>
<linearGradient id="paint18_linear_92_2" x1="202.955" y1="117.449" x2="351.963" y2="-11.1453" gradientUnits="userSpaceOnUse">
<stop stop-color="#ED1E79"/>
<stop offset="1" stop-color="#662D91"/>
</linearGradient>
<linearGradient id="paint19_linear_92_2" x1="208.205" y1="148.997" x2="357.212" y2="20.4022" gradientUnits="userSpaceOnUse">
<stop stop-color="#ED1E79"/>
<stop offset="1" stop-color="#662D91"/>
</linearGradient>
<linearGradient id="paint20_linear_92_2" x1="238.4" y1="164.769" x2="387.408" y2="36.1745" gradientUnits="userSpaceOnUse">
<stop stop-color="#ED1E79"/>
<stop offset="1" stop-color="#662D91"/>
</linearGradient>
<linearGradient id="paint21_linear_92_2" x1="155.688" y1="162.145" x2="304.695" y2="33.55" gradientUnits="userSpaceOnUse">
<stop stop-color="#ED1E79"/>
<stop offset="1" stop-color="#662D91"/>
</linearGradient>
<linearGradient id="paint22_linear_92_2" x1="132.057" y1="146.372" x2="281.064" y2="17.7776" gradientUnits="userSpaceOnUse">
<stop stop-color="#ED1E79"/>
<stop offset="1" stop-color="#662D91"/>
</linearGradient>
<linearGradient id="paint23_linear_92_2" x1="-131.842" y1="225.257" x2="17.1661" y2="96.663" gradientUnits="userSpaceOnUse">
<stop stop-color="#ED1E79"/>
<stop offset="1" stop-color="#662D91"/>
</linearGradient>
<linearGradient id="paint24_linear_92_2" x1="-89.8286" y1="219.997" x2="59.1789" y2="91.4021" gradientUnits="userSpaceOnUse">
<stop stop-color="#ED1E79"/>
<stop offset="1" stop-color="#662D91"/>
</linearGradient>
<linearGradient id="paint25_linear_92_2" x1="-108.211" y1="250.231" x2="40.7963" y2="121.637" gradientUnits="userSpaceOnUse">
<stop stop-color="#ED1E79"/>
<stop offset="1" stop-color="#662D91"/>
</linearGradient>
<linearGradient id="paint26_linear_92_2" x1="-78.0163" y1="273.89" x2="70.9918" y2="145.296" gradientUnits="userSpaceOnUse">
<stop stop-color="#ED1E79"/>
<stop offset="1" stop-color="#662D91"/>
</linearGradient>
<linearGradient id="paint27_linear_92_2" x1="-93.7692" y1="246.287" x2="55.2384" y2="117.692" gradientUnits="userSpaceOnUse">
<stop stop-color="#ED1E79"/>
<stop offset="1" stop-color="#662D91"/>
</linearGradient>
<linearGradient id="paint28_linear_92_2" x1="-81.9524" y1="237.085" x2="67.0553" y2="108.49" gradientUnits="userSpaceOnUse">
<stop stop-color="#ED1E79"/>
<stop offset="1" stop-color="#662D91"/>
</linearGradient>
<linearGradient id="paint29_linear_92_2" x1="-156.791" y1="290.984" x2="-7.78379" y2="162.389" gradientUnits="userSpaceOnUse">
<stop stop-color="#ED1E79"/>
<stop offset="1" stop-color="#662D91"/>
</linearGradient>
<linearGradient id="paint30_linear_92_2" x1="-64.8875" y1="277.833" x2="84.1202" y2="149.238" gradientUnits="userSpaceOnUse">
<stop stop-color="#ED1E79"/>
<stop offset="1" stop-color="#662D91"/>
</linearGradient>
<linearGradient id="paint31_linear_92_2" x1="-134.473" y1="304.127" x2="14.5349" y2="175.532" gradientUnits="userSpaceOnUse">
<stop stop-color="#ED1E79"/>
<stop offset="1" stop-color="#662D91"/>
</linearGradient>
<linearGradient id="paint32_linear_92_2" x1="-104.278" y1="334.359" x2="44.7293" y2="205.764" gradientUnits="userSpaceOnUse">
<stop stop-color="#ED1E79"/>
<stop offset="1" stop-color="#662D91"/>
</linearGradient>
<linearGradient id="paint33_linear_92_2" x1="-67.5128" y1="269.946" x2="81.4952" y2="141.352" gradientUnits="userSpaceOnUse">
<stop stop-color="#ED1E79"/>
<stop offset="1" stop-color="#662D91"/>
</linearGradient>
<linearGradient id="paint34_linear_92_2" x1="-20.247" y1="250.226" x2="128.761" y2="121.632" gradientUnits="userSpaceOnUse">
<stop stop-color="#ED1E79"/>
<stop offset="1" stop-color="#662D91"/>
</linearGradient>
<linearGradient id="paint35_linear_92_2" x1="-78.0169" y1="281.777" x2="70.9911" y2="153.183" gradientUnits="userSpaceOnUse">
<stop stop-color="#ED1E79"/>
<stop offset="1" stop-color="#662D91"/>
</linearGradient>
<linearGradient id="paint36_linear_92_2" x1="-16.3105" y1="285.717" x2="132.697" y2="157.122" gradientUnits="userSpaceOnUse">
<stop stop-color="#ED1E79"/>
<stop offset="1" stop-color="#662D91"/>
</linearGradient>
<linearGradient id="paint37_linear_92_2" x1="-99.0226" y1="273.891" x2="49.9851" y2="145.297" gradientUnits="userSpaceOnUse">
<stop stop-color="#ED1E79"/>
<stop offset="1" stop-color="#662D91"/>
</linearGradient>
<linearGradient id="paint38_linear_92_2" x1="-51.7575" y1="264.687" x2="97.2501" y2="136.092" gradientUnits="userSpaceOnUse">
<stop stop-color="#ED1E79"/>
<stop offset="1" stop-color="#662D91"/>
</linearGradient>
<linearGradient id="paint39_linear_92_2" x1="-46.5081" y1="296.235" x2="102.5" y2="167.64" gradientUnits="userSpaceOnUse">
<stop stop-color="#ED1E79"/>
<stop offset="1" stop-color="#662D91"/>
</linearGradient>
<linearGradient id="paint40_linear_92_2" x1="-16.3124" y1="312.007" x2="132.695" y2="183.412" gradientUnits="userSpaceOnUse">
<stop stop-color="#ED1E79"/>
<stop offset="1" stop-color="#662D91"/>
</linearGradient>
<linearGradient id="paint41_linear_92_2" x1="-99.0251" y1="309.383" x2="49.9823" y2="180.788" gradientUnits="userSpaceOnUse">
<stop stop-color="#ED1E79"/>
<stop offset="1" stop-color="#662D91"/>
</linearGradient>
<linearGradient id="paint42_linear_92_2" x1="-122.656" y1="293.61" x2="26.3515" y2="165.016" gradientUnits="userSpaceOnUse">
<stop stop-color="#ED1E79"/>
<stop offset="1" stop-color="#662D91"/>
</linearGradient>
<clipPath id="clip0_92_2">
<rect width="308.432" height="168.598" fill="white" transform="translate(22.9492 28.5437)"/>
</clipPath>
</defs>
</svg>
