<svg width="354" height="224" viewBox="0 0 354 224" fill="none" xmlns="http://www.w3.org/2000/svg">
<path d="M349.91 21.026L350.687 200.662C350.741 212.22 341.399 221.636 329.841 221.69L21.805 223.021C10.2475 223.074 0.831087 213.732 0.777826 202.175L0.000226611 22.5386C-0.0530337 10.9812 9.28882 1.56474 20.8463 1.51148L328.882 0.179971C333.015 0.158666 336.893 1.34105 340.142 3.4182C346 7.10381 349.878 13.6016 349.91 21.026Z" fill="url(#paint0_linear_87_663)"/>
<path d="M265.289 0.818848C230.479 30.2931 226.239 67.2557 186.454 138.433C166.822 173.542 147.297 201.344 131.361 222.904L103.772 223.021C94.8459 223.063 87.1977 217.492 84.1512 209.631C89.5199 204.231 94.6755 198.734 99.3411 193.408C166.46 116.798 143.899 65.7538 206.16 5.75075C207.832 4.13164 209.515 2.56579 211.198 1.05319L265.289 0.818848Z" fill="url(#paint1_linear_87_663)"/>
<path d="M353.222 21.0261L353.425 67.4478C338.352 88.198 310.028 121.518 268.485 140.851C227.39 159.982 205.287 150.576 173.501 178.698C164.702 186.474 148.458 201.27 144.815 222.499L116.267 222.627C128.411 203.794 138.2 182.149 162.465 153.793C208.216 100.352 233.653 106.967 263.425 55.0808C265.875 50.8093 281.31 23.4974 285.912 0.393104L332.195 0.190713C336.328 0.169409 340.205 1.35179 343.454 3.42894C349.313 7.1039 353.19 13.6017 353.222 21.0261Z" fill="url(#paint2_linear_87_663)"/>
<path d="M291.792 0.382324C287.179 23.4973 271.745 50.8092 269.295 55.0806C239.522 106.967 214.085 100.352 168.334 153.793C144.058 182.149 134.28 203.794 122.136 222.627L58.5863 222.904C74.5111 201.344 94.047 173.532 113.679 138.433C153.464 67.2559 157.693 30.304 192.515 0.819058L291.792 0.382324Z" fill="url(#paint3_linear_87_663)"/>
<path d="M353.755 144.11L354 200.651C354.053 212.209 344.711 221.625 333.154 221.679L224.173 222.147C241.248 203.229 263.543 182.745 295.115 167.247C318.848 155.604 336.988 152.11 353.755 144.11Z" fill="url(#paint4_linear_87_663)"/>
<path d="M353.425 67.4478L353.755 144.111C336.988 152.11 318.848 155.604 295.115 167.247C263.553 182.746 241.248 203.23 224.172 222.148L144.804 222.488C148.436 201.259 164.691 186.463 173.49 178.687C205.286 150.566 227.379 159.972 268.474 140.84C310.028 121.518 338.352 88.198 353.425 67.4478Z" fill="url(#paint5_linear_87_663)"/>
<path d="M57.2745 61.2693L29.462 61.3865C27.6192 61.3971 26.0959 59.8846 26.0853 58.0418L26.0001 37.4939C25.9894 35.6511 27.502 34.1279 29.3448 34.1172L57.1573 34.0001C59.0001 33.9894 60.5234 35.502 60.534 37.3448L60.6192 57.8926C60.6299 59.7461 59.1173 61.2693 57.2745 61.2693Z" fill="#F6C859"/>
<path d="M39.379 57.7117C39.2299 57.7117 39.0914 57.6371 39.0169 57.4986C38.9103 57.3069 38.9956 57.0619 39.1873 56.9554C39.7625 56.6571 40.5508 56.0926 40.9981 55.1339C41.5734 53.9089 41.4136 52.5774 41.1686 52.4709C41.1047 52.4389 40.8703 52.5667 40.7212 52.6413C40.3484 52.833 39.8264 53.0993 39.2192 52.8969C38.6227 52.6946 38.3351 52.1726 38.1967 51.9169C37.2806 50.2659 36.9823 45.9518 37.9304 43.8001C38.2499 43.0864 38.676 42.6603 39.2086 42.5325C39.7519 42.4047 40.1992 42.6284 40.5614 42.8094C40.8597 42.9586 41.0088 43.0225 41.094 42.9692C41.4668 42.7455 41.4562 41.3714 40.9236 40.2849C40.4655 39.3262 39.6773 38.7723 39.0914 38.4741C38.8997 38.3782 38.8145 38.1332 38.921 37.9414C39.0169 37.7497 39.2619 37.6645 39.4536 37.771C40.146 38.1225 41.0834 38.783 41.6373 39.944C42.1912 41.0945 42.4575 43.0757 41.4988 43.6616C41.0195 43.9599 40.5508 43.7255 40.1886 43.5338C39.9116 43.3953 39.6453 43.2568 39.3897 43.3207C39.0382 43.406 38.7932 43.8107 38.6547 44.1303C37.8238 46.0051 38.0795 50.0848 38.889 51.5335C39.0275 51.7785 39.1873 52.0448 39.4749 52.1406C39.7412 52.2365 39.9968 52.1193 40.359 51.9276C40.7105 51.7465 41.1047 51.5441 41.5201 51.7465C42.4149 52.1726 42.3616 54.1006 41.7225 55.4747C41.1792 56.6465 40.2419 57.3069 39.5495 57.6691C39.5069 57.701 39.4429 57.7117 39.379 57.7117Z" fill="#7D662D"/>
<path d="M38.1221 44.5245L30.9213 44.5564C30.6976 44.5564 30.5165 44.3754 30.5165 44.1623C30.5165 43.9386 30.6976 43.7575 30.9107 43.7575L38.1115 43.7256C38.3352 43.7256 38.5162 43.9067 38.5162 44.1197C38.5269 44.3434 38.3458 44.5245 38.1221 44.5245Z" fill="#7D662D"/>
<path d="M38.1541 51.7252L30.9533 51.7571C30.7296 51.7571 30.5485 51.576 30.5485 51.363C30.5485 51.1393 30.7296 50.9582 30.9426 50.9582L38.1434 50.9263C38.3671 50.9263 38.5482 51.1074 38.5482 51.3204C38.5482 51.5334 38.3778 51.7252 38.1541 51.7252Z" fill="#7D662D"/>
<path d="M47.7729 57.68C47.7089 57.68 47.645 57.6693 47.5918 57.6374C46.8994 57.2858 45.962 56.6254 45.4081 55.4643C44.7477 54.1009 44.6838 52.1728 45.5785 51.7361C45.994 51.5337 46.3881 51.7361 46.7396 51.9065C47.1018 52.0876 47.3574 52.2048 47.6237 52.1089C47.922 52.0024 48.0924 51.6828 48.1989 51.4911C48.9872 50.0318 49.2109 45.952 48.3694 44.0879C48.2202 43.7684 47.9752 43.3636 47.6237 43.289C47.4107 43.2358 47.2722 43.0227 47.3255 42.8097C47.3787 42.5966 47.5918 42.4582 47.8048 42.5114C48.3374 42.6393 48.7741 43.0547 49.0937 43.7684C50.063 45.9094 49.7967 50.2235 48.902 51.8852C48.7635 52.1409 48.4759 52.6735 47.89 52.8759C47.2829 53.0889 46.7609 52.8226 46.3881 52.6309C46.239 52.5563 45.994 52.4391 45.9407 52.4604C45.6957 52.5776 45.5572 53.9091 46.1431 55.1235C46.6011 56.0821 47.3894 56.6361 47.9752 56.9343C48.167 57.0302 48.2522 57.2752 48.1457 57.4669C48.0605 57.5947 47.922 57.68 47.7729 57.68Z" fill="#7D662D"/>
<path d="M46.1112 42.8948C45.9407 42.8948 45.7916 42.7883 45.7277 42.6178C44.8649 40.0507 46.8568 38.0587 47.5066 37.7285C47.6983 37.622 47.9433 37.7072 48.0498 37.899C48.1563 38.0907 48.0711 38.3357 47.8794 38.4422C47.5918 38.5913 45.7596 40.1785 46.4946 42.3622C46.5692 42.5752 46.452 42.7989 46.239 42.8735C46.1964 42.8841 46.1538 42.8948 46.1112 42.8948Z" fill="#7D662D"/>
<path d="M56.1134 44.4498L48.9127 44.4817C48.689 44.4817 48.5079 44.3007 48.5079 44.0876C48.5079 43.8639 48.689 43.6828 48.902 43.6828L56.1028 43.6509C56.3265 43.6509 56.5076 43.832 56.5076 44.045C56.5182 44.2687 56.3371 44.4498 56.1134 44.4498Z" fill="#7D662D"/>
<path d="M56.1454 51.651L48.9446 51.6829C48.7209 51.6829 48.5398 51.5018 48.5398 51.2888C48.5398 51.0651 48.7209 50.884 48.9339 50.884L56.1347 50.8521C56.3584 50.8521 56.5395 51.0331 56.5395 51.2462C56.5501 51.4699 56.3691 51.651 56.1454 51.651Z" fill="#7D662D"/>
<path d="M37.3781 98.4242L37.3887 100.192L34.8748 100.086L36.3448 102.099L34.779 103.047L33.522 100.789L32.2864 103.058L30.7312 102.12L32.1586 100.097L29.6766 100.214L29.666 98.4455L32.1479 98.5733L30.6992 96.5388L32.2438 95.5907L33.5007 97.849L34.7364 95.5801L36.3129 96.5175L34.8642 98.5627L37.3781 98.4242Z" fill="white"/>
<path d="M50.3203 98.3603L50.331 100.129L47.8171 100.033L49.2871 102.046L47.7212 102.994L46.4749 100.736L45.2393 103.005L43.6948 102.067L45.1221 100.043L42.6402 100.161L42.6295 98.3923L45.1115 98.5201L43.6628 96.4855L45.2073 95.5375L46.4643 97.7957L47.6999 95.5269L49.2764 96.4642L47.8278 98.5094L50.3203 98.3603Z" fill="white"/>
<path d="M63.2732 98.3071L63.2839 100.075L60.77 99.9795L62.24 101.993L60.6741 102.941L59.4172 100.682L58.1815 102.951L56.6263 102.014L58.0537 99.9901L55.5718 100.107L55.5611 98.339L58.0431 98.4669L56.5944 96.4323L58.1389 95.4843L59.3959 97.7425L60.6315 95.4736L62.208 96.411L60.7593 98.4562L63.2732 98.3071Z" fill="white"/>
<path d="M76.2155 98.2539L76.2261 100.022L73.7122 99.9263L75.1822 101.94L73.6164 102.888L72.3594 100.629L71.1238 102.898L69.5686 101.961L70.996 99.937L68.514 100.065L68.5034 98.2966L70.9853 98.4244L69.5366 96.3898L71.0812 95.4418L72.3381 97.7L73.5738 95.4312L75.1503 96.3685L73.7016 98.4137L76.2155 98.2539Z" fill="white"/>
<path d="M98.1268 98.1582L98.1374 99.9264L95.6236 99.8305L97.0935 101.844L95.5277 102.792L94.2814 100.534L93.0458 102.802L91.5012 101.865L92.9286 99.8412L90.4467 99.9584L90.436 98.1901L92.9179 98.3179L91.4693 96.2834L93.0138 95.3354L94.2601 97.5936L95.4957 95.3247L97.0722 96.2621L95.6129 98.3073L98.1268 98.1582Z" fill="white"/>
<path d="M111.069 98.1045L111.08 99.8728L108.566 99.7769L110.036 101.79L108.47 102.738L107.224 100.48L105.988 102.749L104.443 101.811L105.871 99.7876L103.389 99.9154L103.378 98.1471L105.86 98.275L104.411 96.2404L105.956 95.2924L107.213 97.5506L108.449 95.2817L110.025 96.2191L108.576 98.2643L111.069 98.1045Z" fill="white"/>
<path d="M124.022 98.0513L124.033 99.8196L121.519 99.7237L122.989 101.737L121.423 102.685L120.177 100.427L118.941 102.696L117.396 101.758L118.824 99.7343L116.342 99.8622L116.331 98.0939L118.813 98.2217L117.364 96.1872L118.909 95.2392L120.166 97.4974L121.402 95.2285L122.978 96.1659L121.529 98.2111L124.022 98.0513Z" fill="white"/>
<path d="M136.964 97.9873L136.975 99.7556L134.461 99.6597L135.931 101.673L134.365 102.621L133.108 100.363L131.872 102.632L130.317 101.694L131.745 99.6704L129.263 99.7982L129.252 98.03L131.734 98.1578L130.285 96.1232L131.83 95.1752L133.087 97.4334L134.322 95.1646L135.899 96.1019L134.45 98.1471L136.964 97.9873Z" fill="white"/>
<path d="M158.875 97.8916L158.886 99.6599L156.372 99.564L157.842 101.577L156.276 102.525L155.03 100.267L153.794 102.536L152.25 101.599L153.677 99.5747L151.195 99.7025L151.185 97.9343L153.667 98.0621L152.218 96.0275L153.762 95.0795L155.009 97.3377L156.244 95.0688L157.821 96.0062L156.362 98.0514L158.875 97.8916Z" fill="white"/>
<path d="M171.818 97.8384L171.828 99.6067L169.314 99.5108L170.784 101.524L169.219 102.472L167.972 100.214L166.737 102.483L165.192 101.545L166.62 99.5214L164.138 99.6493L164.127 97.881L166.609 98.0089L165.16 95.9743L166.705 95.0263L167.951 97.2845L169.187 95.0156L170.763 95.953L169.304 97.9982L171.818 97.8384Z" fill="white"/>
<path d="M184.771 97.7852L184.781 99.5534L182.267 99.4576L183.737 101.471L182.171 102.419L180.925 100.161L179.69 102.429L178.145 101.492L179.572 99.4682L177.09 99.596L177.08 97.8278L179.562 97.9556L178.113 95.9211L179.658 94.9731L180.915 97.2313L182.15 94.9624L183.727 95.8998L182.278 97.945L184.771 97.7852Z" fill="white"/>
<path d="M197.713 97.7319L197.724 99.5001L195.21 99.4043L196.68 101.417L195.114 102.366L193.867 100.107L192.632 102.376L191.087 101.439L192.515 99.4149L190.033 99.5321L190.022 97.7638L192.504 97.8917L191.055 95.8571L192.6 94.9091L193.846 97.1673L195.082 94.8984L196.658 95.8358L195.199 97.881L197.713 97.7319Z" fill="white"/>
<path d="M31.6046 168.056C30.4755 168.056 29.5381 167.694 28.8032 166.948C28.0682 166.213 27.6953 165.297 27.6953 164.21C27.6953 163.124 28.0575 162.208 28.7819 161.462C29.5168 160.716 30.4436 160.333 31.5727 160.333C32.2544 160.333 32.8829 160.493 33.4581 160.812C34.0333 161.132 34.4807 161.569 34.8003 162.123L33.9374 162.623C33.7244 162.208 33.4048 161.888 32.9788 161.643C32.5527 161.398 32.084 161.281 31.5727 161.281C30.7099 161.281 30.0175 161.569 29.4742 162.123C28.931 162.676 28.6647 163.369 28.6647 164.2C28.6647 165.02 28.9416 165.712 29.4849 166.266C30.0281 166.82 30.7312 167.097 31.594 167.086C32.1053 167.086 32.574 166.959 32.9894 166.714C33.4048 166.469 33.7244 166.138 33.9374 165.734L34.8003 166.224C34.4914 166.778 34.044 167.225 33.4794 167.555C32.9149 167.885 32.2864 168.056 31.6046 168.056Z" fill="white"/>
<path d="M40.2115 162.56H41.1383L41.1596 167.886H40.2328V166.97C39.7748 167.673 39.1037 168.024 38.2303 168.035C37.4846 168.035 36.8455 167.769 36.3235 167.226C35.7909 166.682 35.5353 166.022 35.5246 165.244C35.5246 164.467 35.7803 163.796 36.3022 163.252C36.8242 162.709 37.4633 162.432 38.2089 162.432C39.0931 162.432 39.7641 162.773 40.2222 163.476L40.2115 162.56ZM38.3368 167.14C38.88 167.14 39.3274 166.959 39.6896 166.586C40.0518 166.224 40.2328 165.766 40.2222 165.223C40.2115 164.68 40.0411 164.232 39.6683 163.87C39.3061 163.508 38.8481 163.327 38.3155 163.327C37.7829 163.327 37.3355 163.519 36.9733 163.881C36.6111 164.243 36.4301 164.701 36.4407 165.244C36.4407 165.788 36.6218 166.235 36.9946 166.597C37.3568 166.959 37.8042 167.14 38.3368 167.14Z" fill="white"/>
<path d="M43.471 163.444C43.7693 162.784 44.3232 162.454 45.1328 162.443V163.412C44.6747 163.391 44.2912 163.519 43.961 163.774C43.6415 164.041 43.471 164.467 43.4817 165.042L43.4923 167.865H42.5656L42.5443 162.539H43.471V163.444Z" fill="white"/>
<path d="M50.1499 160.387H51.0766L51.1086 167.844H50.1818V166.928C49.7238 167.631 49.0527 167.982 48.1686 167.993C47.423 167.993 46.7838 167.726 46.2619 167.183C45.7293 166.64 45.463 165.98 45.463 165.202C45.463 164.424 45.7186 163.753 46.2406 163.21C46.7625 162.667 47.4017 162.39 48.1473 162.39C49.0314 162.39 49.7025 162.731 50.1605 163.434L50.1499 160.387ZM48.2751 167.098C48.8184 167.098 49.2658 166.917 49.6279 166.544C49.9901 166.182 50.1712 165.724 50.1605 165.181C50.1499 164.637 49.9795 164.19 49.6066 163.828C49.2445 163.466 48.7864 163.285 48.2538 163.285C47.7212 163.285 47.2738 163.476 46.9117 163.838C46.5495 164.201 46.3684 164.659 46.3791 165.202C46.3897 165.745 46.5601 166.193 46.933 166.555C47.3058 166.917 47.7425 167.098 48.2751 167.098Z" fill="white"/>
<path d="M59.8433 160.345H60.8233L60.8552 167.801H59.8752L59.8646 164.446L56.2429 164.456L56.2535 167.812H55.2629L55.2309 160.355H56.2216L56.2322 163.519L59.8539 163.508L59.8433 160.345Z" fill="white"/>
<path d="M66.8523 167.098C66.3091 167.641 65.6486 167.908 64.8604 167.918C64.0828 167.918 63.4117 167.652 62.8685 167.119C62.3252 166.587 62.0482 165.916 62.0482 165.127C62.0482 164.339 62.3145 163.679 62.8578 163.135C63.4011 162.592 64.0615 162.326 64.8391 162.315C65.6167 162.305 66.2878 162.582 66.831 163.114C67.3743 163.647 67.6512 164.318 67.6619 165.106C67.6619 165.894 67.3956 166.555 66.8523 167.098ZM64.8604 167.013C65.393 167.013 65.8404 166.832 66.2026 166.459C66.5647 166.097 66.7458 165.649 66.7352 165.106C66.7245 164.563 66.5541 164.115 66.1812 163.753C65.8191 163.391 65.3717 163.21 64.8391 163.221C64.3171 163.221 63.8697 163.402 63.5076 163.775C63.1454 164.137 62.9643 164.584 62.975 165.127C62.9856 165.671 63.1561 166.118 63.5289 166.48C63.8911 166.832 64.3278 167.013 64.8604 167.013Z" fill="white"/>
<path d="M68.7697 167.758L68.7377 159.982H69.6645L69.6964 167.758H68.7697Z" fill="white"/>
<path d="M75.4911 160.281H76.4179L76.4498 167.737H75.5231V166.821C75.0651 167.524 74.394 167.876 73.5098 167.886C72.7642 167.886 72.1251 167.62 71.6031 167.077C71.0812 166.534 70.8042 165.873 70.8042 165.095C70.8042 164.318 71.0599 163.647 71.5818 163.104C72.1038 162.56 72.7429 162.283 73.4885 162.283C74.3727 162.283 75.0437 162.624 75.5018 163.327L75.4911 160.281ZM73.627 166.981C74.1703 166.981 74.6177 166.789 74.9798 166.427C75.342 166.065 75.5231 165.607 75.5124 165.064C75.5018 164.52 75.3314 164.073 74.9585 163.711C74.5964 163.349 74.1383 163.167 73.6057 163.167C73.0731 163.167 72.6257 163.359 72.2636 163.721C71.9014 164.084 71.7203 164.542 71.731 165.085C71.7416 165.628 71.912 166.075 72.2849 166.438C72.6364 166.81 73.0944 166.992 73.627 166.981Z" fill="white"/>
<path d="M78.495 165.479C78.5909 165.958 78.8039 166.32 79.1554 166.587C79.5069 166.853 79.9224 166.981 80.4337 166.97C81.1367 166.97 81.648 166.704 81.9676 166.182L82.7558 166.629C82.2445 167.439 81.4669 167.833 80.423 167.844C79.5815 167.844 78.8891 167.588 78.3565 167.055C77.8239 166.533 77.5576 165.862 77.5576 165.053C77.5576 164.254 77.8133 163.583 78.3246 163.05C78.8359 162.518 79.5069 162.251 80.3378 162.241C81.1154 162.241 81.7545 162.507 82.2552 163.061C82.7452 163.604 83.0008 164.275 83.0008 165.042C83.0008 165.181 82.9902 165.319 82.9689 165.458L78.495 165.479ZM80.3272 163.125C79.8265 163.125 79.4217 163.263 79.0915 163.551C78.7613 163.828 78.5696 164.211 78.4843 164.68L82.0421 164.669C81.9569 164.169 81.7652 163.785 81.435 163.519C81.1261 163.253 80.7532 163.125 80.3272 163.125Z" fill="white"/>
<path d="M84.9715 163.263C85.2697 162.603 85.8236 162.272 86.6225 162.262V163.231C86.1645 163.21 85.781 163.338 85.4508 163.593C85.1313 163.86 84.9608 164.286 84.9608 164.861L84.9715 167.684H84.0447L84.0234 162.358H84.9502L84.9715 163.263Z" fill="white"/>
<path d="M92.8433 162.198C93.4718 162.198 93.9725 162.39 94.3453 162.784C94.7181 163.178 94.9098 163.711 94.9205 164.382L94.9311 167.652H94.0044L93.9938 164.435C93.9938 163.998 93.8766 163.668 93.6422 163.434C93.4079 163.2 93.0777 163.082 92.6729 163.082C92.2149 163.082 91.842 163.231 91.5544 163.519C91.2668 163.807 91.1284 164.254 91.139 164.851L91.1497 167.673H90.2229L90.2016 162.347H91.1284V163.114C91.4905 162.507 92.0657 162.198 92.8433 162.198Z" fill="white"/>
<path d="M100.609 162.305H101.535L101.557 167.631H100.63V166.715C100.172 167.418 99.5009 167.769 98.6168 167.78C97.8711 167.78 97.232 167.513 96.71 166.97C96.1774 166.427 95.9111 165.767 95.9111 164.989C95.9111 164.211 96.1668 163.54 96.6887 162.997C97.2107 162.454 97.8498 162.177 98.5954 162.177C99.4796 162.177 100.151 162.518 100.609 163.221V162.305ZM98.7339 166.874C99.2772 166.874 99.7246 166.693 100.087 166.32C100.449 165.958 100.63 165.5 100.619 164.957C100.609 164.414 100.438 163.966 100.065 163.604C99.7033 163.242 99.2452 163.061 98.7126 163.061C98.18 163.061 97.7326 163.253 97.3705 163.615C97.0083 163.977 96.8272 164.435 96.8379 164.978C96.8485 165.522 97.0189 165.969 97.3918 166.331C97.7433 166.693 98.2013 166.874 98.7339 166.874Z" fill="white"/>
<path d="M108.683 162.123C109.279 162.123 109.759 162.315 110.132 162.699C110.504 163.082 110.686 163.604 110.696 164.265L110.707 167.577H109.78L109.769 164.296C109.769 163.881 109.663 163.572 109.45 163.338C109.237 163.114 108.949 162.997 108.598 162.997C108.204 162.997 107.884 163.135 107.65 163.402C107.415 163.668 107.298 164.073 107.298 164.627L107.309 167.588H106.382L106.371 164.307C106.371 163.892 106.265 163.583 106.063 163.348C105.86 163.114 105.583 163.008 105.232 163.008C104.838 163.008 104.518 163.146 104.262 163.412C104.007 163.679 103.879 164.094 103.879 164.627L103.89 167.588H102.963L102.941 162.262H103.868V162.976C104.23 162.4 104.752 162.123 105.455 162.113C106.169 162.113 106.691 162.411 107.021 163.008C107.383 162.432 107.937 162.134 108.683 162.123Z" fill="white"/>
<path d="M112.635 165.34C112.731 165.82 112.944 166.182 113.295 166.448C113.636 166.714 114.062 166.842 114.574 166.842C115.277 166.842 115.788 166.576 116.107 166.054L116.896 166.501C116.384 167.311 115.607 167.716 114.563 167.716C113.721 167.716 113.029 167.46 112.496 166.928C111.964 166.406 111.697 165.734 111.697 164.925C111.697 164.126 111.953 163.455 112.464 162.922C112.976 162.39 113.647 162.123 114.478 162.113C115.255 162.113 115.894 162.379 116.395 162.933C116.885 163.476 117.141 164.137 117.141 164.914C117.141 165.053 117.13 165.191 117.109 165.33L112.635 165.34ZM114.467 162.976C113.966 162.976 113.562 163.125 113.231 163.402C112.901 163.679 112.709 164.062 112.624 164.531L116.182 164.52C116.097 164.02 115.905 163.636 115.575 163.37C115.266 163.103 114.893 162.976 114.467 162.976Z" fill="white"/>
<path d="M260.603 163.571L257.812 163.581L257.822 166.17L260.933 166.159V166.937L256.896 166.958L256.864 159.779L260.741 159.757V160.535L257.79 160.546L257.801 162.814L260.592 162.804L260.603 163.571Z" fill="white"/>
<path d="M262.531 161.771L263.266 162.879C263.457 163.167 263.617 163.433 263.788 163.721H263.82C263.99 163.412 264.16 163.146 264.331 162.869L265.055 161.771H266.067L264.32 164.275L266.142 166.927H265.076L264.32 165.766C264.118 165.468 263.947 165.18 263.766 164.871H263.745C263.575 165.18 263.393 165.457 263.202 165.766L262.456 166.927H261.423L263.244 164.285L261.487 161.771H262.531Z" fill="white"/>
<path d="M267.026 163.433C267.026 162.773 267.004 162.24 266.973 161.75H267.814L267.857 162.635H267.878C268.261 162.006 268.869 161.633 269.699 161.623C270.946 161.623 271.883 162.666 271.894 164.232C271.904 166.086 270.775 167.002 269.561 167.013C268.879 167.013 268.283 166.714 267.974 166.214H267.953L267.963 169.015H267.036L267.026 163.433ZM267.953 164.808C267.953 164.946 267.974 165.074 267.995 165.191C268.166 165.841 268.73 166.288 269.401 166.278C270.392 166.278 270.967 165.457 270.956 164.275C270.956 163.242 270.402 162.358 269.412 162.368C268.773 162.368 268.176 162.837 267.995 163.54C267.963 163.657 267.931 163.796 267.931 163.923L267.953 164.808Z" fill="white"/>
<path d="M274.109 160.27C274.12 160.59 273.886 160.845 273.513 160.845C273.183 160.845 272.948 160.59 272.948 160.27C272.948 159.94 273.193 159.684 273.534 159.684C273.886 159.684 274.109 159.94 274.109 160.27ZM273.097 166.874L273.076 161.719H274.014L274.035 166.874H273.097Z" fill="white"/>
<path d="M275.579 163.327C275.579 162.72 275.569 162.198 275.526 161.719H276.346L276.378 162.731H276.421C276.655 162.038 277.209 161.601 277.838 161.591C277.944 161.591 278.019 161.601 278.104 161.623V162.507C278.008 162.486 277.912 162.475 277.784 162.475C277.124 162.475 276.655 162.976 276.538 163.679C276.517 163.806 276.495 163.956 276.495 164.115L276.506 166.864H275.579V163.327Z" fill="white"/>
<path d="M279.659 161.697L280.799 164.733C280.916 165.074 281.044 165.479 281.129 165.788H281.15C281.246 165.479 281.353 165.085 281.481 164.712L282.493 161.687H283.483L282.098 165.361C281.438 167.13 280.98 168.035 280.341 168.6C279.883 169.004 279.425 169.164 279.19 169.218L278.956 168.429C279.19 168.355 279.499 168.206 279.776 167.971C280.032 167.769 280.352 167.407 280.565 166.927C280.607 166.831 280.639 166.757 280.639 166.704C280.639 166.65 280.618 166.576 280.575 166.459L278.647 161.718L279.659 161.697Z" fill="white"/>
<path d="M286.615 159.737C287.179 159.652 287.851 159.588 288.586 159.577C289.917 159.567 290.865 159.876 291.494 160.462C292.133 161.047 292.516 161.868 292.516 163.029C292.527 164.2 292.165 165.159 291.494 165.82C290.822 166.491 289.715 166.863 288.33 166.863C287.669 166.863 287.116 166.842 286.647 166.789L286.615 159.737ZM287.563 166.075C287.797 166.118 288.138 166.128 288.5 166.128C290.482 166.118 291.547 165.01 291.547 163.071C291.547 161.378 290.588 160.312 288.628 160.312C288.149 160.312 287.787 160.355 287.542 160.408L287.563 166.075Z" fill="white"/>
<path d="M296.553 166.778L296.479 166.129H296.447C296.159 166.533 295.605 166.896 294.87 166.906C293.826 166.906 293.294 166.182 293.283 165.436C293.283 164.19 294.38 163.508 296.372 163.508V163.402C296.372 162.976 296.244 162.209 295.201 162.219C294.721 162.219 294.221 162.368 293.858 162.613L293.645 161.996C294.071 161.719 294.689 161.538 295.339 161.527C296.915 161.516 297.299 162.592 297.31 163.625L297.32 165.553C297.32 166.001 297.342 166.438 297.405 166.789L296.553 166.778ZM296.404 164.147C295.382 164.126 294.221 164.318 294.231 165.319C294.231 165.926 294.636 166.214 295.115 166.214C295.786 166.214 296.212 165.788 296.362 165.34C296.394 165.245 296.415 165.138 296.415 165.042L296.404 164.147Z" fill="white"/>
<path d="M299.887 160.131L299.898 161.612L301.24 161.601V162.315L299.898 162.326L299.909 165.106C299.909 165.745 300.09 166.107 300.612 166.107C300.857 166.107 301.038 166.075 301.155 166.043L301.198 166.746C301.017 166.821 300.729 166.874 300.367 166.874C299.93 166.874 299.578 166.736 299.355 166.48C299.088 166.203 298.993 165.745 298.993 165.138L298.982 162.326H298.183V161.612H298.982V160.376L299.887 160.131Z" fill="white"/>
<path d="M302.763 164.339C302.795 165.607 303.605 166.118 304.542 166.118C305.213 166.118 305.618 166.001 305.97 165.852L306.13 166.523C305.799 166.672 305.235 166.842 304.415 166.853C302.827 166.864 301.879 165.82 301.869 164.265C301.858 162.709 302.774 161.484 304.276 161.474C305.959 161.463 306.406 162.944 306.417 163.892C306.417 164.083 306.396 164.233 306.385 164.328L302.763 164.339ZM305.512 163.657C305.522 163.061 305.256 162.134 304.201 162.145C303.253 162.145 302.838 163.018 302.774 163.668L305.512 163.657Z" fill="white"/>
<path d="M289.96 59.352C297.484 59.352 303.584 53.2523 303.584 45.728C303.584 38.2037 297.484 32.104 289.96 32.104C282.435 32.104 276.336 38.2037 276.336 45.728C276.336 53.2523 282.435 59.352 289.96 59.352Z" fill="white"/>
<path d="M308.185 59.2778C300.676 59.3097 294.529 53.2274 294.497 45.7071C294.465 38.1867 300.558 32.0511 308.068 32.0192C315.578 31.9872 321.724 38.0695 321.756 45.5899C321.788 53.1102 315.706 59.2458 308.185 59.2778ZM308.089 36.5569C303.083 36.5782 299.025 40.6686 299.046 45.6858C299.067 50.6922 303.158 54.7507 308.175 54.7294C313.181 54.7081 317.24 50.6177 317.218 45.6005C317.197 40.5941 313.096 36.5356 308.089 36.5569Z" fill="white"/>
<defs>
<linearGradient id="paint0_linear_87_663" x1="39.2161" y1="248.911" x2="311.471" y2="-25.7121" gradientUnits="userSpaceOnUse">
<stop stop-color="#ED1C24"/>
<stop offset="1" stop-color="#FCEE21"/>
</linearGradient>
<linearGradient id="paint1_linear_87_663" x1="83.7301" y1="112.351" x2="265.765" y2="111.563" gradientUnits="userSpaceOnUse">
<stop stop-color="#35C4FE"/>
<stop offset="1" stop-color="#FCEE21"/>
</linearGradient>
<linearGradient id="paint2_linear_87_663" x1="115.778" y1="111.872" x2="353.61" y2="110.842" gradientUnits="userSpaceOnUse">
<stop stop-color="#2690BA"/>
<stop offset="1" stop-color="#219DFC"/>
</linearGradient>
<linearGradient id="paint3_linear_87_663" x1="58.0991" y1="112.147" x2="292.265" y2="111.133" gradientUnits="userSpaceOnUse">
<stop stop-color="#35C4FE"/>
<stop offset="1" stop-color="#BCE068"/>
</linearGradient>
<linearGradient id="paint4_linear_87_663" x1="224.001" y1="183.415" x2="353.922" y2="182.853" gradientUnits="userSpaceOnUse">
<stop stop-color="#FE8235"/>
<stop offset="1" stop-color="#FCB721"/>
</linearGradient>
<linearGradient id="paint5_linear_87_663" x1="144.47" y1="145.425" x2="353.756" y2="144.519" gradientUnits="userSpaceOnUse">
<stop stop-color="#A435FE"/>
<stop offset="1" stop-color="#FC2121"/>
</linearGradient>
</defs>
</svg>
