<svg width="353" height="224" viewBox="0 0 353 224" fill="none" xmlns="http://www.w3.org/2000/svg">
<path d="M352.691 21.7417V202.802C352.691 214.449 343.24 223.899 331.593 223.899H21.0976C9.4504 223.91 0 214.459 0 202.812V21.7417C0 10.0944 9.4504 0.644043 21.0976 0.644043H331.593C335.759 0.644043 339.655 1.85643 342.929 3.95997C348.815 7.69039 352.691 14.2601 352.691 21.7417Z" fill="url(#paint0_linear_87_662)"/>
<path d="M35.7395 95.0759V96.8582L33.2111 96.7443L34.6826 98.7753L33.0971 99.7182L31.8433 97.4385L30.5895 99.7182L29.0351 98.7753L30.4859 96.7443L27.9782 96.8582V95.0759L30.4859 95.2106L29.0351 93.1485L30.5895 92.2056L31.8433 94.4853L33.0971 92.2056L34.6826 93.1485L33.2111 95.2106L35.7395 95.0759Z" fill="white"/>
<path d="M48.7856 95.0759V96.8582L46.2572 96.7443L47.7287 98.7753L46.1433 99.7182L44.8894 97.4385L43.6356 99.7182L42.0812 98.7753L43.532 96.7443L41.0243 96.8582V95.0759L43.532 95.2106L42.0812 93.1485L43.6356 92.2056L44.8894 94.4853L46.1433 92.2056L47.7287 93.1485L46.2572 95.2106L48.7856 95.0759Z" fill="white"/>
<path d="M61.8318 95.0759V96.8582L59.3034 96.7443L60.7748 98.7753L59.1894 99.7182L57.9355 97.4385L56.6817 99.7182L55.1274 98.7753L56.5781 96.7443L54.0704 96.8582V95.0759L56.5781 95.2106L55.1274 93.1485L56.6817 92.2056L57.9355 94.4853L59.1894 92.2056L60.7748 93.1485L59.3034 95.2106L61.8318 95.0759Z" fill="white"/>
<path d="M74.8779 95.0759V96.8582L72.3495 96.7443L73.8209 98.7753L72.2355 99.7182L70.9817 97.4385L69.7278 99.7182L68.1735 98.7753L69.6242 96.7443L67.1165 96.8582V95.0759L69.6242 95.2106L68.1735 93.1485L69.7278 92.2056L70.9817 94.4853L72.2355 92.2056L73.8209 93.1485L72.3495 95.2106L74.8779 95.0759Z" fill="white"/>
<path d="M96.9702 95.0759V96.8582L94.4418 96.7443L95.9133 98.7753L94.3279 99.7182L93.074 97.4385L91.8202 99.7182L90.2659 98.7753L91.7166 96.7443L89.2089 96.8582V95.0759L91.7166 95.2106L90.2659 93.1485L91.8202 92.2056L93.074 94.4853L94.3279 92.2056L95.9133 93.1485L94.4418 95.2106L96.9702 95.0759Z" fill="white"/>
<path d="M110.016 95.0759V96.8582L107.488 96.7443L108.959 98.7753L107.374 99.7182L106.12 97.4385L104.866 99.7182L103.312 98.7753L104.763 96.7443L102.255 96.8582V95.0759L104.763 95.2106L103.312 93.1485L104.866 92.2056L106.12 94.4853L107.374 92.2056L108.959 93.1485L107.488 95.2106L110.016 95.0759Z" fill="white"/>
<path d="M123.073 95.0759V96.8582L120.544 96.7443L122.016 98.7753L120.43 99.7182L119.177 97.4385L117.923 99.7182L116.368 98.7753L117.819 96.7443L115.311 96.8582V95.0759L117.819 95.2106L116.368 93.1485L117.923 92.2056L119.177 94.4853L120.43 92.2056L122.016 93.1485L120.544 95.2106L123.073 95.0759Z" fill="white"/>
<path d="M136.119 95.0759V96.8582L133.591 96.7443L135.062 98.7753L133.477 99.7182L132.223 97.4385L130.969 99.7182L129.415 98.7753L130.865 96.7443L128.358 96.8582V95.0759L130.865 95.2106L129.415 93.1485L130.969 92.2056L132.223 94.4853L133.477 92.2056L135.062 93.1485L133.591 95.2106L136.119 95.0759Z" fill="white"/>
<path d="M158.211 95.0759V96.8582L155.683 96.7443L157.154 98.7753L155.569 99.7182L154.315 97.4385L153.061 99.7182L151.507 98.7753L152.958 96.7443L150.45 96.8582V95.0759L152.958 95.2106L151.507 93.1485L153.061 92.2056L154.315 94.4853L155.569 92.2056L157.154 93.1485L155.683 95.2106L158.211 95.0759Z" fill="white"/>
<path d="M171.257 95.0759V96.8582L168.729 96.7443L170.201 98.7753L168.615 99.7182L167.361 97.4385L166.107 99.7182L164.553 98.7753L166.004 96.7443L163.496 96.8582V95.0759L166.004 95.2106L164.553 93.1485L166.107 92.2056L167.361 94.4853L168.615 92.2056L170.201 93.1485L168.729 95.2106L171.257 95.0759Z" fill="white"/>
<path d="M184.304 95.0759V96.8582L181.775 96.7443L183.247 98.7753L181.661 99.7182L180.407 97.4385L179.154 99.7182L177.599 98.7753L179.05 96.7443L176.542 96.8582V95.0759L179.05 95.2106L177.599 93.1485L179.154 92.2056L180.407 94.4853L181.661 92.2056L183.247 93.1485L181.775 95.2106L184.304 95.0759Z" fill="white"/>
<path d="M197.35 95.0759V96.8582L194.821 96.7443L196.293 98.7753L194.707 99.7182L193.454 97.4385L192.2 99.7182L190.645 98.7753L192.096 96.7443L189.588 96.8582V95.0759L192.096 95.2106L190.645 93.1485L192.2 92.2056L193.454 94.4853L194.707 92.2056L196.293 93.1485L194.821 95.2106L197.35 95.0759Z" fill="white"/>
<path d="M29.6154 165.239C28.4756 165.239 27.543 164.866 26.7969 164.109C26.0612 163.363 25.6881 162.431 25.6881 161.343C25.6881 160.254 26.0612 159.322 26.7969 158.576C27.5326 157.83 28.4756 157.446 29.6154 157.446C30.2993 157.446 30.9314 157.612 31.5117 157.944C32.092 158.275 32.5376 158.721 32.8588 159.27L31.9884 159.778C31.7708 159.363 31.4495 159.032 31.0247 158.783C30.5998 158.534 30.1232 158.41 29.6154 158.41C28.745 158.41 28.0403 158.69 27.4911 159.249C26.9419 159.809 26.6725 160.503 26.6725 161.343C26.6725 162.172 26.9419 162.866 27.4911 163.425C28.0403 163.985 28.745 164.265 29.6154 164.265C30.1335 164.265 30.5998 164.14 31.0247 163.892C31.4495 163.643 31.7708 163.322 31.9884 162.907L32.8588 163.405C32.5479 163.964 32.092 164.41 31.5221 164.741C30.9418 165.073 30.3097 165.239 29.6154 165.239Z" fill="white"/>
<path d="M38.3094 159.736H39.242V165.104H38.3094V164.182C37.8431 164.886 37.1695 165.249 36.2784 165.249C35.5323 165.249 34.8898 164.979 34.3613 164.43C33.8329 163.881 33.5634 163.218 33.5634 162.43C33.5634 161.643 33.8329 160.98 34.3613 160.43C34.8898 159.881 35.5323 159.612 36.2784 159.612C37.1695 159.612 37.8431 159.964 38.3094 160.679V159.736ZM36.4027 164.337C36.9416 164.337 37.3975 164.151 37.7705 163.788C38.1436 163.425 38.3197 162.959 38.3197 162.42C38.3197 161.881 38.1332 161.425 37.7705 161.052C37.4079 160.679 36.9519 160.503 36.4027 160.503C35.8639 160.503 35.4183 160.69 35.0556 161.052C34.6929 161.425 34.5064 161.881 34.5064 162.42C34.5064 162.969 34.6929 163.425 35.0556 163.788C35.4183 164.161 35.8639 164.337 36.4027 164.337Z" fill="white"/>
<path d="M41.5942 160.638C41.9051 159.975 42.4543 159.643 43.2729 159.643V160.617C42.817 160.596 42.4232 160.721 42.0916 160.98C41.76 161.249 41.5942 161.674 41.5942 162.254V165.104H40.6616V159.736H41.5942V160.638Z" fill="white"/>
<path d="M48.3401 157.591H49.2727V165.104H48.3401V164.182C47.8738 164.886 47.2002 165.249 46.3091 165.249C45.563 165.249 44.9205 164.98 44.392 164.43C43.8636 163.881 43.5941 163.218 43.5941 162.43C43.5941 161.643 43.8636 160.98 44.392 160.431C44.9205 159.881 45.563 159.612 46.3091 159.612C47.2002 159.612 47.8738 159.964 48.3401 160.679V157.591ZM46.423 164.337C46.9619 164.337 47.4178 164.151 47.7909 163.788C48.1639 163.425 48.3401 162.959 48.3401 162.42C48.3401 161.881 48.1536 161.425 47.7909 161.052C47.4282 160.679 46.9723 160.503 46.423 160.503C45.8842 160.503 45.4386 160.69 45.076 161.052C44.7133 161.425 44.5268 161.881 44.5268 162.42C44.5268 162.969 44.7133 163.425 45.076 163.788C45.4386 164.161 45.8946 164.337 46.423 164.337Z" fill="white"/>
<path d="M58.1117 157.591H59.0961V165.104H58.1117V161.726H54.4642V165.104H53.4694V157.591H54.4642V160.783H58.1117V157.591V157.591Z" fill="white"/>
<path d="M65.1477 164.43C64.5985 164.969 63.925 165.249 63.1374 165.249C62.3499 165.249 61.6867 164.98 61.1375 164.43C60.5883 163.881 60.3189 163.218 60.3189 162.42C60.3189 161.622 60.5883 160.959 61.1375 160.41C61.6867 159.871 62.3499 159.591 63.1374 159.591C63.925 159.591 64.5985 159.861 65.1477 160.41C65.6969 160.959 65.9767 161.622 65.9767 162.42C65.9663 163.218 65.6969 163.881 65.1477 164.43ZM63.1374 164.327C63.6763 164.327 64.1218 164.14 64.4949 163.778C64.8576 163.415 65.0441 162.959 65.0441 162.41C65.0441 161.871 64.8576 161.415 64.4949 161.042C64.1322 160.679 63.6763 160.493 63.1374 160.493C62.6089 160.493 62.1634 160.679 61.8007 161.042C61.438 161.405 61.2515 161.861 61.2515 162.41C61.2515 162.959 61.438 163.405 61.8007 163.778C62.1634 164.151 62.6089 164.327 63.1374 164.327Z" fill="white"/>
<path d="M67.0751 165.104V157.27H68.0077V165.104H67.0751Z" fill="white"/>
<path d="M73.8831 157.591H74.8157V165.104H73.8831V164.182C73.4168 164.886 72.7432 165.249 71.8521 165.249C71.106 165.249 70.4635 164.98 69.935 164.43C69.4066 163.881 69.1371 163.218 69.1371 162.43C69.1371 161.643 69.4066 160.98 69.935 160.431C70.4635 159.881 71.106 159.612 71.8521 159.612C72.7432 159.612 73.4168 159.964 73.8831 160.679V157.591ZM71.966 164.337C72.5049 164.337 72.9608 164.151 73.3339 163.788C73.7069 163.425 73.8831 162.959 73.8831 162.42C73.8831 161.881 73.6965 161.425 73.3339 161.052C72.9712 160.679 72.5152 160.503 71.966 160.503C71.4272 160.503 70.9816 160.69 70.619 161.052C70.2563 161.425 70.0698 161.881 70.0698 162.42C70.0698 162.969 70.2563 163.425 70.619 163.788C70.9816 164.161 71.4376 164.337 71.966 164.337Z" fill="white"/>
<path d="M76.8882 162.845C76.9814 163.321 77.199 163.694 77.5513 163.964C77.8933 164.223 78.3285 164.358 78.8363 164.358C79.5409 164.358 80.059 164.099 80.3802 163.57L81.1781 164.016C80.66 164.824 79.8725 165.228 78.8155 165.228C77.9658 165.228 77.2716 164.959 76.7431 164.43C76.2146 163.902 75.9452 163.218 75.9452 162.409C75.9452 161.601 76.2042 160.928 76.7327 160.389C77.2508 159.85 77.9348 159.581 78.7637 159.581C79.5513 159.581 80.1937 159.86 80.6911 160.41C81.1885 160.969 81.4372 161.632 81.4372 162.409C81.4372 162.544 81.4268 162.689 81.4061 162.824H76.8882V162.845ZM78.743 160.472C78.2456 160.472 77.8311 160.617 77.4995 160.897C77.1679 161.176 76.9711 161.56 76.8882 162.026H80.4735C80.3906 161.518 80.1937 161.135 79.8725 160.865C79.5513 160.606 79.1679 160.472 78.743 160.472Z" fill="white"/>
<path d="M83.4268 160.638C83.7376 159.975 84.2868 159.643 85.1055 159.643V160.617C84.6495 160.596 84.2558 160.721 83.9242 160.98C83.5926 161.249 83.4268 161.674 83.4268 162.254V165.104H82.4942V159.736H83.4268V160.638Z" fill="white"/>
<path d="M91.3643 159.602C91.9964 159.602 92.4938 159.798 92.8772 160.203C93.2606 160.596 93.4471 161.135 93.4471 161.819V165.114H92.5145V161.871C92.5145 161.436 92.4005 161.094 92.1622 160.855C91.9238 160.617 91.6026 160.493 91.1881 160.493C90.7218 160.493 90.3488 160.638 90.0586 160.928C89.7685 161.218 89.6338 161.664 89.6338 162.265V165.114H88.7012V159.747H89.6338V160.524C90.0068 159.902 90.5871 159.602 91.3643 159.602Z" fill="white"/>
<path d="M99.1878 159.736H100.12V165.104H99.1878V164.182C98.7215 164.886 98.0479 165.249 97.1568 165.249C96.4107 165.249 95.7682 164.979 95.2398 164.43C94.7113 163.881 94.4419 163.218 94.4419 162.43C94.4419 161.643 94.7113 160.98 95.2398 160.43C95.7682 159.881 96.4107 159.612 97.1568 159.612C98.0479 159.612 98.7215 159.964 99.1878 160.679V159.736ZM97.2811 164.337C97.82 164.337 98.2759 164.151 98.6489 163.788C99.022 163.425 99.1982 162.959 99.1982 162.42C99.1982 161.881 99.0116 161.425 98.6489 161.052C98.2863 160.679 97.8303 160.503 97.2811 160.503C96.7423 160.503 96.2967 160.69 95.934 161.052C95.5714 161.425 95.3848 161.881 95.3848 162.42C95.3848 162.969 95.5714 163.425 95.934 163.788C96.2864 164.161 96.7423 164.337 97.2811 164.337Z" fill="white"/>
<path d="M107.333 159.602C107.934 159.602 108.421 159.798 108.794 160.182C109.167 160.576 109.353 161.104 109.353 161.767V165.104H108.421V161.798C108.421 161.384 108.317 161.063 108.099 160.835C107.882 160.607 107.602 160.493 107.239 160.493C106.835 160.493 106.514 160.627 106.276 160.897C106.037 161.166 105.913 161.57 105.913 162.13V165.114H104.98V161.809C104.98 161.394 104.877 161.073 104.669 160.845C104.462 160.617 104.193 160.503 103.84 160.503C103.447 160.503 103.115 160.638 102.856 160.907C102.597 161.177 102.462 161.591 102.462 162.13V165.114H101.53V159.747H102.462V160.462C102.825 159.892 103.364 159.602 104.058 159.602C104.783 159.602 105.312 159.902 105.633 160.513C106.027 159.902 106.586 159.602 107.333 159.602Z" fill="white"/>
<path d="M111.301 162.845C111.395 163.321 111.612 163.694 111.964 163.964C112.306 164.223 112.742 164.358 113.249 164.358C113.954 164.358 114.472 164.099 114.793 163.57L115.591 164.016C115.073 164.824 114.286 165.228 113.229 165.228C112.379 165.228 111.685 164.959 111.156 164.43C110.628 163.902 110.358 163.218 110.358 162.409C110.358 161.601 110.617 160.928 111.146 160.389C111.664 159.85 112.348 159.581 113.177 159.581C113.964 159.581 114.607 159.86 115.104 160.41C115.602 160.969 115.85 161.632 115.85 162.409C115.85 162.544 115.84 162.689 115.819 162.824H111.301V162.845ZM113.167 160.472C112.669 160.472 112.255 160.617 111.923 160.897C111.591 161.176 111.395 161.56 111.312 162.026H114.897C114.814 161.518 114.617 161.135 114.296 160.865C113.964 160.606 113.591 160.472 113.167 160.472Z" fill="white"/>
<path d="M257.7 164.161H261.192V165.104H256.705V157.591H261.14V158.534H257.71V160.845H260.881V161.778H257.71V164.161H257.7Z" fill="white"/>
<path d="M266.953 165.104H265.855L264.342 163.073L262.829 165.104H261.731L263.782 162.337L261.845 159.736H262.953L264.332 161.602L265.72 159.736H266.818L264.881 162.337L266.953 165.104Z" fill="white"/>
<path d="M270.787 159.602C271.544 159.602 272.176 159.871 272.704 160.42C273.233 160.969 273.502 161.633 273.502 162.42C273.502 163.208 273.233 163.871 272.704 164.42C272.176 164.969 271.533 165.239 270.787 165.239C269.896 165.239 269.223 164.886 268.756 164.171V167.239H267.824V159.726H268.756V160.648C269.223 159.954 269.896 159.602 270.787 159.602ZM270.673 164.337C271.212 164.337 271.658 164.151 272.02 163.788C272.383 163.425 272.57 162.959 272.57 162.42C272.57 161.881 272.383 161.425 272.02 161.052C271.658 160.679 271.202 160.503 270.673 160.503C270.124 160.503 269.678 160.69 269.305 161.052C268.943 161.425 268.756 161.881 268.756 162.42C268.756 162.969 268.943 163.425 269.305 163.788C269.668 164.161 270.124 164.337 270.673 164.337Z" fill="white"/>
<path d="M275.088 158.762C274.911 158.762 274.756 158.7 274.632 158.576C274.507 158.451 274.445 158.306 274.445 158.14C274.445 157.964 274.507 157.819 274.632 157.695C274.756 157.57 274.901 157.508 275.088 157.508C275.264 157.508 275.409 157.57 275.523 157.695C275.647 157.819 275.709 157.964 275.709 158.14C275.709 158.317 275.647 158.462 275.523 158.576C275.409 158.7 275.264 158.762 275.088 158.762ZM274.621 165.104V159.736H275.554V165.104H274.621Z" fill="white"/>
<path d="M277.916 160.638C278.227 159.975 278.777 159.643 279.595 159.643V160.617C279.139 160.596 278.745 160.721 278.414 160.98C278.082 161.249 277.916 161.674 277.916 162.254V165.104H276.984V159.736H277.916V160.638Z" fill="white"/>
<path d="M284.362 159.736H285.357L283.17 165.436C282.942 166.047 282.621 166.503 282.206 166.824C281.792 167.145 281.326 167.28 280.787 167.249V166.379C281.44 166.43 281.927 166.068 282.227 165.28L282.331 165.083L279.989 159.736H280.984L282.776 163.85L284.362 159.736Z" fill="white"/>
<path d="M291.854 157.591C292.88 157.591 293.729 157.954 294.403 158.679C295.076 159.405 295.418 160.296 295.418 161.343C295.418 162.389 295.076 163.28 294.403 164.006C293.729 164.731 292.88 165.094 291.854 165.094H288.921V157.581H291.854V157.591ZM291.854 164.161C292.621 164.161 293.242 163.892 293.729 163.353C294.216 162.814 294.455 162.151 294.455 161.343C294.455 160.534 294.216 159.871 293.729 159.332C293.242 158.793 292.621 158.524 291.854 158.524H289.926V164.151H291.854V164.161Z" fill="white"/>
<path d="M300.983 159.736H301.916V165.104H300.983V164.182C300.517 164.886 299.843 165.249 298.952 165.249C298.206 165.249 297.563 164.979 297.035 164.43C296.506 163.881 296.237 163.218 296.237 162.43C296.237 161.643 296.506 160.98 297.035 160.43C297.563 159.881 298.206 159.612 298.952 159.612C299.843 159.612 300.517 159.964 300.983 160.679V159.736ZM299.066 164.337C299.605 164.337 300.061 164.151 300.434 163.788C300.807 163.425 300.983 162.959 300.983 162.42C300.983 161.881 300.796 161.425 300.434 161.052C300.071 160.679 299.615 160.503 299.066 160.503C298.527 160.503 298.081 160.69 297.719 161.052C297.356 161.425 297.17 161.881 297.17 162.42C297.17 162.969 297.356 163.425 297.719 163.788C298.081 164.161 298.527 164.337 299.066 164.337Z" fill="white"/>
<path d="M306.247 160.638H304.817V163.55C304.817 163.819 304.869 164.006 304.972 164.109C305.076 164.223 305.231 164.275 305.449 164.285C305.667 164.285 305.926 164.285 306.247 164.265V165.104C305.428 165.208 304.838 165.146 304.454 164.907C304.071 164.669 303.884 164.213 303.884 163.55V160.638H302.817V159.736H303.884V158.514L304.817 158.234V159.736H306.247V160.638V160.638Z" fill="white"/>
<path d="M307.739 162.845C307.832 163.321 308.05 163.694 308.402 163.964C308.744 164.223 309.179 164.358 309.687 164.358C310.392 164.358 310.91 164.099 311.231 163.57L312.029 164.016C311.511 164.824 310.723 165.228 309.667 165.228C308.817 165.228 308.123 164.959 307.594 164.43C307.066 163.902 306.796 163.218 306.796 162.409C306.796 161.601 307.055 160.928 307.584 160.389C308.102 159.85 308.786 159.581 309.615 159.581C310.402 159.581 311.045 159.86 311.542 160.41C312.039 160.969 312.288 161.632 312.288 162.409C312.288 162.544 312.278 162.689 312.257 162.824H307.739V162.845ZM309.594 160.472C309.097 160.472 308.682 160.617 308.351 160.897C308.019 161.176 307.822 161.56 307.739 162.026H311.324C311.242 161.518 311.045 161.135 310.723 160.865C310.402 160.606 310.029 160.472 309.594 160.472Z" fill="white"/>
<path d="M323.749 34.9951H320.257C319.169 34.9951 318.35 35.2956 317.884 36.3629L311.169 51.5851H315.915C315.915 51.5851 316.702 49.5438 316.879 49.0982H322.661C322.806 49.6785 323.21 51.5851 323.21 51.5851H327.407L323.749 34.9951ZM318.184 45.7097C318.547 44.746 319.956 41.0571 319.956 41.0571C319.956 41.0571 320.35 40.083 320.568 39.482L320.868 40.912C320.868 40.912 321.749 44.86 321.925 45.7097H318.184Z" fill="white"/>
<path d="M305.149 39.5961C305.138 40.3732 306.112 40.8914 307.698 41.6582C310.299 42.8395 311.511 44.2798 311.49 46.1658C311.459 49.606 308.371 51.8339 303.615 51.8339C301.594 51.8132 299.636 51.3987 298.579 50.9531L299.221 47.2331L299.802 47.5025C301.283 48.1139 302.247 48.3729 304.06 48.3729C305.356 48.3729 306.744 47.8652 306.755 46.7564C306.765 46.0207 306.174 45.5026 304.413 44.684C302.693 43.8964 300.423 42.5701 300.444 40.1867C300.465 36.9641 303.615 34.7051 308.081 34.7051C309.832 34.7051 311.242 35.0678 312.143 35.3994L311.532 38.9951L311.128 38.8085C310.288 38.4666 309.221 38.1454 307.739 38.1661C305.978 38.1661 305.149 38.9122 305.149 39.5961Z" fill="white"/>
<path d="M298.579 34.9849L295.74 51.5749H291.232L294.061 34.9849H298.579Z" fill="white"/>
<path d="M282.341 43.5235C280.839 39.6895 277.233 36.4979 271.772 35.1715L271.834 34.8296H278.849C279.802 34.8607 280.559 35.1715 280.828 36.1767L282.341 43.5235Z" fill="white"/>
<path d="M292.227 34.9951L285.098 51.5541H280.321L276.269 37.7308C279.181 39.596 281.657 42.5492 282.528 44.601L283.004 46.3107L287.439 34.9951H292.227Z" fill="white"/>
<path d="M59.0857 59.3464H30.8174C29.0248 59.3464 27.5533 57.8749 27.5533 56.0823V35.1401C27.5533 33.3474 29.0248 31.876 30.8174 31.876H59.0857C60.8784 31.876 62.3499 33.3474 62.3499 35.1401V56.0823C62.3602 57.8853 60.8888 59.3464 59.0857 59.3464Z" fill="#F6C859"/>
<path d="M40.9518 55.6881C40.8067 55.6881 40.6616 55.6052 40.5891 55.4705C40.4854 55.2736 40.5684 55.0249 40.7652 54.9317C41.3455 54.6312 42.1434 54.0716 42.5994 53.0976C43.1796 51.8644 43.0346 50.5277 42.7859 50.4137C42.7237 50.3826 42.475 50.507 42.3299 50.5899C41.9465 50.7868 41.4284 51.0562 40.817 50.8386C40.216 50.6313 39.9259 50.1029 39.7912 49.8438C38.8793 48.1755 38.5995 43.8233 39.5632 41.6576C39.8844 40.9426 40.3197 40.5177 40.8585 40.3934C41.4077 40.269 41.8533 40.497 42.216 40.6835C42.5165 40.839 42.6615 40.9011 42.7548 40.8493C43.1278 40.6214 43.1175 39.2432 42.5994 38.1448C42.1434 37.1707 41.3455 36.6112 40.7652 36.3107C40.5684 36.207 40.4854 35.9687 40.5891 35.7718C40.6927 35.5749 40.931 35.492 41.1279 35.5957C41.8222 35.948 42.7652 36.6215 43.3247 37.7925C43.8739 38.953 44.133 40.953 43.1693 41.5332C42.6823 41.8234 42.216 41.5851 41.8429 41.3985C41.5631 41.2535 41.2937 41.1188 41.0347 41.1809C40.6823 41.2638 40.4336 41.668 40.2886 41.9995C39.4492 43.8855 39.6876 47.9993 40.4855 49.4708C40.6202 49.7194 40.786 49.9889 41.0657 50.0925C41.3352 50.1857 41.5942 50.0718 41.9569 49.8852C42.3092 49.7091 42.703 49.5018 43.1278 49.7091C44.0294 50.1443 43.9672 52.0924 43.3144 53.4706C42.7548 54.6415 41.8118 55.3151 41.1176 55.6674C41.0761 55.6674 41.0139 55.6881 40.9518 55.6881Z" fill="#7D662D"/>
<path d="M39.7394 42.383H32.4858C32.2682 42.383 32.0816 42.2068 32.0816 41.9788C32.0816 41.7509 32.2578 41.5747 32.4858 41.5747H39.7394C39.957 41.5747 40.1435 41.7509 40.1435 41.9788C40.1435 42.2068 39.9673 42.383 39.7394 42.383Z" fill="#7D662D"/>
<path d="M39.7394 49.6369H32.4858C32.2682 49.6369 32.0816 49.4607 32.0816 49.2327C32.0816 49.0151 32.2578 48.8286 32.4858 48.8286H39.7394C39.957 48.8286 40.1435 49.0048 40.1435 49.2327C40.1435 49.4607 39.9673 49.6369 39.7394 49.6369Z" fill="#7D662D"/>
<path d="M49.4177 55.6884C49.3556 55.6884 49.2934 55.678 49.2312 55.6469C48.5369 55.2946 47.594 54.621 47.0344 53.4501C46.3816 52.0719 46.3194 50.1342 47.2209 49.6886C47.6458 49.4814 48.0396 49.6886 48.3919 49.8648C48.7545 50.0513 49.0136 50.1653 49.283 50.072C49.5835 49.9684 49.7597 49.6472 49.8633 49.4503C50.6716 47.9788 50.9099 43.8754 50.0602 41.9791C49.9151 41.6578 49.6664 41.2433 49.3141 41.1604C49.0965 41.1086 48.9618 40.891 49.0136 40.6734C49.0654 40.4558 49.283 40.3211 49.5006 40.3729C50.0395 40.4973 50.4747 40.9221 50.7959 41.6475C51.7596 43.8028 51.4798 48.155 50.5679 49.8337C50.4332 50.0927 50.1327 50.6212 49.5421 50.8284C48.9307 51.0357 48.4126 50.7766 48.0292 50.5798C47.8841 50.5072 47.6354 50.3829 47.5732 50.4036C47.3349 50.5176 47.1795 51.8543 47.7598 53.0874C48.2157 54.0615 49.0136 54.621 49.5939 54.9216C49.7908 55.0252 49.8737 55.2635 49.77 55.4604C49.6975 55.6055 49.5628 55.6884 49.4177 55.6884Z" fill="#7D662D"/>
<path d="M47.8012 40.777C47.6354 40.777 47.48 40.6734 47.4178 40.4972C46.5577 37.9067 48.5784 35.9067 49.2312 35.5751C49.4281 35.4715 49.6768 35.5544 49.77 35.7513C49.8737 35.9482 49.7908 36.1969 49.5939 36.2901C49.3037 36.4352 47.4489 38.031 48.1846 40.2382C48.2571 40.4454 48.1432 40.6734 47.9255 40.7459C47.8841 40.7667 47.8426 40.777 47.8012 40.777Z" fill="#7D662D"/>
<path d="M57.8733 42.383H50.6197C50.4021 42.383 50.2156 42.2068 50.2156 41.9788C50.2156 41.7509 50.3918 41.5747 50.6197 41.5747H57.8733C58.0909 41.5747 58.2775 41.7509 58.2775 41.9788C58.2775 42.2068 58.1013 42.383 57.8733 42.383Z" fill="#7D662D"/>
<path d="M57.8733 49.6369H50.6197C50.4021 49.6369 50.2156 49.4607 50.2156 49.2327C50.2156 49.0151 50.3918 48.8286 50.6197 48.8286H57.8733C58.0909 48.8286 58.2775 49.0048 58.2775 49.2327C58.2775 49.4607 58.1013 49.6369 57.8733 49.6369Z" fill="#7D662D"/>
<defs>
<linearGradient id="paint0_linear_87_662" x1="112.393" y1="276.605" x2="198.19" y2="56.1541" gradientUnits="userSpaceOnUse">
<stop stop-color="#93278F"/>
<stop offset="1" stop-color="#29ABE2"/>
</linearGradient>
</defs>
</svg>
