<svg width="351" height="223" viewBox="0 0 351 223" fill="none" xmlns="http://www.w3.org/2000/svg">
<path d="M350.268 21.877V201.507C350.268 213.065 340.887 222.446 329.329 222.446H21.2872C9.72927 222.446 0.348175 213.065 0.348175 201.507V21.877C0.348175 10.3191 9.72927 0.937988 21.2872 0.937988H329.34C333.476 0.937988 337.342 2.14043 340.576 4.22396C346.402 7.92457 350.268 14.4551 350.268 21.877Z" fill="url(#paint0_linear_87_664)"/>
<path d="M350.268 21.877V158.271C317.357 170.751 280.257 166.543 271.249 150.693C264.646 139.073 278.112 130.014 274.37 108.577C272.587 98.4185 267.912 90.9965 261.246 83.9892C252.321 74.5666 239.81 65.9112 226.013 52.4148C217.14 43.7386 195.392 22.4679 183.534 0.937988H329.329C333.465 0.937988 337.332 2.14043 340.576 4.23433C346.412 7.92457 350.268 14.4447 350.268 21.877Z" fill="url(#paint1_linear_87_664)"/>
<path d="M350.268 69.1557V201.507C350.268 213.065 340.898 222.436 329.34 222.436H21.2872C9.72928 222.436 0.358551 213.065 0.358551 201.507V99.8801C6.39148 93.9094 13.4506 88.3222 21.6707 83.6161C46.7354 69.2386 70.9604 70.2027 118.384 72.7008C175.521 75.7069 179.543 85.4923 219.773 86.7362C236.327 87.2545 249.802 86.0313 261.246 83.9892C299.818 77.013 315.097 60.4173 346.122 68.0155C347.501 68.3575 348.879 68.7307 350.268 69.1557Z" fill="url(#paint2_linear_87_664)"/>
<path d="M108.143 0.937988C102.441 56.5923 56.8006 100.419 0.348175 103.29V21.877C0.348175 10.3191 9.72927 0.937988 21.2872 0.937988H108.143Z" fill="url(#paint3_linear_87_664)"/>
<path opacity="0.33" d="M260.096 222.436H112.911L176.495 158.851C181.999 153.357 190.997 153.357 196.501 158.851L260.096 222.436Z" fill="url(#paint4_linear_87_664)"/>
<path opacity="0.27" d="M350.268 199.05V201.497C350.268 213.054 340.887 222.436 329.329 222.436H21.2872C9.72927 222.436 0.348175 213.054 0.348175 201.497V119.129C6.15305 116.04 12.8598 113.687 20.375 112.858C37.7896 110.961 51.4518 118.217 67.4982 126.997C98.2744 143.842 103.115 157.162 120.52 168.233C154.001 189.534 181.512 169.176 238.338 170.586C281.149 171.664 326.613 184.725 350.268 199.05Z" fill="url(#paint5_linear_87_664)"/>
<path opacity="0.53" d="M350.268 21.877V201.507C350.268 213.065 340.887 222.446 329.329 222.446H21.2872C9.72927 222.446 0.348175 213.065 0.348175 201.507V21.877C0.348175 10.3191 9.72927 0.937988 21.2872 0.937988H329.34C333.476 0.937988 337.342 2.14043 340.576 4.22396C346.402 7.92457 350.268 14.4551 350.268 21.877Z" fill="url(#paint6_linear_87_664)"/>
<path d="M37.1573 37.4466H30.2536V42.5051H36.8671V44.4642H30.2536V51.0777H28.1805V35.4771H37.1573V37.4466Z" fill="white"/>
<path d="M40.4537 37.913C40.0805 37.913 39.7695 37.7886 39.5207 37.5294C39.272 37.2807 39.1372 36.9697 39.1372 36.6172C39.1372 36.2648 39.2616 35.9538 39.5207 35.6947C39.7695 35.4355 40.0805 35.3008 40.4537 35.3008C40.8061 35.3008 41.1171 35.4355 41.3659 35.6947C41.6146 35.9538 41.7494 36.2648 41.7494 36.6172C41.7494 36.9697 41.625 37.2807 41.3659 37.5294C41.1171 37.7782 40.8165 37.913 40.4537 37.913ZM39.4793 51.0776V39.9343H41.4177V51.0776H39.4793Z" fill="white"/>
<path d="M49.928 39.644C51.2341 39.644 52.2811 40.0587 53.0689 40.8776C53.8567 41.7069 54.2506 42.816 54.2506 44.2257V51.0672H52.3122V44.3398C52.3122 43.4379 52.0634 42.7331 51.5762 42.2355C51.089 41.7379 50.4049 41.4892 49.5445 41.4892C48.5805 41.4892 47.803 41.7898 47.2018 42.391C46.6006 42.9922 46.3104 43.9148 46.3104 45.169V51.0672H44.3719V39.9343H46.3104V41.541C47.0982 40.2764 48.311 39.644 49.928 39.644Z" fill="white"/>
<path d="M66.161 39.9342H68.0994V51.0775H66.161V49.1598C65.197 50.6317 63.7872 51.3677 61.9524 51.3677C60.3976 51.3677 59.0604 50.7976 57.9616 49.6677C56.8628 48.5275 56.3134 47.1488 56.3134 45.511C56.3134 43.8732 56.8628 42.4945 57.9616 41.3543C59.0604 40.2141 60.3872 39.6543 61.9524 39.6543C63.7976 39.6543 65.197 40.3903 66.161 41.8622V39.9342ZM62.2012 49.4915C63.3311 49.4915 64.2744 49.108 65.0311 48.3409C65.7878 47.5738 66.1713 46.6305 66.1713 45.5006C66.1713 44.3708 65.7878 43.4275 65.0311 42.6604C64.2744 41.8933 63.3311 41.5098 62.2012 41.5098C61.0817 41.5098 60.1488 41.8933 59.3921 42.6604C58.6354 43.4275 58.2518 44.3708 58.2518 45.5006C58.2518 46.6305 58.6354 47.5738 59.3921 48.3409C60.1488 49.108 61.0817 49.4915 62.2012 49.4915Z" fill="white"/>
<path d="M76.2781 51.3677C74.5988 51.3677 73.1994 50.808 72.0903 49.6884C70.9707 48.5689 70.4214 47.1799 70.4214 45.511C70.4214 43.8421 70.9811 42.4531 72.0903 41.3336C73.1994 40.214 74.5988 39.6543 76.2781 39.6543C77.3768 39.6543 78.3616 39.9134 79.2427 40.4421C80.1238 40.9708 80.7768 41.6756 81.2018 42.5671L79.5744 43.5C79.2945 42.9092 78.8592 42.4323 78.2683 42.0695C77.6775 41.7067 77.014 41.5305 76.2781 41.5305C75.1586 41.5305 74.236 41.914 73.4793 42.6708C72.7226 43.4275 72.3598 44.3708 72.3598 45.5006C72.3598 46.6098 72.7329 47.5531 73.4793 48.3098C74.2256 49.0665 75.1586 49.45 76.2781 49.45C77.0244 49.45 77.6878 49.2738 78.2787 48.9214C78.8695 48.5689 79.3256 48.1025 79.6366 47.5116L81.2848 48.4653C80.8079 49.3464 80.1238 50.0409 79.2323 50.5695C78.3512 51.0982 77.3561 51.3677 76.2781 51.3677Z" fill="white"/>
<path d="M84.1872 37.913C83.8141 37.913 83.5031 37.7886 83.2543 37.5294C83.0055 37.2807 82.8708 36.9697 82.8708 36.6172C82.8708 36.2648 82.9952 35.9538 83.2543 35.6947C83.5031 35.4355 83.8141 35.3008 84.1872 35.3008C84.5397 35.3008 84.8506 35.4355 85.0994 35.6947C85.3482 35.9538 85.483 36.2648 85.483 36.6172C85.483 36.9697 85.3586 37.2807 85.0994 37.5294C84.8403 37.7782 84.5397 37.913 84.1872 37.913ZM83.2025 51.0776V39.9343H85.1409V51.0776H83.2025Z" fill="white"/>
<path d="M35.8201 94.6245V96.3867L33.3116 96.2727L34.7732 98.2837L33.1975 99.227L31.9536 96.9672L30.7097 99.227L29.1652 98.2837L30.5957 96.2727L28.1079 96.3867V94.6245L30.5957 94.7593L29.1652 92.7172L30.7097 91.7739L31.9536 94.0337L33.1975 91.7739L34.7732 92.7172L33.3116 94.7593L35.8201 94.6245Z" fill="white"/>
<path d="M48.7567 94.6245V96.3867L46.2482 96.2727L47.7098 98.2837L46.1342 99.227L44.8903 96.9672L43.6464 99.227L42.1018 98.2837L43.5323 96.2727L41.0445 96.3867V94.6245L43.5323 94.7593L42.1018 92.7172L43.6464 91.7739L44.8903 94.0337L46.1342 91.7739L47.7098 92.7172L46.2482 94.7593L48.7567 94.6245Z" fill="white"/>
<path d="M61.7037 94.6245V96.3867L59.1951 96.2727L60.6567 98.2837L59.0811 99.227L57.8372 96.9672L56.5933 99.227L55.0488 98.2837L56.4793 96.2727L53.9915 96.3867V94.6245L56.4793 94.7593L55.0488 92.7172L56.5933 91.7739L57.8372 94.0337L59.0811 91.7739L60.6567 92.7172L59.1951 94.7593L61.7037 94.6245Z" fill="white"/>
<path d="M74.6506 94.6245V96.3867L72.1421 96.2727L73.6037 98.2837L72.0281 99.227L70.7842 96.9672L69.5402 99.227L67.9957 98.2837L69.4262 96.2727L66.9384 96.3867V94.6245L69.4262 94.7593L67.9957 92.7172L69.5402 91.7739L70.7842 94.0337L72.0281 91.7739L73.6037 92.7172L72.1421 94.7593L74.6506 94.6245Z" fill="white"/>
<path d="M96.564 94.6245V96.3867L94.0555 96.2727L95.5171 98.2837L93.9415 99.227L92.6976 96.9672L91.4537 99.227L89.9092 98.2837L91.3396 96.2727L88.8518 96.3867V94.6245L91.3396 94.7593L89.9092 92.7172L91.4537 91.7739L92.6976 94.0337L93.9415 91.7739L95.5171 92.7172L94.0555 94.7593L96.564 94.6245Z" fill="white"/>
<path d="M109.511 94.6245V96.3867L107.002 96.2727L108.464 98.2837L106.888 99.227L105.645 96.9672L104.401 99.227L102.856 98.2837L104.287 96.2727L101.799 96.3867V94.6245L104.287 94.7593L102.856 92.7172L104.401 91.7739L105.645 94.0337L106.888 91.7739L108.464 92.7172L107.002 94.7593L109.511 94.6245Z" fill="white"/>
<path d="M122.458 94.6245V96.3867L119.949 96.2727L121.411 98.2837L119.835 99.227L118.591 96.9672L117.348 99.227L115.803 98.2837L117.234 96.2727L114.746 96.3867V94.6245L117.234 94.7593L115.803 92.7172L117.348 91.7739L118.591 94.0337L119.835 91.7739L121.411 92.7172L119.949 94.7593L122.458 94.6245Z" fill="white"/>
<path d="M135.395 94.6245V96.3867L132.886 96.2727L134.348 98.2837L132.772 99.227L131.528 96.9672L130.284 99.227L128.74 98.2837L130.17 96.2727L127.682 96.3867V94.6245L130.17 94.7593L128.74 92.7172L130.284 91.7739L131.528 94.0337L132.772 91.7739L134.348 92.7172L132.886 94.7593L135.395 94.6245Z" fill="white"/>
<path d="M157.318 94.6245V96.3867L154.81 96.2727L156.271 98.2837L154.696 99.227L153.452 96.9672L152.208 99.227L150.663 98.2837L152.094 96.2727L149.606 96.3867V94.6245L152.094 94.7593L150.663 92.7172L152.208 91.7739L153.452 94.0337L154.696 91.7739L156.271 92.7172L154.81 94.7593L157.318 94.6245Z" fill="white"/>
<path d="M170.255 94.6245V96.3867L167.746 96.2727L169.208 98.2837L167.632 99.227L166.388 96.9672L165.145 99.227L163.6 98.2837L165.03 96.2727L162.543 96.3867V94.6245L165.03 94.7593L163.6 92.7172L165.145 91.7739L166.388 94.0337L167.632 91.7739L169.208 92.7172L167.746 94.7593L170.255 94.6245Z" fill="white"/>
<path d="M183.202 94.6245V96.3867L180.693 96.2727L182.155 98.2837L180.579 99.227L179.335 96.9672L178.091 99.227L176.547 98.2837L177.977 96.2727L175.49 96.3867V94.6245L177.977 94.7593L176.547 92.7172L178.091 91.7739L179.335 94.0337L180.579 91.7739L182.155 92.7172L180.693 94.7593L183.202 94.6245Z" fill="white"/>
<path d="M196.149 94.6245V96.3867L193.64 96.2727L195.102 98.2837L193.526 99.227L192.282 96.9672L191.038 99.227L189.494 98.2837L190.924 96.2727L188.437 96.3867V94.6245L190.924 94.7593L189.494 92.7172L191.038 91.7739L192.282 94.0337L193.526 91.7739L195.102 92.7172L193.64 94.7593L196.149 94.6245Z" fill="white"/>
<path d="M29.7457 164.242C28.6159 164.242 27.6829 163.869 26.947 163.122C26.211 162.376 25.8482 161.464 25.8482 160.375C25.8482 159.287 26.211 158.375 26.947 157.628C27.6829 156.882 28.6159 156.509 29.7457 156.509C30.4299 156.509 31.0518 156.675 31.622 156.996C32.1921 157.328 32.6378 157.763 32.9591 158.312L32.0988 158.81C31.8811 158.395 31.5701 158.074 31.1451 157.825C30.7201 157.576 30.2537 157.462 29.7457 157.462C28.8854 157.462 28.1909 157.742 27.6415 158.292C27.1024 158.841 26.8226 159.536 26.8226 160.365C26.8226 161.184 27.0921 161.878 27.6415 162.428C28.1805 162.977 28.8854 163.257 29.7457 163.257C30.2537 163.257 30.7201 163.133 31.1451 162.894C31.5701 162.645 31.8811 162.324 32.0988 161.92L32.9591 162.407C32.6482 162.956 32.2024 163.402 31.6323 163.734C31.0622 164.065 30.4299 164.242 29.7457 164.242Z" fill="white"/>
<path d="M38.3701 158.779H39.2927V164.107H38.3701V163.195C37.9037 163.9 37.2402 164.252 36.3592 164.252C35.6128 164.252 34.9805 163.983 34.4518 163.433C33.9232 162.894 33.664 162.231 33.664 161.443C33.664 160.665 33.9232 160.002 34.4518 159.453C34.9805 158.914 35.6128 158.634 36.3592 158.634C37.2402 158.634 37.914 158.986 38.3701 159.691V158.779ZM36.4732 163.34C37.0122 163.34 37.4683 163.153 37.8207 162.79C38.1835 162.428 38.3598 161.972 38.3598 161.433C38.3598 160.894 38.1835 160.437 37.8207 160.075C37.4579 159.712 37.0122 159.525 36.4732 159.525C35.9445 159.525 35.4884 159.712 35.136 160.075C34.7732 160.437 34.597 160.894 34.597 161.433C34.597 161.972 34.7732 162.428 35.136 162.79C35.4988 163.164 35.9445 163.34 36.4732 163.34Z" fill="white"/>
<path d="M41.625 159.67C41.9256 159.007 42.4853 158.675 43.2835 158.675V159.639C42.8274 159.619 42.4439 159.743 42.1122 160.002C41.7908 160.261 41.625 160.686 41.625 161.267V164.086H40.7024V158.758H41.625V159.67Z" fill="white"/>
<path d="M48.311 156.644H49.2335V164.097H48.311V163.184C47.8445 163.889 47.1811 164.242 46.3 164.242C45.5537 164.242 44.9213 163.972 44.3927 163.423C43.864 162.884 43.6049 162.22 43.6049 161.433C43.6049 160.655 43.864 159.992 44.3927 159.442C44.9213 158.903 45.5537 158.623 46.3 158.623C47.1811 158.623 47.8549 158.976 48.311 159.681V156.644ZM46.4244 163.34C46.9634 163.34 47.4195 163.153 47.772 162.79C48.1348 162.428 48.311 161.972 48.311 161.433C48.311 160.894 48.1348 160.437 47.772 160.075C47.4092 159.712 46.9634 159.525 46.4244 159.525C45.8957 159.525 45.4396 159.712 45.0872 160.075C44.7244 160.437 44.5482 160.894 44.5482 161.433C44.5482 161.972 44.7244 162.428 45.0872 162.79C45.4396 163.164 45.8854 163.34 46.4244 163.34Z" fill="white"/>
<path d="M58.0134 156.644H58.9982V164.097H58.0134V160.738H54.3957V164.097H53.4006V156.644H54.3957V159.805H58.0134V156.644Z" fill="white"/>
<path d="M64.9896 163.423C64.4402 163.962 63.7768 164.231 62.9994 164.231C62.222 164.231 61.5585 163.962 61.0091 163.423C60.4701 162.884 60.1902 162.22 60.1902 161.433C60.1902 160.645 60.4598 159.981 61.0091 159.442C61.5482 158.903 62.2116 158.634 62.9994 158.634C63.7872 158.634 64.4402 158.903 64.9896 159.442C65.539 159.981 65.8085 160.645 65.8085 161.433C65.8085 162.22 65.539 162.884 64.9896 163.423ZM62.9994 163.33C63.5281 163.33 63.9841 163.153 64.3366 162.79C64.6994 162.428 64.8756 161.982 64.8756 161.443C64.8756 160.904 64.6994 160.448 64.3366 160.095C63.9738 159.733 63.5281 159.556 62.9994 159.556C62.4707 159.556 62.0354 159.733 61.6726 160.095C61.3098 160.458 61.1335 160.914 61.1335 161.443C61.1335 161.982 61.3098 162.438 61.6726 162.79C62.0354 163.153 62.4707 163.33 62.9994 163.33Z" fill="white"/>
<path d="M66.9073 164.097V156.322H67.8299V164.097H66.9073Z" fill="white"/>
<path d="M73.6555 156.644H74.578V164.097H73.6555V163.184C73.189 163.889 72.5256 164.242 71.6445 164.242C70.8982 164.242 70.2658 163.972 69.7372 163.423C69.2085 162.884 68.9494 162.22 68.9494 161.433C68.9494 160.655 69.2085 159.992 69.7372 159.442C70.2658 158.903 70.8982 158.623 71.6445 158.623C72.5256 158.623 73.1994 158.976 73.6555 159.681V156.644ZM71.7585 163.34C72.2975 163.34 72.7536 163.153 73.1061 162.79C73.4689 162.428 73.6451 161.972 73.6451 161.433C73.6451 160.894 73.4689 160.437 73.1061 160.075C72.7433 159.712 72.2975 159.525 71.7585 159.525C71.2299 159.525 70.7738 159.712 70.4213 160.075C70.0585 160.437 69.8823 160.894 69.8823 161.433C69.8823 161.972 70.0585 162.428 70.4213 162.79C70.7841 163.164 71.2299 163.34 71.7585 163.34Z" fill="white"/>
<path d="M76.6409 161.858C76.7342 162.335 76.9518 162.708 77.2939 162.967C77.636 163.226 78.061 163.361 78.5689 163.361C79.2738 163.361 79.7817 163.102 80.1031 162.583L80.8909 163.029C80.3726 163.827 79.5951 164.231 78.5482 164.231C77.6982 164.231 77.014 163.972 76.4854 163.433C75.9567 162.905 75.6976 162.231 75.6976 161.422C75.6976 160.624 75.9567 159.95 76.475 159.422C76.9933 158.893 77.6671 158.624 78.486 158.624C79.2634 158.624 79.9061 158.903 80.3933 159.453C80.8909 160.002 81.1293 160.666 81.1293 161.443C81.1293 161.578 81.1189 161.713 81.0982 161.858H76.6409V161.858ZM78.486 159.505C77.9884 159.505 77.5738 159.65 77.2524 159.93C76.9311 160.21 76.7238 160.583 76.6512 161.049H80.2067C80.1238 160.541 79.9268 160.158 79.6055 159.899C79.2738 159.639 78.911 159.505 78.486 159.505Z" fill="white"/>
<path d="M83.1195 159.67C83.4201 159.007 83.9799 158.675 84.778 158.675V159.639C84.3219 159.619 83.9384 159.743 83.6067 160.002C83.2853 160.261 83.1195 160.686 83.1195 161.267V164.086H82.1969V158.758H83.1195V159.67Z" fill="white"/>
<path d="M90.9975 158.634C91.6195 158.634 92.1274 158.831 92.5006 159.225C92.8738 159.619 93.0603 160.158 93.0603 160.831V164.097H92.1378V160.883C92.1378 160.448 92.0238 160.116 91.7853 159.878C91.5469 159.639 91.2256 159.525 90.8213 159.525C90.3549 159.525 89.9817 159.67 89.7018 159.961C89.4219 160.251 89.2768 160.686 89.2768 161.287V164.107H88.3542V158.779H89.2768V159.546C89.65 158.934 90.2305 158.634 90.9975 158.634Z" fill="white"/>
<path d="M98.7616 158.779H99.6841V164.107H98.7616V163.195C98.2951 163.9 97.6317 164.252 96.7506 164.252C96.0043 164.252 95.3719 163.983 94.8433 163.433C94.3146 162.894 94.0555 162.231 94.0555 161.443C94.0555 160.665 94.3146 160.002 94.8433 159.453C95.3719 158.914 96.0043 158.634 96.7506 158.634C97.6317 158.634 98.3055 158.986 98.7616 159.691V158.779ZM96.8646 163.34C97.4037 163.34 97.8598 163.153 98.2122 162.79C98.575 162.428 98.7512 161.972 98.7512 161.433C98.7512 160.894 98.575 160.437 98.2122 160.075C97.8494 159.712 97.4037 159.525 96.8646 159.525C96.336 159.525 95.8799 159.712 95.5274 160.075C95.1646 160.437 94.9884 160.894 94.9884 161.433C94.9884 161.972 95.1646 162.428 95.5274 162.79C95.8902 163.164 96.336 163.34 96.8646 163.34Z" fill="white"/>
<path d="M106.847 158.634C107.448 158.634 107.925 158.831 108.298 159.214C108.671 159.598 108.848 160.126 108.848 160.79V164.097H107.925V160.821C107.925 160.406 107.821 160.085 107.604 159.867C107.386 159.639 107.106 159.525 106.754 159.525C106.36 159.525 106.038 159.66 105.8 159.919C105.562 160.178 105.448 160.593 105.448 161.142V164.107H104.525V160.831C104.525 160.417 104.421 160.095 104.224 159.878C104.017 159.65 103.748 159.536 103.395 159.536C103.001 159.536 102.68 159.67 102.421 159.94C102.162 160.209 102.027 160.614 102.027 161.153V164.117H101.104V158.789H102.027V159.505C102.39 158.934 102.918 158.655 103.613 158.655C104.328 158.655 104.846 158.955 105.178 159.556C105.541 158.934 106.101 158.634 106.847 158.634Z" fill="white"/>
<path d="M110.786 161.858C110.879 162.335 111.097 162.708 111.439 162.967C111.781 163.226 112.206 163.361 112.714 163.361C113.419 163.361 113.927 163.102 114.248 162.583L115.036 163.029C114.518 163.827 113.74 164.231 112.693 164.231C111.843 164.231 111.159 163.972 110.63 163.433C110.102 162.905 109.843 162.231 109.843 161.422C109.843 160.624 110.102 159.95 110.62 159.422C111.138 158.893 111.812 158.624 112.631 158.624C113.409 158.624 114.051 158.903 114.538 159.453C115.036 160.002 115.274 160.666 115.274 161.443C115.274 161.578 115.264 161.713 115.243 161.858H110.786V161.858ZM112.631 159.505C112.134 159.505 111.719 159.65 111.398 159.93C111.076 160.21 110.869 160.583 110.796 161.049H114.341C114.259 160.541 114.062 160.158 113.74 159.899C113.429 159.639 113.056 159.505 112.631 159.505Z" fill="white"/>
<path d="M256.022 163.164H259.484V164.097H255.037V156.644H259.432V157.576H256.022V159.867H259.163V160.79H256.022V163.164V163.164Z" fill="white"/>
<path d="M265.196 164.096H264.107L262.615 162.086L261.122 164.096H260.034L262.076 161.36L260.158 158.779H261.257L262.625 160.624L264.004 158.779H265.092L263.174 161.36L265.196 164.096Z" fill="white"/>
<path d="M269 158.634C269.746 158.634 270.379 158.903 270.907 159.453C271.436 159.992 271.695 160.655 271.695 161.443C271.695 162.22 271.436 162.884 270.907 163.433C270.379 163.972 269.746 164.252 269 164.252C268.119 164.252 267.445 163.9 266.989 163.195V166.242H266.066V158.789H266.989V159.701C267.445 158.986 268.119 158.634 269 158.634ZM268.886 163.34C269.415 163.34 269.86 163.153 270.223 162.79C270.586 162.428 270.762 161.972 270.762 161.433C270.762 160.894 270.586 160.437 270.223 160.075C269.86 159.712 269.415 159.525 268.886 159.525C268.347 159.525 267.891 159.712 267.538 160.075C267.176 160.437 266.999 160.894 266.999 161.433C266.999 161.972 267.176 162.428 267.538 162.79C267.891 163.164 268.347 163.34 268.886 163.34Z" fill="white"/>
<path d="M273.271 157.804C273.095 157.804 272.939 157.742 272.825 157.628C272.711 157.514 272.649 157.359 272.649 157.193C272.649 157.027 272.711 156.872 272.825 156.747C272.939 156.623 273.095 156.561 273.271 156.561C273.437 156.561 273.582 156.623 273.706 156.747C273.83 156.872 273.882 157.017 273.882 157.193C273.882 157.369 273.82 157.514 273.706 157.628C273.592 157.742 273.437 157.804 273.271 157.804ZM272.804 164.097V158.768H273.727V164.097H272.804Z" fill="white"/>
<path d="M276.07 159.67C276.37 159.007 276.93 158.675 277.728 158.675V159.639C277.272 159.619 276.888 159.743 276.557 160.002C276.235 160.261 276.07 160.686 276.07 161.267V164.086H275.147V158.758H276.07V159.67Z" fill="white"/>
<path d="M282.465 158.779H283.46L281.284 164.428C281.055 165.029 280.734 165.496 280.33 165.807C279.926 166.118 279.449 166.263 278.92 166.232V165.371C279.573 165.423 280.05 165.061 280.351 164.283L280.454 164.086L278.132 158.779H279.127L280.9 162.863L282.465 158.779Z" fill="white"/>
<path d="M289.898 156.644C290.913 156.644 291.753 157.006 292.427 157.722C293.101 158.437 293.432 159.328 293.432 160.365C293.432 161.412 293.101 162.293 292.427 163.008C291.753 163.734 290.913 164.086 289.898 164.086H286.995V156.633H289.898V156.644ZM289.898 163.164C290.654 163.164 291.276 162.894 291.763 162.366C292.251 161.837 292.489 161.174 292.489 160.375C292.489 159.577 292.251 158.914 291.763 158.385C291.276 157.856 290.665 157.587 289.898 157.587H287.98V163.164H289.898Z" fill="white"/>
<path d="M298.947 158.779H299.87V164.107H298.947V163.195C298.48 163.9 297.817 164.252 296.936 164.252C296.19 164.252 295.557 163.983 295.029 163.433C294.5 162.894 294.241 162.231 294.241 161.443C294.241 160.665 294.5 160.002 295.029 159.453C295.557 158.914 296.19 158.634 296.936 158.634C297.817 158.634 298.491 158.986 298.947 159.691V158.779ZM297.06 163.34C297.599 163.34 298.055 163.153 298.408 162.79C298.771 162.428 298.947 161.972 298.947 161.433C298.947 160.894 298.771 160.437 298.408 160.075C298.045 159.712 297.599 159.525 297.06 159.525C296.532 159.525 296.076 159.712 295.723 160.075C295.36 160.437 295.184 160.894 295.184 161.433C295.184 161.972 295.36 162.428 295.723 162.79C296.076 163.164 296.521 163.34 297.06 163.34Z" fill="white"/>
<path d="M304.182 159.67H302.762V162.552C302.762 162.811 302.813 162.998 302.917 163.112C303.021 163.226 303.176 163.278 303.394 163.278C303.612 163.278 303.871 163.278 304.182 163.267V164.097C303.373 164.2 302.782 164.138 302.409 163.9C302.036 163.661 301.849 163.215 301.849 162.552V159.67H300.792V158.779H301.849V157.566L302.772 157.286V158.779H304.192V159.67H304.182Z" fill="white"/>
<path d="M305.664 161.858C305.757 162.335 305.975 162.708 306.317 162.967C306.659 163.226 307.084 163.361 307.592 163.361C308.297 163.361 308.805 163.102 309.126 162.583L309.914 163.029C309.396 163.827 308.618 164.231 307.571 164.231C306.721 164.231 306.037 163.972 305.509 163.433C304.98 162.905 304.721 162.231 304.721 161.422C304.721 160.624 304.98 159.95 305.498 159.422C306.016 158.893 306.69 158.624 307.509 158.624C308.287 158.624 308.929 158.903 309.416 159.453C309.914 160.002 310.152 160.666 310.152 161.443C310.152 161.578 310.142 161.713 310.121 161.858H305.664V161.858ZM307.499 159.505C307.001 159.505 306.587 159.65 306.265 159.93C305.944 160.21 305.737 160.583 305.664 161.049H309.22C309.137 160.541 308.94 160.158 308.618 159.899C308.297 159.639 307.924 159.505 307.499 159.505Z" fill="white"/>
<path d="M321.545 35.021H318.082C317.004 35.021 316.206 35.3216 315.729 36.3789L309.074 51.4716H313.78C313.78 51.4716 314.558 49.4399 314.724 49.0045H320.466C320.601 49.585 321.005 51.4716 321.005 51.4716H325.173L321.545 35.021ZM316.02 45.6356C316.393 44.6923 317.792 41.0332 317.792 41.0332C317.792 41.0228 318.176 40.0692 318.393 39.4679L318.694 40.8881C318.694 40.8881 319.554 44.8064 319.731 45.646H316.02V45.6356Z" fill="white"/>
<path d="M303.093 39.5818C303.083 40.3592 304.047 40.8672 305.623 41.6239C308.204 42.8056 309.406 44.2153 309.385 46.1019C309.354 49.5123 306.296 51.7202 301.57 51.7202C299.559 51.6995 297.62 51.2952 296.573 50.8391L297.205 47.1489L297.786 47.4184C299.248 48.03 300.212 48.2788 302.005 48.2788C303.29 48.2788 304.669 47.7708 304.679 46.672C304.69 45.9464 304.099 45.4281 302.357 44.6196C300.647 43.8318 298.398 42.5153 298.418 40.1519C298.439 36.9592 301.57 34.7202 305.996 34.7202C307.737 34.7202 309.137 35.083 310.018 35.4147L309.406 38.9806L309.002 38.794C308.173 38.4623 307.105 38.1409 305.643 38.1617C303.912 38.1617 303.093 38.8977 303.093 39.5818Z" fill="white"/>
<path d="M296.573 35.0107L293.764 51.4614H289.286L292.085 35.0107H296.573Z" fill="white"/>
<path d="M280.465 43.4793C278.972 39.675 275.396 36.5134 269.974 35.1969L270.037 34.8652H276.992C277.935 34.8963 278.692 35.1969 278.951 36.2024L280.465 43.4793Z" fill="white"/>
<path d="M290.281 35.021L283.212 51.4509H278.474L274.463 37.7368C277.345 39.582 279.801 42.5155 280.672 44.5576L281.149 46.2576L285.544 35.0314H290.281V35.021Z" fill="white"/>
<path d="M58.9567 143.416H30.9689C29.1756 143.416 27.7036 141.944 27.7036 140.151V119.43C27.7036 117.636 29.1756 116.165 30.9689 116.165H58.9567C60.75 116.165 62.2219 117.636 62.2219 119.43V140.151C62.2219 141.944 60.75 143.416 58.9567 143.416Z" fill="#F6C859"/>
<path d="M40.9823 139.778C40.8372 139.778 40.6921 139.695 40.6299 139.56C40.5262 139.363 40.6092 139.125 40.8061 139.021C41.3866 138.72 42.1744 138.171 42.6305 137.207C43.211 135.984 43.0555 134.657 42.8171 134.543C42.7549 134.512 42.5165 134.636 42.3714 134.709C41.9982 134.906 41.4695 135.165 40.8683 134.957C40.2775 134.75 39.9872 134.221 39.8525 133.973C38.9506 132.314 38.6708 128.002 39.6244 125.856C39.9458 125.141 40.3708 124.726 40.9098 124.602C41.4592 124.478 41.9049 124.706 42.2573 124.892C42.5476 125.048 42.7031 125.11 42.786 125.058C43.1592 124.83 43.1488 123.462 42.6305 122.373C42.1744 121.409 41.3866 120.86 40.8061 120.559C40.6092 120.456 40.5366 120.217 40.6299 120.02C40.7336 119.823 40.972 119.751 41.1689 119.844C41.8531 120.196 42.7964 120.86 43.3458 122.031C43.8951 123.182 44.1543 125.162 43.1903 125.742C42.7031 126.032 42.247 125.794 41.8738 125.607C41.5939 125.462 41.3348 125.328 41.0756 125.39C40.7232 125.473 40.4848 125.877 40.3397 126.198C39.5 128.064 39.7384 132.148 40.5366 133.61C40.6714 133.859 40.8372 134.128 41.1171 134.221C41.3866 134.315 41.6354 134.201 41.9982 134.014C42.3506 133.838 42.7445 133.631 43.1592 133.838C44.0506 134.273 43.9988 136.201 43.3458 137.57C42.7964 138.731 41.8531 139.404 41.1689 139.757C41.1067 139.767 41.0445 139.778 40.9823 139.778Z" fill="#7D662D"/>
<path d="M39.7903 126.582H32.5963C32.3787 126.582 32.1921 126.406 32.1921 126.178C32.1921 125.95 32.3683 125.773 32.5963 125.773H39.7903C40.0079 125.773 40.1945 125.95 40.1945 126.178C40.1945 126.406 40.0079 126.582 39.7903 126.582Z" fill="#7D662D"/>
<path d="M39.7903 133.786H32.5963C32.3787 133.786 32.1921 133.61 32.1921 133.382C32.1921 133.154 32.3683 132.978 32.5963 132.978H39.7903C40.0079 132.978 40.1945 133.154 40.1945 133.382C40.1945 133.61 40.0079 133.786 39.7903 133.786Z" fill="#7D662D"/>
<path d="M49.3787 139.778C49.3165 139.778 49.2543 139.768 49.1921 139.736C48.5079 139.384 47.5647 138.721 47.0153 137.549C46.3622 136.181 46.3104 134.253 47.2018 133.818C47.6165 133.621 48.0104 133.818 48.3628 133.994C48.7256 134.18 48.9744 134.294 49.2439 134.201C49.5445 134.097 49.7208 133.776 49.8244 133.589C50.6226 132.128 50.861 128.054 50.0214 126.178C49.8762 125.857 49.6275 125.452 49.2854 125.369C49.0677 125.318 48.9329 125.1 48.9848 124.893C49.0366 124.675 49.2543 124.55 49.4616 124.592C50.0006 124.716 50.4256 125.141 50.747 125.857C51.7006 128.002 51.4311 132.314 50.5189 133.973C50.3842 134.222 50.0939 134.75 49.5031 134.958C48.9018 135.165 48.3732 134.906 48 134.709C47.8549 134.636 47.6061 134.512 47.5543 134.543C47.3159 134.657 47.1604 135.984 47.7409 137.207C48.197 138.171 48.9848 138.721 49.5653 139.021C49.7622 139.125 49.8348 139.363 49.7415 139.56C49.6689 139.695 49.5238 139.778 49.3787 139.778Z" fill="#7D662D"/>
<path d="M47.7823 124.986C47.6165 124.986 47.461 124.882 47.3988 124.716C46.5384 122.146 48.5494 120.166 49.1921 119.834C49.389 119.73 49.6274 119.813 49.7311 120.01C49.8347 120.207 49.7518 120.446 49.5549 120.549C49.2646 120.694 47.4195 122.28 48.1555 124.467C48.228 124.675 48.114 124.903 47.9067 124.975C47.8652 124.975 47.8238 124.986 47.7823 124.986Z" fill="#7D662D"/>
<path d="M57.775 126.582H50.5811C50.3634 126.582 50.1768 126.406 50.1768 126.178C50.1768 125.95 50.3531 125.773 50.5811 125.773H57.775C57.9927 125.773 58.1793 125.95 58.1793 126.178C58.1793 126.406 58.0031 126.582 57.775 126.582Z" fill="#7D662D"/>
<path d="M57.775 133.786H50.5811C50.3634 133.786 50.1768 133.61 50.1768 133.382C50.1768 133.154 50.3531 132.978 50.5811 132.978H57.775C57.9927 132.978 58.1793 133.154 58.1793 133.382C58.1793 133.61 58.0031 133.786 57.775 133.786Z" fill="#7D662D"/>
<defs>
<linearGradient id="paint0_linear_87_664" x1="38.5902" y1="248.411" x2="312.03" y2="-25.0289" gradientUnits="userSpaceOnUse">
<stop stop-color="#1B1464"/>
<stop offset="1" stop-color="#83EFFF"/>
</linearGradient>
<linearGradient id="paint1_linear_87_664" x1="233.078" y1="113.423" x2="341.78" y2="4.72143" gradientUnits="userSpaceOnUse">
<stop stop-color="#83EFFF"/>
<stop offset="1" stop-color="#1B1464"/>
</linearGradient>
<linearGradient id="paint2_linear_87_664" x1="60.2615" y1="270.078" x2="305.725" y2="24.6142" gradientUnits="userSpaceOnUse">
<stop stop-color="#1B1464"/>
<stop offset="1" stop-color="#83EFFF"/>
</linearGradient>
<linearGradient id="paint3_linear_87_664" x1="-11.7703" y1="91.1682" x2="93.2999" y2="-13.9021" gradientUnits="userSpaceOnUse">
<stop stop-color="#1B1464"/>
<stop offset="1" stop-color="#83EFFF"/>
</linearGradient>
<linearGradient id="paint4_linear_87_664" x1="149.709" y1="259.234" x2="223.298" y2="185.644" gradientUnits="userSpaceOnUse">
<stop stop-color="#02B6FD"/>
<stop offset="1" stop-color="#83EFFF"/>
</linearGradient>
<linearGradient id="paint5_linear_87_664" x1="65.0721" y1="274.892" x2="245.592" y2="94.3727" gradientUnits="userSpaceOnUse">
<stop stop-color="#1B1464"/>
<stop offset="1" stop-color="#83EFFF"/>
</linearGradient>
<linearGradient id="paint6_linear_87_664" x1="38.5902" y1="248.411" x2="312.03" y2="-25.0289" gradientUnits="userSpaceOnUse">
<stop stop-color="#02CAFD"/>
<stop offset="1" stop-color="#83F8A6"/>
</linearGradient>
</defs>
</svg>
