<svg width="352" height="223" viewBox="0 0 352 223" fill="none" xmlns="http://www.w3.org/2000/svg">
<path d="M351.104 21.3009L351.198 201.332C351.208 212.907 341.81 222.305 330.225 222.315L21.5184 222.483C19.5927 222.483 17.7193 222.221 15.9506 221.729C7.06524 219.301 0.534658 211.18 0.524193 201.52L0.430001 21.4893C0.419536 9.91424 9.80725 0.505586 21.4032 0.505586L330.12 0.338135C334.254 0.338135 338.137 1.54169 341.381 3.63482C347.231 7.33968 351.104 13.8598 351.104 21.3009Z" fill="url(#paint0_linear_87_661)"/>
<path opacity="0.53" d="M243.569 222.368L21.5184 222.483C19.5927 222.483 17.7193 222.221 15.9506 221.729L114.454 123.121C117.395 120.17 120.984 118.265 124.762 117.46C131.523 115.932 138.922 117.815 144.197 123.111L243.569 222.368Z" fill="url(#paint1_linear_87_661)"/>
<path opacity="0.53" d="M96.662 80.6937L0.513725 176.947L0.430001 21.4997C0.419536 9.91423 9.81772 0.516051 21.3928 0.505585L46.1441 0.495117L96.6515 50.9502C104.878 59.1448 104.888 72.4781 96.662 80.6937Z" fill="url(#paint2_linear_87_661)"/>
<path opacity="0.53" d="M182.219 0.411377L152.025 30.6467C143.82 38.8728 130.487 38.8832 122.282 30.6677L92.0466 0.463705L182.219 0.411377Z" fill="url(#paint3_linear_87_661)"/>
<path opacity="0.53" d="M351.104 21.3009L351.187 182.085C345.546 182.305 339.822 180.275 335.51 175.952L207.776 48.3547C199.55 40.1496 199.54 26.8058 207.755 18.5903L225.945 0.379964L330.11 0.327637C334.244 0.327637 338.126 1.53119 341.371 3.62433C347.231 7.33965 351.104 13.8598 351.104 21.3009Z" fill="url(#paint4_linear_87_661)"/>
<path d="M37.3634 37.0516H30.4456V42.117H37.0704V44.0845H30.4351V50.7198H28.3629L28.3524 35.0945H37.3529L37.3634 37.0516Z" fill="white"/>
<path d="M40.6601 37.5227C40.2833 37.5227 39.9798 37.3971 39.7182 37.1459C39.467 36.8948 39.3414 36.5913 39.3414 36.2354C39.3414 35.8796 39.467 35.5656 39.7182 35.304C39.9694 35.0423 40.2833 34.9167 40.6601 34.9167C41.0159 34.9167 41.3194 35.0423 41.5811 35.304C41.8323 35.5656 41.9579 35.8691 41.9579 36.2354C41.9579 36.5913 41.8323 36.8948 41.5811 37.1459C41.3194 37.3971 41.0159 37.5227 40.6601 37.5227ZM39.6868 50.7199L39.6763 39.553H41.623L41.6334 50.7199H39.6868Z" fill="white"/>
<path d="M50.1525 39.26C51.4607 39.26 52.5072 39.6682 53.3026 40.495C54.0876 41.3217 54.4853 42.4416 54.4853 43.8544V50.7095H52.5386V43.9696C52.5386 43.0591 52.2875 42.3579 51.7956 41.8555C51.3037 41.3531 50.6234 41.1124 49.7652 41.1124C48.8024 41.1124 48.0175 41.4159 47.4209 42.0229C46.8244 42.63 46.5313 43.5509 46.5313 44.8068V50.7199H44.5847L44.5742 39.553H46.5209V41.1648C47.3267 39.888 48.5303 39.26 50.1525 39.26Z" fill="white"/>
<path d="M66.4266 39.5426H68.3732L68.3837 50.7095H66.4371V48.7943C65.4742 50.2699 64.0614 51.0025 62.2194 51.013C60.66 51.013 59.3204 50.4479 58.2215 49.3071C57.1226 48.1663 56.5679 46.7849 56.5679 45.1418C56.5679 43.4986 57.1121 42.1172 58.2215 40.9764C59.3204 39.8357 60.6496 39.2705 62.2194 39.2705C64.0614 39.2705 65.4742 40.0031 66.4371 41.4788L66.4266 39.5426ZM62.4601 49.1187C63.5904 49.1187 64.5323 48.7315 65.2963 47.9675C66.0498 47.2035 66.4371 46.2511 66.4371 45.1208C66.4371 43.9905 66.0603 43.0381 65.2963 42.2742C64.5323 41.5102 63.5904 41.1229 62.4601 41.1229C61.3403 41.1229 60.4088 41.5102 59.6448 42.2742C58.8809 43.0381 58.5041 43.9905 58.5041 45.1208C58.5041 46.2511 58.8809 47.2035 59.6448 47.9675C60.4088 48.7315 61.3403 49.1187 62.4601 49.1187Z" fill="white"/>
<path d="M76.5678 50.9815C74.8829 50.9815 73.4909 50.4164 72.3711 49.2965C71.2513 48.1767 70.6966 46.7743 70.6966 45.1103C70.6966 43.4462 71.2513 42.0438 72.3711 40.924C73.4909 39.8042 74.8829 39.239 76.5678 39.239C77.6667 39.239 78.661 39.5007 79.5401 40.0344C80.4192 40.5577 81.0681 41.2694 81.5077 42.1694L79.875 43.1113C79.5924 42.5148 79.1529 42.0438 78.5668 41.688C77.9807 41.3321 77.3109 41.1542 76.5678 41.1542C75.448 41.1542 74.5166 41.531 73.763 42.295C73.0095 43.059 72.6327 44.0009 72.6327 45.1312C72.6327 46.251 73.0095 47.1825 73.763 47.9465C74.5166 48.7105 75.448 49.0872 76.5678 49.0872C77.3109 49.0872 77.9807 48.9093 78.5773 48.5639C79.1738 48.2186 79.6238 47.7371 79.9378 47.1406L81.5914 48.1034C81.1204 48.9826 80.4297 49.6838 79.5401 50.2175C78.6505 50.7513 77.6563 50.9815 76.5678 50.9815Z" fill="white"/>
<path d="M84.4904 37.5017C84.1136 37.5017 83.8101 37.3761 83.5485 37.1249C83.2973 36.8738 83.1717 36.5703 83.1717 36.2144C83.1717 35.8586 83.2973 35.5446 83.5485 35.283C83.7996 35.0213 84.1136 34.8958 84.4904 34.8958C84.8462 34.8958 85.1497 35.0213 85.4114 35.283C85.673 35.5446 85.7881 35.8481 85.7881 36.2144C85.7881 36.5703 85.6625 36.8738 85.4114 37.1249C85.1497 37.3761 84.8462 37.5017 84.4904 37.5017ZM83.5066 50.6885L83.4961 39.5216H85.4427L85.4532 50.6885H83.5066Z" fill="white"/>
<path d="M36.0447 94.3618V96.1305L33.5225 96.0258L34.9877 98.0457L33.4074 98.9876L32.162 96.7166L30.9166 98.9876L29.3676 98.0457L30.8014 96.0258L28.3106 96.141V94.3723L30.8014 94.5083L29.3572 92.4571L30.9061 91.5151L32.1515 93.7862L33.3969 91.5151L34.9773 92.4571L33.5121 94.5083L36.0447 94.3618Z" fill="white"/>
<path d="M49.0117 94.3513V96.12L46.4895 96.0154L47.9547 98.0352L46.3744 98.9771L45.129 96.7061L43.8835 98.9771L42.3346 98.0352L43.7684 96.0154L41.2776 96.1305V94.3618L43.7684 94.4978L42.3242 92.4466L43.8731 91.5046L45.1185 93.7757L46.3639 91.5046L47.9442 92.4466L46.479 94.4978L49.0117 94.3513Z" fill="white"/>
<path d="M61.9892 94.3513V96.12L59.4774 96.0154L60.9426 98.0352L59.3623 98.9771L58.1169 96.7061L56.8715 98.9771L55.3225 98.0352L56.7563 96.0154L54.2655 96.1305V94.3618L56.7563 94.4978L55.3121 92.4466L56.861 91.5046L58.1064 93.7757L59.3518 91.5046L60.9321 92.4466L59.4669 94.4978L61.9892 94.3513Z" fill="white"/>
<path d="M74.9562 94.3408V96.1095L72.4339 96.0049L73.8991 98.0247L72.3188 98.9666L71.0734 96.6956L69.828 98.9666L68.2791 98.0247L69.7128 96.0049L67.222 96.12V94.3513L69.7128 94.4873L68.2686 92.4361L69.8175 91.4941L71.0629 93.7652L72.3083 91.4941L73.8887 92.4361L72.4235 94.4873L74.9562 94.3408Z" fill="white"/>
<path d="M96.9237 94.3303V96.099L94.4014 95.9944L95.8666 98.0142L94.2863 98.9561L93.0409 96.6851L91.7955 98.9561L90.2466 98.0142L91.6804 95.9944L89.1895 96.1095V94.3408L91.6804 94.4768L90.2361 92.4256L91.785 91.4836L93.0304 93.7547L94.2758 91.4836L95.8562 92.4256L94.391 94.4768L96.9237 94.3303Z" fill="white"/>
<path d="M109.901 94.3198V96.0885L107.379 95.9839L108.844 98.0037L107.264 98.9456L106.018 96.6746L104.773 98.9456L103.224 98.0037L104.658 95.9839L102.167 96.099V94.3303L104.658 94.4663L103.214 92.4151L104.762 91.4731L106.008 93.7442L107.253 91.4731L108.834 92.4151L107.368 94.4663L109.901 94.3198Z" fill="white"/>
<path d="M122.868 94.3198V96.0885L120.346 95.9839L121.811 98.0037L120.231 98.9456L118.985 96.6746L117.74 98.9456L116.191 98.0037L117.625 95.9839L115.134 96.099V94.3303L117.625 94.4663L116.181 92.4151L117.729 91.4731L118.975 93.7442L120.22 91.4731L121.801 92.4151L120.335 94.4663L122.868 94.3198Z" fill="white"/>
<path d="M135.846 94.3096V96.0783L133.334 95.9736L134.799 97.9935L133.219 98.9354L131.973 96.6643L130.728 98.9354L129.179 97.9935L130.613 95.9736L128.122 96.0887V94.32L130.613 94.4561L129.168 92.4048L130.717 91.4629L131.963 93.734L133.208 91.4629L134.788 92.4048L133.323 94.4561L135.846 94.3096Z" fill="white"/>
<path d="M157.803 94.2991V96.0678L155.28 95.9631L156.746 97.983L155.165 98.9249L153.92 96.6538L152.674 98.9249L151.125 97.983L152.559 95.9631L150.068 96.0782V94.3095L152.559 94.4456L151.115 92.3943L152.664 91.4524L153.909 93.7234L155.155 91.4524L156.735 92.3943L155.27 94.4456L157.803 94.2991Z" fill="white"/>
<path d="M170.78 94.2886V96.0573L168.258 95.9526L169.723 97.9725L168.143 98.9144L166.897 96.6434L165.652 98.9144L164.103 97.9725L165.537 95.9526L163.046 96.0678V94.299L165.537 94.4351L164.092 92.3838L165.641 91.4419L166.887 93.713L168.132 91.4419L169.712 92.3838L168.247 94.4351L170.78 94.2886Z" fill="white"/>
<path d="M183.757 94.2781V96.0468L181.235 95.9421L182.7 97.962L181.12 98.9039L179.875 96.6328L178.629 98.9039L177.08 97.962L178.514 95.9421L176.023 96.0572V94.2885L178.514 94.4246L177.07 92.3733L178.619 91.4314L179.864 93.7024L181.11 91.4314L182.69 92.3733L181.225 94.4246L183.757 94.2781Z" fill="white"/>
<path d="M196.724 94.2781V96.0468L194.213 95.9421L195.678 97.962L194.098 98.9039L192.852 96.6328L191.607 98.9039L190.058 97.962L191.492 95.9421L189.001 96.0572V94.2885L191.492 94.4246L190.047 92.3733L191.596 91.4314L192.842 93.7024L194.087 91.4314L195.667 92.3733L194.202 94.4246L196.724 94.2781Z" fill="white"/>
<path d="M29.9956 164.136C28.8653 164.136 27.9338 163.76 27.1908 163.017C26.4477 162.274 26.0814 161.353 26.0814 160.264C26.0814 159.176 26.4477 158.255 27.1803 157.512C27.9129 156.769 28.8548 156.392 29.9851 156.392C30.6654 156.392 31.2933 156.559 31.8689 156.884C32.4445 157.208 32.8841 157.648 33.2085 158.202L32.3399 158.705C32.1306 158.297 31.8061 157.962 31.3875 157.721C30.9689 157.48 30.4979 157.355 29.9851 157.355C29.1269 157.355 28.4257 157.637 27.8815 158.192C27.3373 158.747 27.0652 159.437 27.0652 160.275C27.0652 161.101 27.3373 161.792 27.8815 162.347C28.4257 162.901 29.1269 163.184 29.9851 163.174C30.4979 163.174 30.9689 163.048 31.3875 162.807C31.8166 162.567 32.1306 162.242 32.3399 161.834L33.2085 162.326C32.8946 162.881 32.455 163.331 31.8794 163.655C31.3038 163.969 30.6758 164.136 29.9956 164.136Z" fill="white"/>
<path d="M38.6402 158.653H39.5717V163.99H38.6402V163.069C38.1797 163.77 37.5099 164.126 36.6203 164.126C35.8773 164.126 35.2389 163.854 34.7051 163.31C34.1818 162.766 33.9202 162.106 33.9202 161.321C33.9202 160.536 34.1818 159.877 34.7051 159.333C35.2284 158.789 35.8668 158.517 36.6203 158.517C37.4995 158.517 38.1693 158.862 38.6402 159.574V158.653ZM36.7355 163.226C37.2797 163.226 37.7297 163.048 38.0855 162.671C38.4518 162.305 38.6298 161.855 38.6298 161.311C38.6298 160.767 38.4518 160.317 38.0855 159.95C37.7192 159.584 37.2692 159.406 36.725 159.406C36.1913 159.406 35.7412 159.595 35.3854 159.961C35.0191 160.327 34.8412 160.777 34.8412 161.321C34.8412 161.866 35.0191 162.316 35.3854 162.682C35.7622 163.048 36.2017 163.237 36.7355 163.226Z" fill="white"/>
<path d="M41.9055 159.542C42.209 158.883 42.7637 158.548 43.5696 158.548V159.521C43.1195 159.5 42.7218 159.615 42.3974 159.887C42.073 160.149 41.9055 160.578 41.9055 161.154V163.98H40.9741V158.642H41.9055V159.542Z" fill="white"/>
<path d="M48.6036 156.507H49.535V163.98H48.6036V163.059C48.1431 163.76 47.4733 164.116 46.5837 164.116C45.8406 164.116 45.2022 163.844 44.6685 163.299C44.1452 162.755 43.8835 162.096 43.8835 161.311C43.8835 160.526 44.1452 159.867 44.6685 159.322C45.1918 158.778 45.8302 158.506 46.5837 158.506C47.4628 158.506 48.1431 158.851 48.6036 159.563V156.507ZM46.7093 163.226C47.2535 163.226 47.7035 163.048 48.0594 162.671C48.4257 162.305 48.6036 161.855 48.6036 161.311C48.6036 160.767 48.4257 160.317 48.0594 159.95C47.6931 159.584 47.243 159.406 46.7093 159.406C46.1755 159.406 45.7255 159.594 45.3697 159.961C45.0034 160.327 44.8255 160.777 44.8255 161.321C44.8255 161.866 45.0034 162.316 45.3697 162.682C45.7255 163.048 46.1755 163.226 46.7093 163.226Z" fill="white"/>
<path d="M58.3262 156.507H59.31V163.98H58.3262V160.62H54.6946V163.98H53.7003V156.507H54.6946V159.678H58.3262V156.507Z" fill="white"/>
<path d="M65.3172 163.299C64.773 163.844 64.1032 164.116 63.3183 164.116C62.5334 164.116 61.874 163.844 61.3298 163.31C60.7856 162.766 60.5135 162.106 60.5135 161.311C60.5135 160.526 60.7856 159.856 61.3298 159.312C61.874 158.768 62.5334 158.506 63.3183 158.496C64.1032 158.496 64.7626 158.768 65.3172 159.301C65.8719 159.835 66.144 160.505 66.144 161.3C66.1336 162.096 65.8615 162.755 65.3172 163.299ZM63.3183 163.205C63.852 163.205 64.3021 163.027 64.6579 162.661C65.0242 162.295 65.2021 161.845 65.2021 161.311C65.2021 160.767 65.0242 160.317 64.6579 159.961C64.2916 159.594 63.8416 159.417 63.3078 159.417C62.7845 159.417 62.3345 159.594 61.9682 159.961C61.6019 160.327 61.424 160.777 61.424 161.311C61.424 161.855 61.6019 162.305 61.9682 162.661C62.3554 163.027 62.795 163.205 63.3183 163.205Z" fill="white"/>
<path d="M67.243 163.969V156.183H68.1744V163.969H67.243Z" fill="white"/>
<path d="M74.0038 156.497H74.9352V163.969H74.0038V163.048C73.5433 163.749 72.8735 164.105 71.9839 164.105C71.2408 164.105 70.6024 163.833 70.0687 163.289C69.5454 162.745 69.2838 162.085 69.2733 161.3C69.2733 160.515 69.5349 159.856 70.0582 159.312C70.5815 158.768 71.2199 158.496 71.963 158.496C72.8421 158.496 73.5224 158.851 73.9828 159.553L74.0038 156.497ZM72.1095 163.216C72.6537 163.216 73.1037 163.038 73.4596 162.661C73.8259 162.295 74.0038 161.845 74.0038 161.3C74.0038 160.756 73.8259 160.306 73.4596 159.94C73.0933 159.574 72.6432 159.396 72.1095 159.396C71.5757 159.396 71.1257 159.584 70.7594 159.95C70.3931 160.317 70.2152 160.767 70.2152 161.311C70.2152 161.855 70.3931 162.305 70.7594 162.671C71.1257 163.027 71.5757 163.216 72.1095 163.216Z" fill="white"/>
<path d="M76.997 161.729C77.0912 162.211 77.3109 162.577 77.6563 162.839C78.0017 163.1 78.4308 163.237 78.9331 163.237C79.6343 163.237 80.1471 162.975 80.4716 162.452L81.2565 162.902C80.7332 163.707 79.9588 164.105 78.9122 164.105C78.0645 164.105 77.3737 163.844 76.8504 163.31C76.3167 162.776 76.0551 162.106 76.0551 161.3C76.0551 160.495 76.3167 159.825 76.8295 159.291C77.3528 158.757 78.0226 158.485 78.8494 158.485C79.6343 158.485 80.2727 158.757 80.7646 159.312C81.2565 159.867 81.5077 160.526 81.5077 161.3C81.5077 161.436 81.4972 161.572 81.4763 161.719L76.997 161.729ZM78.8389 159.364C78.3366 159.364 77.9284 159.5 77.604 159.783C77.2795 160.065 77.0702 160.442 76.997 160.913H80.5658C80.482 160.411 80.2832 160.024 79.9692 159.762C79.6343 159.5 79.2575 159.364 78.8389 159.364Z" fill="white"/>
<path d="M83.4857 159.521C83.7892 158.862 84.3439 158.527 85.1497 158.527V159.5C84.6893 159.479 84.302 159.605 83.9776 159.866C83.6532 160.128 83.4857 160.557 83.4857 161.133V163.959H82.5543V158.621H83.4857V159.521Z" fill="white"/>
<path d="M91.3873 158.485C92.0152 158.485 92.5176 158.684 92.8944 159.071C93.2711 159.469 93.4595 160.003 93.4595 160.683V163.959H92.5281V160.735C92.5281 160.296 92.4129 159.961 92.1722 159.731C91.942 159.49 91.6071 159.375 91.1989 159.375C90.7384 159.375 90.3617 159.521 90.0791 159.804C89.7965 160.097 89.65 160.536 89.65 161.133V163.959H88.7185V158.621H89.65V159.385C90.0372 158.789 90.6128 158.485 91.3873 158.485Z" fill="white"/>
<path d="M99.1633 158.621H100.095V163.959H99.1633V163.038C98.7028 163.739 98.033 164.095 97.1434 164.095C96.4004 164.095 95.7619 163.823 95.2282 163.278C94.7049 162.734 94.4433 162.075 94.4328 161.29C94.4328 160.505 94.6944 159.846 95.2177 159.301C95.741 158.757 96.3794 158.485 97.1225 158.485C98.0016 158.485 98.6819 158.83 99.1424 159.542V158.621H99.1633ZM97.269 163.195C97.8132 163.195 98.2632 163.006 98.6191 162.64C98.9854 162.274 99.1633 161.824 99.1633 161.279C99.1633 160.735 98.9854 160.285 98.6191 159.919C98.2528 159.553 97.8028 159.375 97.269 159.375C96.7353 159.375 96.2852 159.553 95.9189 159.929C95.5526 160.296 95.3747 160.746 95.3747 161.29C95.3747 161.834 95.5526 162.284 95.9189 162.65C96.2852 163.017 96.7353 163.195 97.269 163.195Z" fill="white"/>
<path d="M107.264 158.475C107.86 158.475 108.342 158.663 108.718 159.061C109.085 159.448 109.273 159.971 109.273 160.63V163.948H108.342V160.662C108.342 160.254 108.237 159.929 108.017 159.699C107.808 159.469 107.515 159.354 107.159 159.354C106.761 159.354 106.447 159.49 106.207 159.751C105.966 160.013 105.851 160.421 105.851 160.976V163.938H104.919V160.651C104.919 160.243 104.815 159.919 104.616 159.689C104.417 159.458 104.134 159.343 103.789 159.343C103.391 159.343 103.067 159.479 102.816 159.751C102.554 160.023 102.429 160.432 102.429 160.965V163.927H101.497V158.59H102.429V159.301C102.795 158.736 103.318 158.443 104.019 158.443C104.741 158.443 105.265 158.747 105.589 159.354C105.956 158.778 106.521 158.475 107.264 158.475Z" fill="white"/>
<path d="M111.209 161.708C111.304 162.19 111.523 162.556 111.869 162.818C112.214 163.079 112.643 163.216 113.145 163.216C113.847 163.216 114.359 162.954 114.684 162.431L115.469 162.881C114.946 163.686 114.171 164.084 113.125 164.084C112.277 164.084 111.586 163.823 111.063 163.289C110.529 162.755 110.267 162.085 110.267 161.279C110.267 160.474 110.529 159.804 111.042 159.27C111.565 158.736 112.235 158.475 113.062 158.464C113.847 158.464 114.485 158.736 114.977 159.291C115.469 159.846 115.72 160.505 115.72 161.279C115.72 161.415 115.71 161.551 115.689 161.698L111.209 161.708ZM113.062 159.343C112.559 159.343 112.151 159.479 111.827 159.762C111.502 160.044 111.293 160.421 111.22 160.892H114.789C114.705 160.39 114.506 160.003 114.192 159.741C113.857 159.479 113.48 159.343 113.062 159.343Z" fill="white"/>
<path d="M256.766 162.933H260.23V163.875H255.772V156.402H260.178V157.344H256.766V159.636H259.916V160.568H256.766V162.933Z" fill="white"/>
<path d="M265.965 163.864H264.877L263.38 161.844L261.884 163.864H260.795L262.836 161.112L260.91 158.527H262.009L263.38 160.379L264.762 158.527H265.85L263.925 161.112L265.965 163.864Z" fill="white"/>
<path d="M269.775 158.391C270.518 158.391 271.156 158.663 271.69 159.207C272.213 159.751 272.486 160.411 272.486 161.196C272.486 161.981 272.224 162.64 271.701 163.184C271.177 163.728 270.539 164 269.796 164C268.917 164 268.236 163.645 267.776 162.943V165.999H266.844V158.527H267.776V159.448C268.216 158.736 268.896 158.391 269.775 158.391ZM269.66 163.1C270.194 163.1 270.644 162.923 271.01 162.546C271.376 162.179 271.554 161.729 271.554 161.185C271.554 160.641 271.376 160.191 271.01 159.825C270.644 159.458 270.194 159.28 269.66 159.28C269.116 159.28 268.666 159.469 268.31 159.835C267.943 160.201 267.765 160.651 267.765 161.196C267.765 161.74 267.943 162.19 268.31 162.556C268.666 162.923 269.116 163.1 269.66 163.1Z" fill="white"/>
<path d="M274.055 157.554C273.877 157.554 273.731 157.491 273.605 157.376C273.48 157.25 273.427 157.114 273.427 156.936C273.427 156.758 273.49 156.622 273.605 156.496C273.731 156.371 273.877 156.308 274.055 156.308C274.223 156.308 274.369 156.371 274.495 156.496C274.621 156.622 274.673 156.769 274.673 156.936C274.673 157.103 274.61 157.25 274.495 157.376C274.369 157.491 274.223 157.554 274.055 157.554ZM273.584 163.854V158.516H274.516V163.854H273.584Z" fill="white"/>
<path d="M276.86 159.416C277.164 158.757 277.718 158.422 278.524 158.422V159.395C278.074 159.375 277.677 159.5 277.352 159.762C277.028 160.023 276.86 160.452 276.86 161.028V163.854H275.929V158.516H276.86V159.416V159.416Z" fill="white"/>
<path d="M283.276 158.516H284.27L282.093 164.189C281.863 164.796 281.549 165.256 281.141 165.57C280.732 165.884 280.262 166.031 279.728 165.989V165.12C280.377 165.173 280.858 164.806 281.162 164.032L281.266 163.833L278.932 158.516H279.927L281.706 162.608L283.276 158.516Z" fill="white"/>
<path d="M290.717 156.381C291.732 156.381 292.58 156.737 293.249 157.459C293.919 158.181 294.254 159.061 294.254 160.107C294.254 161.154 293.919 162.033 293.249 162.755C292.58 163.477 291.732 163.843 290.717 163.843H287.807V156.371L290.717 156.381ZM290.727 162.912C291.491 162.912 292.109 162.64 292.59 162.106C293.072 161.572 293.312 160.902 293.312 160.107C293.312 159.312 293.072 158.642 292.59 158.108C292.109 157.574 291.481 157.313 290.727 157.313H288.802V162.901L290.727 162.912Z" fill="white"/>
<path d="M299.79 158.506H300.722V163.843H299.79V162.922C299.33 163.624 298.66 163.979 297.771 163.979C297.028 163.979 296.389 163.707 295.855 163.163C295.332 162.619 295.07 161.96 295.07 161.175C295.07 160.39 295.332 159.73 295.855 159.186C296.379 158.642 297.017 158.37 297.771 158.37C298.65 158.37 299.32 158.715 299.79 159.427V158.506ZM297.896 163.09C298.44 163.09 298.89 162.902 299.246 162.535C299.613 162.169 299.79 161.719 299.79 161.175C299.79 160.63 299.613 160.18 299.246 159.814C298.88 159.448 298.43 159.27 297.886 159.27C297.352 159.27 296.902 159.448 296.546 159.825C296.18 160.191 296.002 160.641 296.002 161.185C296.002 161.729 296.18 162.179 296.546 162.546C296.912 162.912 297.362 163.09 297.896 163.09Z" fill="white"/>
<path d="M305.034 159.406H303.61V162.294C303.61 162.556 303.663 162.745 303.767 162.86C303.872 162.975 304.029 163.027 304.238 163.027C304.448 163.027 304.72 163.027 305.023 163.017V163.843C304.217 163.948 303.621 163.885 303.244 163.645C302.867 163.404 302.679 162.954 302.679 162.294V159.406H301.622V158.506H302.679V157.292L303.61 157.02V158.516H305.034V159.406V159.406Z" fill="white"/>
<path d="M306.52 161.604C306.614 162.085 306.834 162.451 307.179 162.713C307.525 162.975 307.954 163.111 308.456 163.111C309.157 163.111 309.67 162.849 309.995 162.326L310.779 162.776C310.256 163.582 309.482 163.979 308.435 163.979C307.587 163.979 306.897 163.718 306.373 163.184C305.84 162.65 305.578 161.981 305.578 161.175C305.578 160.369 305.84 159.699 306.352 159.165C306.876 158.631 307.546 158.37 308.372 158.359C309.157 158.359 309.796 158.631 310.288 159.186C310.779 159.741 311.031 160.4 311.031 161.175C311.031 161.311 311.02 161.447 310.999 161.593L306.52 161.604ZM308.362 159.239C307.86 159.239 307.451 159.375 307.127 159.657C306.802 159.94 306.593 160.316 306.52 160.787H310.089C310.005 160.285 309.806 159.898 309.492 159.636C309.157 159.375 308.791 159.239 308.362 159.239Z" fill="white"/>
<path d="M295.029 60.0862C302.572 60.0862 308.686 53.9714 308.686 46.4285C308.686 38.8855 302.572 32.7708 295.029 32.7708C287.486 32.7708 281.371 38.8855 281.371 46.4285C281.371 53.9714 287.486 60.0862 295.029 60.0862Z" fill="white"/>
<path d="M313.249 60.0762C305.714 60.0762 299.592 53.9538 299.581 46.4289C299.571 38.9041 305.704 32.7712 313.228 32.7607C320.764 32.7607 326.886 38.8832 326.897 46.408C326.907 53.9328 320.785 60.0657 313.249 60.0762ZM313.239 37.3133C308.215 37.3133 304.134 41.4054 304.134 46.4185C304.134 51.4315 308.226 55.5236 313.239 55.5236C318.262 55.5236 322.344 51.4315 322.344 46.4185C322.344 41.3845 318.262 37.3028 313.239 37.3133Z" fill="white"/>
<defs>
<linearGradient id="paint0_linear_87_661" x1="38.8743" y1="248.503" x2="312.757" y2="-25.6793" gradientUnits="userSpaceOnUse">
<stop stop-color="#00252E"/>
<stop offset="1" stop-color="#83F8A6"/>
</linearGradient>
<linearGradient id="paint1_linear_87_661" x1="15.9255" y1="169.748" x2="243.539" y2="169.623" gradientUnits="userSpaceOnUse">
<stop stop-color="#02CAFD"/>
<stop offset="1" stop-color="#83F8A6"/>
</linearGradient>
<linearGradient id="paint2_linear_87_661" x1="-40.5418" y1="135.935" x2="70.4754" y2="24.7967" gradientUnits="userSpaceOnUse">
<stop stop-color="#02CAFD"/>
<stop offset="1" stop-color="#83F8A6"/>
</linearGradient>
<linearGradient id="paint3_linear_87_661" x1="114.6" y1="22.996" x2="159.665" y2="-22.1183" gradientUnits="userSpaceOnUse">
<stop stop-color="#02CAFD"/>
<stop offset="1" stop-color="#83F8A6"/>
</linearGradient>
<linearGradient id="paint4_linear_87_661" x1="546.502" y1="213.161" x2="155.214" y2="-18.1457" gradientUnits="userSpaceOnUse">
<stop stop-color="#02CAFD"/>
<stop offset="1" stop-color="#83F8A6"/>
</linearGradient>
</defs>
</svg>
