<svg width="354" height="225" viewBox="0 0 354 225" fill="none" xmlns="http://www.w3.org/2000/svg">
<path d="M5.76614 88.6233C5.31092 97.2583 4.8557 106.133 0.065033 114.246V111.559C3.64178 104.382 4.0428 96.6058 4.45467 88.558C5.09415 76.3124 5.75531 63.6426 18.7291 53.2349C21.7314 50.8206 24.712 49.0914 27.6601 47.8842L27.6493 35.8235C27.6493 33.5288 29.5136 31.6691 31.7897 31.6691L58.431 31.6473C60.7071 31.6473 62.5713 33.4962 62.5713 35.7908L62.5822 48.1017C72.5862 49.5264 82.2976 49.4612 92.6376 41.1741C105.156 31.1471 105.763 19.3147 106.414 6.81893C106.533 4.61124 106.652 2.38179 106.825 0.152344H108.148C107.953 2.36004 107.833 4.62211 107.714 6.88418C107.096 19.1407 106.435 31.8105 93.4614 42.2073C82.8395 50.7227 72.5754 50.8206 62.593 49.4285V55.149C62.593 57.4328 60.7288 59.3033 58.4635 59.3033L31.8222 59.3251C29.5352 59.3251 27.671 57.4545 27.671 55.1816V49.2654C24.9938 50.4399 22.295 52.0604 19.5529 54.2681C7.02343 64.2951 6.41646 76.1057 5.76614 88.6233Z" fill="url(#paint0_linear_87_659)"/>
<path d="M3.94527 178.801C2.65547 178.573 1.38736 178.356 0.108398 178.16V176.833C1.46323 177.04 2.81805 177.279 4.16204 177.518C16.4639 179.639 28.0829 181.651 40.5906 171.613C53.1092 161.586 53.7162 149.764 54.3665 137.258C55.006 125.012 55.6563 112.342 68.6301 101.935C81.604 91.5268 94.0575 93.6801 106.11 95.7682C118.412 97.8889 130.031 99.9117 142.539 89.8847C155.046 79.8576 155.664 68.0252 156.315 55.5294C156.954 43.2838 157.593 30.614 170.578 20.2063C183.552 9.80949 196.006 11.9519 208.047 14.04C220.349 16.1607 231.968 18.1835 244.476 8.15644C247.706 5.56811 250.134 2.87102 251.976 0.0651855H253.515C251.553 3.24079 248.898 6.29676 245.31 9.1896C232.337 19.5864 219.883 17.4222 207.83 15.3559C195.529 13.2135 183.91 11.2124 171.402 21.2395C158.883 31.2665 158.276 43.088 157.626 55.5947C156.987 67.8403 156.336 80.5101 143.362 90.9178C130.389 101.315 117.946 99.1722 105.893 97.0841C93.5915 94.9417 81.9616 92.9406 69.443 102.968C56.9244 112.995 56.3175 124.816 55.6671 137.323C55.0277 149.569 54.3882 162.238 41.4035 172.646C28.4405 183.043 15.987 180.89 3.94527 178.801Z" fill="url(#paint1_linear_87_659)"/>
<path d="M272.7 34.812L272.754 34.4749H279.788C280.742 34.5184 281.511 34.812 281.771 35.8343L283.311 43.2186C281.804 39.347 278.173 36.1388 272.7 34.812Z" fill="url(#paint2_linear_87_659)"/>
<path d="M283.495 44.3061L283.972 46.0353L288.416 34.6379H293.217L286.074 51.299H281.284L277.219 37.3785C280.135 39.26 282.617 42.2289 283.495 44.3061Z" fill="url(#paint3_linear_87_659)"/>
<path d="M301.476 39.8255C301.498 36.5846 304.663 34.3008 309.139 34.3008C310.895 34.3008 312.315 34.6705 313.203 35.0077L312.586 38.6183L312.174 38.4334C311.328 38.0963 310.255 37.7809 308.77 37.7918C307.004 37.7918 306.169 38.5422 306.169 39.2382C306.158 40.0103 307.145 40.5324 308.727 41.3045C311.339 42.5008 312.553 43.9363 312.521 45.8504C312.499 49.3196 309.399 51.56 304.641 51.56C302.603 51.5382 300.652 51.1249 299.59 50.6682L300.23 46.9271L300.804 47.1881C302.289 47.808 303.264 48.069 305.075 48.069C306.375 48.069 307.773 47.5578 307.795 46.4377C307.806 45.6981 307.199 45.1761 305.443 44.3605C303.72 43.5666 301.454 42.218 301.476 39.8255Z" fill="url(#paint4_linear_87_659)"/>
<path d="M312.239 51.299L318.959 35.9757C319.436 34.899 320.259 34.5945 321.343 34.5945H324.844L328.529 51.2881H324.313C324.313 51.2881 323.901 49.3741 323.76 48.7977H317.951C317.777 49.2327 316.997 51.2881 316.997 51.2881L312.239 51.299Z" fill="url(#paint5_linear_87_659)"/>
<path d="M350.9 10.4077C352.569 13.4202 353.501 16.9003 353.501 20.587L353.523 44.7411C353.155 47.8515 352.992 50.9727 352.829 54.0613C352.179 66.5788 351.572 78.3895 339.054 88.4165C326.535 98.4436 314.916 96.4317 302.625 94.3001C290.583 92.212 278.13 90.0587 265.156 100.466C252.171 110.863 251.521 123.533 250.892 135.79C250.242 148.285 249.635 160.118 237.116 170.145C224.598 180.172 212.979 178.16 200.688 176.028C188.635 173.94 176.182 171.787 163.208 182.195C150.234 192.591 149.573 205.261 148.944 217.518C148.825 219.78 148.717 222.031 148.511 224.25L77.301 224.304C78.038 223.804 78.7859 223.249 79.5229 222.651C92.5076 212.254 93.1579 199.584 93.7865 187.328C94.4369 174.81 95.0438 163 107.562 152.973C120.081 142.946 131.711 144.947 144.013 147.089C156.065 149.177 168.508 151.33 181.482 140.923C194.456 130.526 195.117 117.856 195.745 105.6C196.396 93.0821 197.003 81.2714 209.521 71.2444C222.04 61.2173 233.659 63.2184 245.95 65.3608C258.002 67.438 270.456 69.6022 283.43 59.1945C287.776 55.7035 290.746 51.9624 292.784 48.0581L292.231 51.299H296.761L299.601 34.6053H296.826C297.325 31.0382 297.509 27.4385 297.683 23.8714C298.105 15.4973 298.539 7.43871 302.527 0.0217285H301.075C297.217 7.62359 296.794 15.8019 296.382 23.8061C296.187 27.482 296.003 31.0926 295.515 34.6053H295.07L293.694 42.7183C291.83 48.1886 288.578 53.3762 282.617 58.1613C270.098 68.1884 258.479 66.1765 246.188 64.0449C234.147 61.9568 221.693 59.8035 208.719 70.2112C195.735 80.608 195.084 93.2778 194.456 105.534C193.805 118.03 193.198 129.862 180.68 139.89C168.161 149.917 156.542 147.905 144.251 145.773C132.199 143.685 119.745 141.532 106.771 151.939C93.7974 162.347 93.1037 175.028 92.4751 187.273C91.8248 199.791 91.2178 211.602 78.6992 221.629C77.4311 222.64 76.1846 223.543 74.9165 224.304L20.9402 224.347C13.2665 224.358 6.53569 220.258 2.82889 214.136C6.45982 220.628 13.3749 225.011 21.3087 225L332.843 224.772C344.538 224.761 354.011 215.234 354 203.51L353.87 21.2178C353.87 17.2592 352.797 13.5615 350.9 10.4077ZM353.642 202.858C353.653 214.592 344.169 224.108 332.485 224.119L190.088 224.217C190.153 224.152 190.229 224.097 190.315 224.032C202.834 214.005 214.464 216.006 226.766 218.149C238.818 220.237 251.261 222.39 264.235 211.982C277.208 201.585 277.87 188.916 278.498 176.659C279.149 164.142 279.756 152.331 292.274 142.304C304.793 132.277 316.412 134.278 328.703 136.42C336.821 137.812 345.102 139.248 353.599 136.866L353.642 202.858ZM353.588 135.539C345.351 137.965 337.287 136.562 328.909 135.126C316.867 133.038 304.413 130.885 291.44 141.292C278.455 151.689 277.805 164.359 277.176 176.616C276.526 189.111 275.919 200.944 263.4 210.971C250.881 220.998 239.262 218.986 226.971 216.854C214.919 214.766 202.465 212.613 189.492 223.021C188.993 223.412 188.505 223.825 188.05 224.239L149.844 224.271C150.028 222.042 150.147 219.823 150.256 217.605C150.906 205.087 151.513 193.277 164.032 183.25C176.55 173.222 188.169 175.224 200.482 177.366C212.534 179.454 224.977 181.607 237.951 171.2C250.925 160.803 251.586 148.133 252.215 135.877C252.865 123.359 253.472 111.548 265.99 101.521C278.509 91.4943 290.128 93.4953 302.419 95.6378C314.472 97.715 326.925 99.8792 339.899 89.4714C349.816 81.5216 352.526 72.2449 353.545 62.8595L353.588 135.539Z" fill="url(#paint6_linear_87_659)"/>
<path d="M106.825 0.163086C106.641 2.39253 106.522 4.6111 106.414 6.82967C105.763 19.3254 105.156 31.1578 92.6377 41.1849C82.2976 49.461 72.5862 49.5371 62.5822 48.1125L62.5713 35.8016C62.5713 33.5069 60.7071 31.6581 58.431 31.6581L31.7897 31.6798C29.5027 31.6798 27.6385 33.5395 27.6493 35.8342L27.6602 47.895C24.7121 49.113 21.7314 50.8313 18.7291 53.2456C5.75531 63.6425 5.09416 76.3122 4.45468 88.5579C4.04281 96.6056 3.64178 104.382 0.065041 111.559L9.28099e-06 21.4788C-0.0108293 9.76601 9.47296 0.228338 21.157 0.228338L106.825 0.163086Z" fill="url(#paint7_linear_87_659)"/>
<path d="M251.998 0.0544434C250.144 2.86028 247.727 5.55737 244.497 8.1457C231.979 18.1728 220.36 16.1608 208.069 14.0293C196.027 11.9412 183.574 9.78788 170.6 20.1956C157.615 30.5924 156.965 43.2622 156.336 55.5187C155.686 68.0145 155.079 79.8468 142.56 89.8739C130.042 99.901 118.423 97.8891 106.132 95.7575C94.0792 93.6694 81.6256 91.5161 68.6518 101.924C55.678 112.332 55.0168 124.99 54.3882 137.247C53.7378 149.764 53.1309 161.575 40.6123 171.602C28.0937 181.629 16.4747 179.628 4.1837 177.507C2.82887 177.268 1.47404 177.04 0.130055 176.822L0.0867004 114.235C4.88821 106.122 5.34343 97.2583 5.78781 88.6124C6.43813 76.0949 7.04509 64.2842 19.5637 54.2572C22.3059 52.0603 25.0047 50.429 27.6818 49.2545V55.1707C27.6818 57.4545 29.5461 59.3142 31.833 59.3142L58.4743 59.2925C60.7504 59.2925 62.6038 57.4219 62.6038 55.1381V49.4176C72.5754 50.8097 82.8504 50.7118 93.4722 42.1964C106.435 31.8105 107.096 19.1407 107.725 6.89504C107.844 4.63296 107.953 2.38177 108.159 0.163197L251.998 0.0544434Z" fill="url(#paint8_linear_87_659)"/>
<path d="M253.537 0.0543545C251.575 3.22996 248.92 6.28593 245.332 9.17877C232.358 19.5756 219.905 17.4114 207.852 15.3451C195.55 13.2026 183.931 11.2016 171.424 21.2286C158.905 31.2557 158.298 43.0772 157.648 55.5839C157.008 67.8295 156.358 80.4993 143.384 90.907C130.41 101.304 117.967 99.1614 105.915 97.0733C93.6131 94.9309 81.9833 92.9298 69.4647 102.957C56.9461 112.984 56.3391 124.805 55.6888 137.312C55.0493 149.558 54.4098 162.227 41.4252 172.635C28.4514 183.032 15.9978 180.89 3.9561 178.802C2.66631 178.573 1.39819 178.356 0.119232 178.16L0.140909 203.771C0.140909 207.415 1.06219 210.851 2.69882 213.853C2.75302 213.961 2.78553 214.048 2.8614 214.125C6.56821 220.247 13.2881 224.337 20.9727 224.337L74.949 224.293C76.2063 223.532 77.4527 222.629 78.7317 221.618C91.2503 211.591 91.8573 199.769 92.5076 187.263C93.147 175.017 93.7974 162.347 106.771 151.939C119.745 141.532 132.199 143.685 144.251 145.773C156.553 147.894 168.172 149.917 180.68 139.89C193.187 129.862 193.805 118.03 194.456 105.534C195.095 93.2887 195.735 80.6189 208.719 70.2112C221.693 59.8144 234.147 61.9568 246.188 64.0449C258.49 66.1656 270.109 68.1884 282.617 58.1613C288.589 53.3762 291.841 48.1886 293.694 42.7183L295.07 34.6053H295.515C296.013 31.0926 296.198 27.482 296.382 23.8061C296.794 15.8019 297.227 7.62359 301.075 0.0217285L253.537 0.0543545ZM272.754 34.4748H279.788C280.742 34.5183 281.511 34.812 281.771 35.8342L283.311 43.2186C281.793 39.3579 278.173 36.1496 272.7 34.8228L272.754 34.4748ZM286.074 51.2881H281.284L277.219 37.3677C280.135 39.2491 282.617 42.2289 283.495 44.2953L283.972 46.0244L288.416 34.6271H293.217L286.074 51.2881Z" fill="url(#paint9_linear_87_659)"/>
<path d="M272.7 34.812L272.754 34.4749H279.788C280.742 34.5184 281.511 34.812 281.771 35.8343L283.311 43.2186C281.804 39.347 278.173 36.1388 272.7 34.812Z" fill="url(#paint10_linear_87_659)"/>
<path d="M283.495 44.3061L283.972 46.0353L288.416 34.6379H293.217L286.074 51.299H281.284L277.219 37.3785C280.135 39.26 282.617 42.2289 283.495 44.3061Z" fill="url(#paint11_linear_87_659)"/>
<path d="M350.9 10.4077C349.22 7.53661 346.879 5.13316 344.072 3.33873C340.788 1.21804 336.875 0 332.691 0L302.527 0.0217507C298.539 7.43874 298.116 15.4974 297.683 23.8714C297.498 27.4385 297.325 31.0382 296.826 34.6053H299.601L296.761 51.299H292.231L292.784 48.0581C290.757 51.9624 287.776 55.7035 283.43 59.1945C270.456 69.5913 258.002 67.4271 245.95 65.3608C233.648 63.2184 222.029 61.2173 209.521 71.2444C197.003 81.2715 196.396 93.0929 195.745 105.6C195.106 117.845 194.456 130.515 181.482 140.923C168.508 151.32 156.065 149.177 144.013 147.089C131.711 144.947 120.081 142.946 107.562 152.973C95.0438 163 94.4369 174.821 93.7866 187.328C93.1471 199.573 92.5076 212.243 79.5229 222.651C78.7859 223.249 78.0381 223.793 77.301 224.304L148.511 224.25C148.706 222.042 148.825 219.78 148.944 217.518C149.584 205.272 150.234 192.602 163.208 182.195C176.182 171.798 188.635 173.94 200.688 176.028C212.99 178.149 224.609 180.172 237.116 170.145C249.624 160.118 250.242 148.285 250.892 135.79C251.532 123.544 252.171 110.874 265.156 100.466C278.13 90.0696 290.583 92.212 302.625 94.3001C314.927 96.4208 326.546 98.4436 339.054 88.4166C351.572 78.3895 352.179 66.568 352.829 54.0613C352.981 50.9619 353.155 47.8406 353.523 44.7412L353.501 20.587C353.501 16.9003 352.569 13.4202 350.9 10.4077ZM304.663 51.56C302.625 51.5383 300.674 51.125 299.612 50.6682L300.251 46.9271L300.826 47.1881C302.311 47.808 303.286 48.069 305.096 48.069C306.397 48.069 307.795 47.5579 307.817 46.4377C307.828 45.6982 307.221 45.1762 305.465 44.3605C303.731 43.5666 301.454 42.229 301.487 39.8364C301.509 36.5955 304.673 34.3117 309.15 34.3117C310.906 34.3117 312.326 34.6815 313.214 35.0186L312.597 38.6292L312.185 38.4443C311.339 38.1072 310.266 37.7918 308.781 37.8027C307.015 37.8027 306.18 38.5531 306.18 39.2491C306.169 40.0213 307.156 40.5433 308.738 41.3154C311.35 42.5117 312.564 43.9473 312.531 45.8613C312.521 49.3088 309.421 51.5491 304.663 51.56ZM324.324 51.2881C324.324 51.2881 323.912 49.3741 323.771 48.7977H317.962C317.788 49.2327 317.008 51.2881 317.008 51.2881H312.239L318.959 35.9648C319.436 34.8881 320.259 34.5836 321.343 34.5836H324.844L328.529 51.2772L324.324 51.2881Z" fill="url(#paint12_linear_87_659)"/>
<path d="M301.476 39.8255C301.498 36.5846 304.663 34.3008 309.139 34.3008C310.895 34.3008 312.315 34.6705 313.203 35.0077L312.586 38.6183L312.174 38.4334C311.328 38.0963 310.255 37.7809 308.77 37.7918C307.004 37.7918 306.169 38.5422 306.169 39.2382C306.158 40.0103 307.145 40.5324 308.727 41.3045C311.339 42.5008 312.553 43.9363 312.521 45.8504C312.499 49.3196 309.399 51.56 304.641 51.56C302.603 51.5382 300.652 51.1249 299.59 50.6682L300.23 46.9271L300.804 47.1881C302.289 47.808 303.264 48.069 305.075 48.069C306.375 48.069 307.773 47.5578 307.795 46.4377C307.806 45.6981 307.199 45.1761 305.443 44.3605C303.72 43.5666 301.454 42.218 301.476 39.8255Z" fill="url(#paint13_linear_87_659)"/>
<path d="M312.239 51.299L318.959 35.9757C319.436 34.899 320.259 34.5945 321.343 34.5945H324.844L328.529 51.2881H324.313C324.313 51.2881 323.901 49.3741 323.76 48.7977H317.951C317.777 49.2327 316.997 51.2881 316.997 51.2881L312.239 51.299Z" fill="url(#paint14_linear_87_659)"/>
<path d="M353.534 62.8376L353.588 135.539C345.351 137.965 337.287 136.562 328.909 135.126C316.867 133.038 304.413 130.885 291.44 141.292C278.455 151.689 277.805 164.359 277.176 176.615C276.526 189.111 275.919 200.944 263.4 210.971C250.881 220.998 239.262 218.986 226.971 216.854C214.919 214.766 202.465 212.613 189.492 223.021C188.993 223.412 188.505 223.825 188.05 224.239L149.844 224.271C150.028 222.042 150.147 219.823 150.256 217.605C150.906 205.087 151.513 193.277 164.032 183.249C176.55 173.222 188.169 175.223 200.482 177.366C212.534 179.454 224.977 181.607 237.951 171.2C250.925 160.803 251.586 148.133 252.215 135.876C252.865 123.359 253.472 111.548 265.99 101.521C278.509 91.4942 290.128 93.4952 302.419 95.6377C314.472 97.7149 326.925 99.8791 339.899 89.4714C349.805 81.4997 352.515 72.2231 353.534 62.8376Z" fill="url(#paint15_linear_87_659)"/>
<path d="M350.9 10.4077C352.569 13.4202 353.501 16.9003 353.501 20.587L353.523 44.7411C353.155 47.8515 352.992 50.9727 352.829 54.0613C352.179 66.5788 351.572 78.3895 339.054 88.4165C326.535 98.4436 314.916 96.4317 302.625 94.3001C290.583 92.212 278.13 90.0587 265.156 100.466C252.171 110.863 251.521 123.533 250.892 135.79C250.242 148.285 249.635 160.118 237.116 170.145C224.598 180.172 212.979 178.16 200.688 176.028C188.635 173.94 176.182 171.787 163.208 182.195C150.234 192.591 149.573 205.261 148.944 217.518C148.825 219.78 148.717 222.031 148.511 224.25L77.301 224.304C78.038 223.804 78.7859 223.249 79.5229 222.651C92.5076 212.254 93.1579 199.584 93.7865 187.328C94.4369 174.81 95.0438 163 107.562 152.973C120.081 142.946 131.711 144.947 144.013 147.089C156.065 149.177 168.508 151.33 181.482 140.923C194.456 130.526 195.117 117.856 195.745 105.6C196.396 93.0821 197.003 81.2714 209.521 71.2444C222.04 61.2173 233.659 63.2184 245.95 65.3608C258.002 67.438 270.456 69.6022 283.43 59.1945C287.776 55.7035 290.746 51.9624 292.784 48.0581L292.231 51.299H296.761L299.601 34.6053H296.826C297.325 31.0382 297.509 27.4385 297.683 23.8714C298.105 15.4973 298.539 7.43871 302.527 0.0217285H301.075C297.217 7.62359 296.794 15.8019 296.382 23.8061C296.187 27.482 296.003 31.0926 295.515 34.6053H295.07L293.694 42.7183C291.83 48.1886 288.578 53.3762 282.617 58.1613C270.098 68.1884 258.479 66.1765 246.188 64.0449C234.147 61.9568 221.693 59.8035 208.719 70.2112C195.735 80.608 195.084 93.2778 194.456 105.534C193.805 118.03 193.198 129.862 180.68 139.89C168.161 149.917 156.542 147.905 144.251 145.773C132.199 143.685 119.745 141.532 106.771 151.939C93.7974 162.347 93.1037 175.028 92.4751 187.273C91.8248 199.791 91.2178 211.602 78.6992 221.629C77.4311 222.64 76.1846 223.543 74.9165 224.304L20.9402 224.347C13.2665 224.358 6.53569 220.258 2.82889 214.136C6.45982 220.628 13.3749 225.011 21.3087 225L332.843 224.772C344.538 224.761 354.011 215.234 354 203.51L353.87 21.2178C353.87 17.2592 352.797 13.5615 350.9 10.4077ZM353.642 202.858C353.653 214.592 344.169 224.108 332.485 224.119L190.088 224.217C190.153 224.152 190.229 224.097 190.315 224.032C202.834 214.005 214.464 216.006 226.766 218.149C238.818 220.237 251.261 222.39 264.235 211.982C277.208 201.585 277.87 188.916 278.498 176.659C279.149 164.142 279.756 152.331 292.274 142.304C304.793 132.277 316.412 134.278 328.703 136.42C336.821 137.812 345.102 139.248 353.599 136.866L353.642 202.858ZM353.588 135.539C345.351 137.965 337.287 136.562 328.909 135.126C316.867 133.038 304.413 130.885 291.44 141.292C278.455 151.689 277.805 164.359 277.176 176.616C276.526 189.111 275.919 200.944 263.4 210.971C250.881 220.998 239.262 218.986 226.971 216.854C214.919 214.766 202.465 212.613 189.492 223.021C188.993 223.412 188.505 223.825 188.05 224.239L149.844 224.271C150.028 222.042 150.147 219.823 150.256 217.605C150.906 205.087 151.513 193.277 164.032 183.25C176.55 173.222 188.169 175.224 200.482 177.366C212.534 179.454 224.977 181.607 237.951 171.2C250.925 160.803 251.586 148.133 252.215 135.877C252.865 123.359 253.472 111.548 265.99 101.521C278.509 91.4943 290.128 93.4953 302.419 95.6378C314.472 97.715 326.925 99.8792 339.899 89.4714C349.816 81.5216 352.526 72.2449 353.545 62.8595L353.588 135.539Z" fill="url(#paint16_linear_87_659)"/>
<path d="M353.588 136.866L353.631 202.858C353.642 214.592 344.159 224.108 332.474 224.119L190.077 224.217C190.142 224.152 190.218 224.097 190.304 224.032C202.823 214.005 214.453 216.006 226.755 218.149C238.807 220.237 251.25 222.39 264.224 211.982C277.198 201.585 277.859 188.916 278.487 176.659C279.138 164.142 279.745 152.331 292.263 142.304C304.782 132.277 316.401 134.278 328.692 136.42C336.799 137.812 345.091 139.259 353.588 136.866Z" fill="url(#paint17_linear_87_659)"/>
<path d="M36.0257 95.6427V97.4371L33.4895 97.3284L34.9744 99.373L33.3811 100.33L32.1238 98.0353L30.8665 100.33L29.3058 99.373L30.7581 97.3284L28.2436 97.448V95.6536L30.7581 95.795L29.3058 93.7178L30.8665 92.7607L32.1238 95.0554L33.3811 92.7607L34.9744 93.7178L33.5003 95.795L36.0257 95.6427Z" fill="white"/>
<path d="M49.1188 95.6317V97.4262L46.5825 97.3174L48.0674 99.362L46.4741 100.319L45.2169 98.0243L43.9596 100.319L42.3988 99.362L43.8512 97.3174L41.3366 97.437V95.6426L43.8512 95.784L42.3988 93.7068L43.9596 92.7498L45.2169 95.0445L46.4741 92.7498L48.0674 93.7068L46.5934 95.784L49.1188 95.6317Z" fill="white"/>
<path d="M62.2118 95.621V97.4154L59.6756 97.3067L61.1605 99.3512L59.5672 100.308L58.3099 98.0136L57.0526 100.308L55.4919 99.3512L56.9442 97.3067L54.4297 97.4263V95.6319L56.9442 95.7732L55.4919 93.696L57.0526 92.739L58.3099 95.0337L59.5672 92.739L61.1605 93.696L59.6864 95.7732L62.2118 95.621Z" fill="white"/>
<path d="M75.3049 95.61V97.4044L72.7686 97.2957L74.2535 99.3402L72.6602 100.297L71.403 98.0026L70.1457 100.297L68.5849 99.3402L70.0373 97.2957L67.5227 97.4153V95.6209L70.0373 95.7622L68.5849 93.6851L70.1457 92.728L71.403 95.0227L72.6602 92.728L74.2535 93.6851L72.7795 95.7622L75.3049 95.61Z" fill="white"/>
<path d="M97.4698 95.5883V97.3827L94.9336 97.2739L96.4185 99.3185L94.8252 100.276L93.5679 97.9808L92.3106 100.276L90.7499 99.3185L92.2022 97.2739L89.6877 97.3936V95.5991L92.2022 95.7405L90.7499 93.6633L92.3106 92.7063L93.5679 95.001L94.8252 92.7063L96.4185 93.6633L94.9444 95.7405L97.4698 95.5883Z" fill="white"/>
<path d="M110.563 95.5883V97.3827L108.027 97.2739L109.512 99.3185L107.918 100.276L106.661 97.9808L105.404 100.276L103.843 99.3185L105.295 97.2739L102.781 97.3936V95.5991L105.295 95.7405L103.843 93.6633L105.404 92.7063L106.661 95.001L107.918 92.7063L109.512 93.6633L108.037 95.7405L110.563 95.5883Z" fill="white"/>
<path d="M123.656 95.5774V97.3718L121.109 97.2522L122.594 99.2968L121 100.254L119.743 97.9591L118.486 100.254L116.925 99.2968L118.378 97.2522L115.863 97.3718V95.5774L118.378 95.7188L116.925 93.6416L118.486 92.6846L119.743 94.9793L121 92.6846L122.594 93.6416L121.12 95.7188L123.656 95.5774Z" fill="white"/>
<path d="M136.749 95.5665V97.361L134.202 97.2522L135.687 99.2968L134.093 100.254L132.836 97.9591L131.579 100.254L130.018 99.2968L131.471 97.2522L128.956 97.3718V95.5774L131.471 95.7188L130.018 93.6416L131.579 92.6846L132.836 94.9793L134.093 92.6846L135.687 93.6307L134.213 95.7079L136.749 95.5665Z" fill="white"/>
<path d="M158.914 95.5448V97.3392L156.378 97.2305L157.863 99.2751L156.269 100.232L155.012 97.9374L153.755 100.232L152.194 99.2751L153.646 97.2305L151.132 97.3501V95.5557L153.646 95.6971L152.194 93.6199L153.755 92.6628L155.012 94.9575L156.269 92.6628L157.863 93.6199L156.389 95.6971L158.914 95.5448Z" fill="white"/>
<path d="M171.996 95.5448V97.3392L169.46 97.2305L170.945 99.2751L169.352 100.232L168.094 97.9374L166.837 100.232L165.276 99.2751L166.729 97.2305L164.214 97.3501V95.5557L166.729 95.6971L165.276 93.6199L166.837 92.6628L168.094 94.9575L169.352 92.6628L170.945 93.609L169.471 95.6862L171.996 95.5448Z" fill="white"/>
<path d="M185.089 95.5341V97.3285L182.553 97.2197L184.038 99.2643L182.445 100.221L181.187 97.9266L179.93 100.221L178.369 99.2643L179.822 97.2197L177.307 97.3394V95.5449L179.822 95.6863L178.369 93.6091L179.93 92.6521L181.187 94.9468L182.445 92.6521L184.038 93.6091L182.564 95.6863L185.089 95.5341Z" fill="white"/>
<path d="M198.182 95.5231V97.3175L195.646 97.2088L197.131 99.2533L195.538 100.21L194.28 97.9157L193.023 100.21L191.462 99.2533L192.915 97.2088L190.4 97.3284V95.534L192.915 95.6753L191.462 93.5981L193.023 92.6411L194.28 94.9358L195.538 92.6411L197.131 93.5981L195.657 95.6753L198.182 95.5231Z" fill="white"/>
<path d="M29.9453 166.278C28.8072 166.278 27.8642 165.897 27.1164 165.147C26.3685 164.397 26 163.461 26 162.363C26 161.264 26.3685 160.329 27.1164 159.579C27.8534 158.818 28.7964 158.448 29.9453 158.448C30.6389 158.448 31.2676 158.611 31.842 158.948C32.4165 159.274 32.8717 159.72 33.1968 160.286L32.3298 160.797C32.113 160.384 31.7878 160.046 31.3651 159.796C30.9424 159.546 30.4655 159.427 29.9453 159.427C29.0782 159.427 28.3628 159.709 27.8209 160.275C27.2681 160.84 26.9972 161.536 26.9972 162.385C26.9972 163.222 27.2681 163.918 27.8209 164.484C28.3737 165.049 29.0782 165.321 29.9453 165.321C30.4655 165.321 30.9316 165.201 31.3651 164.951C31.7878 164.701 32.113 164.375 32.3298 163.962L33.2077 164.462C32.8934 165.027 32.4381 165.473 31.8637 165.81C31.2676 166.115 30.6389 166.278 29.9453 166.278Z" fill="white"/>
<path d="M38.6595 160.731H39.5916V166.136H38.6595V165.212C38.1934 165.93 37.5106 166.278 36.6218 166.289C35.8631 166.289 35.2237 166.017 34.6926 165.462C34.1615 164.908 33.8905 164.244 33.8905 163.45C33.8905 162.656 34.1506 161.982 34.6817 161.438C35.2128 160.884 35.8523 160.612 36.611 160.612C37.4998 160.612 38.1826 160.971 38.6487 161.678V160.731H38.6595ZM36.7519 165.364C37.2938 165.364 37.749 165.179 38.1176 164.81C38.4861 164.44 38.6703 163.983 38.6703 163.429C38.6703 162.885 38.4861 162.428 38.1176 162.047C37.749 161.678 37.2938 161.493 36.7519 161.493C36.21 161.493 35.7656 161.678 35.3971 162.047C35.0286 162.417 34.8443 162.874 34.8443 163.429C34.8443 163.972 35.0286 164.429 35.3971 164.81C35.7547 165.179 36.21 165.364 36.7519 165.364Z" fill="white"/>
<path d="M41.9544 161.634C42.2579 160.96 42.8215 160.634 43.6344 160.634V161.612C43.1792 161.591 42.7782 161.71 42.453 161.982C42.1278 162.254 41.9544 162.678 41.9544 163.265V166.126H41.0223V160.721H41.9544V161.634Z" fill="white"/>
<path d="M48.7177 158.567H49.6607V166.137H48.7286V165.212C48.2625 165.93 47.5797 166.278 46.6909 166.278C45.9322 166.278 45.2927 166.006 44.7617 165.451C44.2306 164.897 43.9596 164.233 43.9596 163.44C43.9596 162.646 44.2197 161.971 44.7508 161.428C45.2819 160.873 45.9214 160.601 46.6801 160.601C47.5689 160.601 48.2517 160.96 48.7177 161.667V158.567ZM46.8102 165.364C47.3521 165.364 47.8073 165.18 48.1758 164.81C48.5443 164.44 48.7286 163.983 48.7286 163.429C48.7286 162.885 48.5443 162.417 48.1758 162.047C47.8073 161.678 47.3521 161.493 46.8102 161.493C46.2682 161.493 45.8238 161.678 45.4553 162.047C45.0868 162.417 44.9026 162.874 44.9026 163.429C44.9026 163.972 45.0868 164.429 45.4553 164.81C45.813 165.18 46.2682 165.364 46.8102 165.364Z" fill="white"/>
<path d="M58.5267 158.556H59.513V166.126H58.5267V162.722H54.8632V166.126H53.8661V158.556H54.8632V161.765H58.5267V158.556Z" fill="white"/>
<path d="M65.5826 165.43C65.0299 165.973 64.3579 166.256 63.5666 166.256C62.7754 166.256 62.1034 165.984 61.5615 165.441C61.0196 164.897 60.7378 164.222 60.7378 163.418C60.7378 162.613 61.0087 161.95 61.5615 161.395C62.1143 160.851 62.7754 160.568 63.5666 160.568C64.3579 160.568 65.0299 160.84 65.5826 161.384C66.1354 161.928 66.4172 162.602 66.4172 163.407C66.4172 164.212 66.1354 164.886 65.5826 165.43ZM63.5775 165.343C64.1194 165.343 64.5638 165.158 64.9323 164.788C65.3008 164.418 65.4851 163.961 65.4851 163.418C65.4851 162.874 65.3008 162.417 64.9323 162.047C64.5638 161.678 64.1086 161.493 63.5775 161.504C63.0464 161.504 62.602 161.689 62.2335 162.058C61.865 162.428 61.6807 162.885 61.6807 163.429C61.6807 163.972 61.865 164.429 62.2335 164.799C62.5912 165.158 63.0464 165.343 63.5775 165.343Z" fill="white"/>
<path d="M67.5227 166.115V158.23H68.4549L68.4657 166.115H67.5227Z" fill="white"/>
<path d="M74.3511 158.546H75.2832V166.115H74.3511V165.19C73.885 165.908 73.2022 166.256 72.3134 166.267C71.5547 166.267 70.9152 165.995 70.3841 165.441C69.853 164.886 69.5821 164.223 69.5821 163.429C69.5821 162.635 69.8422 161.961 70.3733 161.417C70.9044 160.873 71.5439 160.59 72.3026 160.59C73.1913 160.59 73.8742 160.949 74.3402 161.656L74.3511 158.546ZM72.4326 165.343C72.9745 165.343 73.4298 165.158 73.7983 164.788C74.1668 164.418 74.3511 163.962 74.3511 163.407C74.3511 162.863 74.1668 162.396 73.7983 162.026C73.4298 161.656 72.9745 161.471 72.4326 161.471C71.8907 161.471 71.4463 161.656 71.0778 162.026C70.7093 162.396 70.525 162.852 70.525 163.407C70.525 163.951 70.7093 164.407 71.0778 164.788C71.4463 165.158 71.9015 165.343 72.4326 165.343Z" fill="white"/>
<path d="M77.3642 163.831C77.4617 164.31 77.6785 164.69 78.0254 164.951C78.3722 165.212 78.8057 165.354 79.3151 165.354C80.0305 165.354 80.5399 165.093 80.8651 164.56L81.6671 165.016C81.1469 165.832 80.3557 166.234 79.2935 166.234C78.4372 166.234 77.7436 165.963 77.2125 165.43C76.6814 164.897 76.4104 164.212 76.4104 163.396C76.4104 162.58 76.6705 161.906 77.1908 161.362C77.711 160.819 78.3939 160.547 79.2284 160.547C80.0197 160.547 80.6591 160.829 81.1577 161.384C81.6563 161.939 81.9056 162.613 81.9056 163.396C81.9056 163.537 81.8947 163.668 81.8731 163.82L77.3642 163.831ZM79.2284 161.449C78.7299 161.449 78.3072 161.591 77.982 161.873C77.6568 162.156 77.4509 162.537 77.3642 163.015H80.9626C80.8867 162.504 80.6808 162.113 80.3557 161.852C80.0305 161.58 79.662 161.449 79.2284 161.449Z" fill="white"/>
<path d="M83.9216 161.602C84.225 160.927 84.7887 160.601 85.6015 160.601V161.58C85.1463 161.558 84.7453 161.678 84.4201 161.95C84.095 162.221 83.9216 162.646 83.9216 163.233V166.093H82.9894V160.688H83.9324V161.602H83.9216Z" fill="white"/>
<path d="M91.8879 160.558C92.5166 160.558 93.026 160.753 93.4053 161.156C93.7847 161.558 93.9798 162.102 93.9798 162.787V166.104H93.0368V162.841C93.0368 162.406 92.9176 162.058 92.6791 161.819C92.4407 161.58 92.1155 161.46 91.7037 161.46C91.2376 161.46 90.8583 161.613 90.5765 161.895C90.2838 162.189 90.1429 162.635 90.1429 163.244V166.104H89.2V160.699H90.1321V161.482C90.5331 160.862 91.1075 160.558 91.8879 160.558Z" fill="white"/>
<path d="M99.7459 160.688H100.678V166.093H99.7351V165.169C99.269 165.887 98.5862 166.235 97.6975 166.235C96.9388 166.235 96.2993 165.963 95.7682 165.408C95.2371 164.853 94.9661 164.19 94.9661 163.396C94.9661 162.602 95.2263 161.928 95.7573 161.384C96.2884 160.83 96.9279 160.558 97.6866 160.558C98.5754 160.558 99.2582 160.917 99.7243 161.623L99.7459 160.688ZM97.8275 165.321C98.3694 165.321 98.8247 165.136 99.1932 164.766C99.5617 164.397 99.7459 163.94 99.7459 163.385C99.7459 162.841 99.5617 162.374 99.1932 162.004C98.8247 161.634 98.3694 161.449 97.8275 161.449C97.2856 161.449 96.8412 161.634 96.4727 162.004C96.1042 162.374 95.9199 162.831 95.9199 163.385C95.9199 163.929 96.1042 164.386 96.4727 164.766C96.8412 165.136 97.2856 165.321 97.8275 165.321Z" fill="white"/>
<path d="M107.918 160.536C108.525 160.536 109.013 160.732 109.381 161.123C109.75 161.515 109.945 162.048 109.945 162.722V166.082H109.013V162.754C109.013 162.341 108.905 162.015 108.688 161.787C108.471 161.558 108.189 161.439 107.832 161.439C107.431 161.439 107.105 161.58 106.867 161.841C106.628 162.113 106.509 162.526 106.509 163.081V166.082H105.566V162.754C105.566 162.341 105.469 162.015 105.263 161.787C105.057 161.558 104.775 161.439 104.428 161.439C104.038 161.439 103.702 161.58 103.442 161.852C103.182 162.124 103.052 162.537 103.052 163.081V166.082H102.109V160.677H103.041V161.406C103.409 160.83 103.94 160.536 104.645 160.536C105.371 160.536 105.902 160.84 106.227 161.449C106.596 160.851 107.16 160.547 107.918 160.536Z" fill="white"/>
<path d="M111.896 163.809C111.994 164.288 112.21 164.668 112.557 164.929C112.904 165.201 113.338 165.332 113.847 165.332C114.562 165.332 115.072 165.071 115.397 164.538L116.199 164.995C115.679 165.81 114.887 166.213 113.825 166.213C112.969 166.213 112.275 165.941 111.744 165.408C111.213 164.875 110.942 164.19 110.942 163.374C110.942 162.559 111.202 161.884 111.723 161.341C112.243 160.797 112.926 160.525 113.76 160.525C114.551 160.525 115.191 160.808 115.69 161.362C116.188 161.917 116.437 162.591 116.437 163.374C116.437 163.516 116.427 163.646 116.405 163.798L111.896 163.809ZM113.76 161.417C113.262 161.417 112.839 161.558 112.514 161.841C112.189 162.124 111.983 162.504 111.896 162.983H115.494C115.419 162.472 115.213 162.08 114.887 161.819C114.573 161.558 114.194 161.417 113.76 161.417Z" fill="white"/>
<path d="M258.781 165.027H262.282V165.973H257.784V158.404H262.228V159.361H258.781V161.688H261.957V162.624H258.781V165.027Z" fill="white"/>
<path d="M268.059 165.963H266.964L265.447 163.918L263.94 165.963H262.845L264.905 163.178L262.965 160.558H264.07L265.458 162.428L266.845 160.547H267.94L265.999 163.168L268.059 165.963Z" fill="white"/>
<path d="M271.906 160.427C272.665 160.427 273.305 160.699 273.836 161.254C274.367 161.808 274.638 162.482 274.638 163.265C274.638 164.059 274.378 164.734 273.847 165.277C273.316 165.832 272.676 166.104 271.917 166.104C271.029 166.104 270.346 165.745 269.88 165.038V168.127H268.948L268.937 160.558H269.88V161.482C270.335 160.775 271.018 160.427 271.906 160.427ZM271.787 165.201C272.329 165.201 272.774 165.016 273.142 164.647C273.511 164.277 273.695 163.82 273.695 163.265C273.695 162.722 273.511 162.254 273.142 161.884C272.774 161.515 272.318 161.33 271.787 161.33C271.245 161.33 270.79 161.515 270.422 161.884C270.053 162.254 269.869 162.711 269.869 163.265C269.869 163.809 270.053 164.266 270.422 164.647C270.79 165.016 271.245 165.201 271.787 165.201Z" fill="white"/>
<path d="M276.22 159.579C276.036 159.579 275.895 159.513 275.765 159.394C275.646 159.274 275.581 159.122 275.581 158.948C275.581 158.774 275.646 158.622 275.765 158.502C275.884 158.372 276.036 158.317 276.22 158.317C276.394 158.317 276.535 158.382 276.665 158.502C276.784 158.633 276.849 158.774 276.849 158.948C276.849 159.122 276.784 159.263 276.665 159.394C276.545 159.513 276.394 159.579 276.22 159.579ZM275.754 165.963V160.557H276.697V165.963H275.754Z" fill="white"/>
<path d="M279.049 161.46C279.353 160.786 279.916 160.459 280.729 160.459V161.438C280.274 161.416 279.873 161.536 279.548 161.808C279.223 162.08 279.049 162.504 279.049 163.091V165.952H278.117V160.546H279.06V161.46H279.049Z" fill="white"/>
<path d="M285.531 160.557H286.528L284.338 166.3C284.111 166.909 283.786 167.376 283.374 167.702C282.962 168.018 282.485 168.17 281.943 168.127V167.257C282.604 167.311 283.081 166.941 283.385 166.147L283.482 165.941L281.13 160.557H282.127L283.927 164.701L285.531 160.557Z" fill="white"/>
<path d="M293.042 158.382C294.071 158.382 294.917 158.752 295.6 159.481C296.283 160.209 296.619 161.101 296.619 162.167C296.619 163.222 296.283 164.125 295.6 164.853C294.917 165.582 294.071 165.952 293.042 165.952H290.105L290.094 158.382H293.042ZM293.042 164.995C293.811 164.995 294.44 164.723 294.928 164.179C295.415 163.635 295.654 162.961 295.654 162.156C295.654 161.351 295.405 160.677 294.917 160.133C294.429 159.589 293.8 159.328 293.031 159.328H291.091V164.995H293.042Z" fill="white"/>
<path d="M302.2 160.536H303.133V165.941H302.19V165.016C301.724 165.734 301.041 166.082 300.152 166.093C299.393 166.093 298.754 165.821 298.223 165.266C297.692 164.712 297.421 164.048 297.421 163.254C297.421 162.461 297.681 161.786 298.212 161.243C298.743 160.688 299.382 160.416 300.141 160.416C301.03 160.416 301.713 160.775 302.179 161.482L302.2 160.536ZM300.282 165.179C300.824 165.179 301.279 164.995 301.648 164.625C302.016 164.255 302.2 163.798 302.2 163.244C302.2 162.7 302.016 162.232 301.648 161.862C301.279 161.493 300.824 161.308 300.282 161.308C299.74 161.308 299.296 161.493 298.927 161.862C298.559 162.232 298.374 162.689 298.374 163.244C298.374 163.787 298.559 164.244 298.927 164.625C299.296 164.995 299.74 165.179 300.282 165.179Z" fill="white"/>
<path d="M307.479 161.449H306.048V164.375C306.048 164.647 306.102 164.831 306.2 164.94C306.308 165.049 306.46 165.114 306.677 165.114C306.894 165.114 307.154 165.114 307.479 165.092V165.941C306.655 166.05 306.059 165.984 305.68 165.745C305.3 165.506 305.105 165.049 305.105 164.375V161.449H304.043V160.547H305.105V159.318L306.037 159.035V160.547H307.468L307.479 161.449Z" fill="white"/>
<path d="M308.985 163.668C309.083 164.146 309.3 164.527 309.647 164.788C309.993 165.06 310.427 165.19 310.936 165.19C311.652 165.19 312.161 164.929 312.486 164.397L313.288 164.853C312.768 165.669 311.977 166.071 310.915 166.071C310.058 166.071 309.365 165.799 308.834 165.267C308.303 164.734 308.032 164.049 308.032 163.233C308.032 162.417 308.292 161.743 308.812 161.199C309.332 160.655 310.015 160.384 310.85 160.384C311.641 160.384 312.28 160.666 312.79 161.221C313.288 161.776 313.538 162.45 313.538 163.233C313.538 163.374 313.527 163.505 313.505 163.657L308.985 163.668ZM310.839 161.275C310.34 161.275 309.918 161.417 309.592 161.699C309.267 161.982 309.061 162.363 308.975 162.841H312.573C312.497 162.33 312.291 161.939 311.966 161.678C311.652 161.417 311.272 161.275 310.839 161.275Z" fill="white"/>
<path d="M324.94 34.9473H321.439C320.344 34.9473 319.521 35.2518 319.054 36.3284L312.335 51.6518H317.104C317.104 51.6518 317.895 49.5964 318.057 49.1613H323.867C324.008 49.7377 324.42 51.6518 324.42 51.6518H328.636L324.94 34.9473ZM319.358 45.7356C319.726 44.7786 321.135 41.0483 321.135 41.0483C321.135 41.0483 321.526 40.0696 321.753 39.4714L322.057 40.907C322.057 40.907 322.935 44.8873 323.108 45.7356H319.358Z" fill="white"/>
<path d="M306.287 39.5911C306.276 40.3632 307.262 40.8852 308.844 41.6574C311.457 42.8537 312.671 44.2892 312.638 46.2033C312.616 49.6725 309.516 51.9128 304.758 51.9128C302.721 51.8911 300.77 51.4778 299.708 51.0211L300.347 47.28L300.921 47.541C302.406 48.1609 303.382 48.4219 305.192 48.4219C306.493 48.4219 307.891 47.9107 307.912 46.7906C307.923 46.051 307.316 45.529 305.56 44.7134C303.826 43.9195 301.55 42.5818 301.583 40.1892C301.604 36.9484 304.769 34.6646 309.246 34.6646C311.001 34.6646 312.421 35.0343 313.31 35.3714L312.692 38.9821L312.28 38.7972C311.435 38.46 310.362 38.1447 308.877 38.1555C307.11 38.1447 306.287 38.8951 306.287 39.5911Z" fill="white"/>
<path d="M299.686 34.9583L296.857 51.6519H292.326L292.879 48.4111L293.779 43.0821L295.144 34.9691L299.686 34.9583Z" fill="white"/>
<path d="M283.406 43.5605C281.889 39.6998 278.269 36.4916 272.795 35.1648L272.849 34.8276H279.884C280.838 34.8711 281.607 35.1648 281.867 36.1871L283.406 43.5605Z" fill="white"/>
<path d="M293.313 34.98L286.17 51.641H281.379L277.315 37.7206C280.231 39.602 282.713 42.5818 283.591 44.6482L284.067 46.3773L288.511 34.98H293.313Z" fill="white"/>
<path d="M62.6779 36.1435L62.6887 55.5016C62.6887 57.7854 60.8245 59.656 58.5592 59.656L31.9179 59.6778C29.6309 59.6778 27.7667 57.8072 27.7667 55.5342L27.745 36.1761C27.745 33.8814 29.6093 32.0218 31.8854 32.0218L58.5375 32C60.8136 32 62.6779 33.8488 62.6779 36.1435Z" fill="#F6C859"/>
<path d="M41.2174 55.9802C41.0657 55.9802 40.9248 55.9041 40.8598 55.7627C40.7622 55.567 40.8381 55.3168 41.0332 55.2189C41.6185 54.9144 42.4097 54.3489 42.8757 53.381C43.461 52.1412 43.3093 50.7927 43.06 50.6731C42.995 50.6404 42.7565 50.7709 42.6048 50.8471C42.2254 51.0428 41.6943 51.3147 41.0874 51.0972C40.4912 50.8906 40.1986 50.3577 40.0577 50.0967C39.1364 48.411 38.8546 44.0391 39.8192 41.864C40.1444 41.1462 40.5779 40.7112 41.1199 40.5807C41.6726 40.4502 42.1279 40.6786 42.4855 40.8744C42.7782 41.0266 42.9299 41.0919 43.0275 41.0375C43.4068 40.8091 43.396 39.4171 42.8649 38.3187C42.3988 37.3399 41.6076 36.7744 41.0223 36.4807C40.8272 36.3828 40.7405 36.1327 40.8489 35.937C40.9465 35.7412 41.1957 35.6542 41.3908 35.763C42.0845 36.1218 43.0383 36.7961 43.5911 37.9815C44.1438 39.1452 44.404 41.1571 43.4393 41.7444C42.9516 42.038 42.4855 41.7988 42.117 41.6139C41.8352 41.4725 41.5643 41.3311 41.3041 41.3964C40.9465 41.4834 40.708 41.8858 40.5563 42.212C39.7109 44.1152 39.9601 48.2478 40.7622 49.7269C40.9031 49.977 41.0657 50.2489 41.3475 50.3468C41.6185 50.4447 41.8786 50.325 42.2363 50.1402C42.5939 49.9553 42.9841 49.7595 43.4068 49.9553C44.3173 50.4012 44.2522 52.3479 43.6019 53.7399C43.0383 54.9253 42.0954 55.5996 41.4017 55.9585C41.3366 55.9693 41.2716 55.9802 41.2174 55.9802Z" fill="#7D662D"/>
<path d="M39.9926 42.5926H32.7199C32.4923 42.5926 32.3189 42.4077 32.3189 42.1902C32.3189 41.9727 32.4923 41.7878 32.7091 41.7878H39.9818C40.2094 41.7878 40.3828 41.9727 40.3828 42.1902C40.3937 42.4077 40.2203 42.5926 39.9926 42.5926Z" fill="#7D662D"/>
<path d="M39.9926 49.901H32.7199C32.4923 49.901 32.3189 49.7161 32.3189 49.4986C32.3189 49.2702 32.5032 49.0962 32.7199 49.0962H39.9926C40.2203 49.0962 40.3937 49.2811 40.3937 49.4986C40.4045 49.7161 40.2203 49.901 39.9926 49.901Z" fill="#7D662D"/>
<path d="M49.7041 55.9695C49.639 55.9695 49.574 55.9586 49.5198 55.926C48.8261 55.5671 47.8723 54.8928 47.3196 53.7074C46.6584 52.3154 46.6042 50.3687 47.5038 49.9228C47.9265 49.7162 48.3275 49.9228 48.6744 50.0968C49.0429 50.2817 49.303 50.4013 49.5631 50.3034C49.8666 50.1947 50.04 49.8793 50.1484 49.6835C50.9505 48.2045 51.1889 44.061 50.3435 42.1687C50.1918 41.8424 49.9533 41.4291 49.5957 41.353C49.3789 41.2986 49.238 41.0811 49.2922 40.8636C49.3464 40.6461 49.5631 40.5156 49.7799 40.5591C50.3219 40.6896 50.7554 41.1138 51.0806 41.8315C52.056 44.0066 51.7742 48.3894 50.8529 50.0642C50.712 50.3252 50.4194 50.8581 49.8233 51.0647C49.2163 51.2822 48.6852 51.0103 48.3059 50.8146C48.1541 50.7384 47.9157 50.6188 47.8506 50.6406C47.6122 50.7602 47.4496 52.1087 48.0457 53.3485C48.5118 54.3273 49.303 54.8928 49.8883 55.1865C50.0834 55.2843 50.1701 55.5345 50.0617 55.7302C49.9967 55.8934 49.8558 55.9695 49.7041 55.9695Z" fill="#7D662D"/>
<path d="M48.0783 40.9614C47.9048 40.9614 47.7531 40.8526 47.6989 40.6895C46.8318 38.0794 48.8586 36.0675 49.509 35.7412C49.7041 35.6325 49.9533 35.7195 50.0509 35.9152C50.1484 36.111 50.0726 36.3611 49.8775 36.459C49.5848 36.6113 47.7206 38.2099 48.4576 40.4285C48.5335 40.646 48.4143 40.8744 48.1975 40.9396C48.165 40.9614 48.1216 40.9614 48.0783 40.9614Z" fill="#7D662D"/>
<path d="M58.1907 42.5819H50.918C50.6904 42.5819 50.5169 42.397 50.5169 42.1795C50.5169 41.962 50.7012 41.7771 50.918 41.7771H58.1907C58.4183 41.7771 58.5917 41.962 58.5917 42.1795C58.5917 42.397 58.4074 42.5819 58.1907 42.5819Z" fill="#7D662D"/>
<path d="M58.1907 49.8792H50.918C50.6904 49.8792 50.5169 49.6944 50.5169 49.4768C50.5169 49.2485 50.7012 49.0745 50.918 49.0745H58.1907C58.4183 49.0745 58.5917 49.2593 58.5917 49.4768C58.5917 49.7052 58.4183 49.8792 58.1907 49.8792Z" fill="#7D662D"/>
<defs>
<linearGradient id="paint0_linear_87_659" x1="24.0151" y1="130.602" x2="62.6503" y2="31.4556" gradientUnits="userSpaceOnUse">
<stop stop-color="#885DF5"/>
<stop offset="0.9944" stop-color="#6B7CFE"/>
</linearGradient>
<linearGradient id="paint1_linear_87_659" x1="75.8556" y1="220.129" x2="144.334" y2="44.3981" gradientUnits="userSpaceOnUse">
<stop stop-color="#885DF5"/>
<stop offset="0.9944" stop-color="#6B7CFE"/>
</linearGradient>
<linearGradient id="paint2_linear_87_659" x1="277.141" y1="41.1438" x2="279.014" y2="36.3374" gradientUnits="userSpaceOnUse">
<stop stop-color="#885DF5"/>
<stop offset="0.9944" stop-color="#6B7CFE"/>
</linearGradient>
<linearGradient id="paint3_linear_87_659" x1="279.235" y1="51.457" x2="284.508" y2="37.9251" gradientUnits="userSpaceOnUse">
<stop stop-color="#885DF5"/>
<stop offset="0.9944" stop-color="#6B7CFE"/>
</linearGradient>
<linearGradient id="paint4_linear_87_659" x1="303.108" y1="52.9749" x2="308.292" y2="39.671" gradientUnits="userSpaceOnUse">
<stop stop-color="#885DF5"/>
<stop offset="0.9944" stop-color="#6B7CFE"/>
</linearGradient>
<linearGradient id="paint5_linear_87_659" x1="318.988" y1="54.9049" x2="324.337" y2="41.1787" gradientUnits="userSpaceOnUse">
<stop stop-color="#885DF5"/>
<stop offset="0.9944" stop-color="#6B7CFE"/>
</linearGradient>
<linearGradient id="paint6_linear_87_659" x1="147.331" y1="291.164" x2="232.562" y2="72.4438" gradientUnits="userSpaceOnUse">
<stop stop-color="#885DF5"/>
<stop offset="0.9944" stop-color="#6B7CFE"/>
</linearGradient>
<linearGradient id="paint7_linear_87_659" x1="0.0246164" y1="55.8979" x2="106.87" y2="55.8214" gradientUnits="userSpaceOnUse">
<stop stop-color="#4D338A"/>
<stop offset="0.9888" stop-color="#252857"/>
</linearGradient>
<linearGradient id="paint8_linear_87_659" x1="0.0488494" y1="89.7483" x2="252.066" y2="89.5678" gradientUnits="userSpaceOnUse">
<stop stop-color="#6947BD"/>
<stop offset="0.9888" stop-color="#252857"/>
</linearGradient>
<linearGradient id="paint9_linear_87_659" x1="0.0650218" y1="112.3" x2="301.147" y2="112.085" gradientUnits="userSpaceOnUse">
<stop stop-color="#885DF5"/>
<stop offset="0.9888" stop-color="#2E3670"/>
</linearGradient>
<linearGradient id="paint10_linear_87_659" x1="277.141" y1="41.1438" x2="279.014" y2="36.3374" gradientUnits="userSpaceOnUse">
<stop stop-color="#885DF5"/>
<stop offset="0.9944" stop-color="#6B7CFE"/>
</linearGradient>
<linearGradient id="paint11_linear_87_659" x1="279.235" y1="51.457" x2="284.508" y2="37.9251" gradientUnits="userSpaceOnUse">
<stop stop-color="#885DF5"/>
<stop offset="0.9944" stop-color="#6B7CFE"/>
</linearGradient>
<linearGradient id="paint12_linear_87_659" x1="77.2192" y1="112.245" x2="353.572" y2="112.047" gradientUnits="userSpaceOnUse">
<stop stop-color="#885DF5"/>
<stop offset="0.9944" stop-color="#4551A6"/>
</linearGradient>
<linearGradient id="paint13_linear_87_659" x1="303.108" y1="52.9749" x2="308.292" y2="39.671" gradientUnits="userSpaceOnUse">
<stop stop-color="#885DF5"/>
<stop offset="0.9944" stop-color="#6B7CFE"/>
</linearGradient>
<linearGradient id="paint14_linear_87_659" x1="318.988" y1="54.9049" x2="324.337" y2="41.1787" gradientUnits="userSpaceOnUse">
<stop stop-color="#885DF5"/>
<stop offset="0.9944" stop-color="#6B7CFE"/>
</linearGradient>
<linearGradient id="paint15_linear_87_659" x1="149.775" y1="143.617" x2="353.595" y2="143.471" gradientUnits="userSpaceOnUse">
<stop stop-color="#885DF5"/>
<stop offset="0.9944" stop-color="#5C6BDB"/>
</linearGradient>
<linearGradient id="paint16_linear_87_659" x1="147.331" y1="291.164" x2="232.562" y2="72.4438" gradientUnits="userSpaceOnUse">
<stop stop-color="#885DF5"/>
<stop offset="0.9944" stop-color="#6B7CFE"/>
</linearGradient>
<linearGradient id="paint17_linear_87_659" x1="190.045" y1="179.496" x2="353.62" y2="179.379" gradientUnits="userSpaceOnUse">
<stop stop-color="#885DF5"/>
<stop offset="0.9944" stop-color="#6B7CFE"/>
</linearGradient>
</defs>
</svg>
