<svg width="24" height="24" viewBox="0 0 24 24" fill="none" xmlns="http://www.w3.org/2000/svg">
<path d="M3 13C6.6 5 17.4 5 21 13" stroke="#7D8F92" stroke-width="1.5" stroke-linecap="round" stroke-linejoin="round"/>
<path d="M12 17C11.606 17 11.2159 16.9224 10.8519 16.7716C10.488 16.6209 10.1573 16.3999 9.87868 16.1213C9.6001 15.8427 9.37913 15.512 9.22836 15.1481C9.0776 14.7841 9 14.394 9 14C9 13.606 9.0776 13.2159 9.22836 12.8519C9.37913 12.488 9.6001 12.1573 9.87868 11.8787C10.1573 11.6001 10.488 11.3791 10.8519 11.2284C11.2159 11.0776 11.606 11 12 11C12.7956 11 13.5587 11.3161 14.1213 11.8787C14.6839 12.4413 15 13.2044 15 14C15 14.7956 14.6839 15.5587 14.1213 16.1213C13.5587 16.6839 12.7956 17 12 17Z" fill="#7D8F92" stroke="#7D8F92" stroke-width="1.5" stroke-linecap="round" stroke-linejoin="round"/>
</svg>
