<svg width="30" height="30" viewBox="0 0 30 30" fill="none" xmlns="http://www.w3.org/2000/svg">
<path d="M11.875 25V27.5C11.875 27.7486 11.9738 27.9871 12.1496 28.1629C12.3254 28.3387 12.5639 28.4375 12.8125 28.4375C13.0611 28.4375 13.2996 28.3387 13.4754 28.1629C13.6512 27.9871 13.75 27.7486 13.75 27.5V25H11.875ZM18.75 25H16.875V27.5C16.875 27.7486 16.9738 27.9871 17.1496 28.1629C17.3254 28.3387 17.5639 28.4375 17.8125 28.4375C18.0611 28.4375 18.2996 28.3387 18.4754 28.1629C18.6512 27.9871 18.75 27.7486 18.75 27.5V25Z" fill="#A3A3A3"/>
<path fill-rule="evenodd" clip-rule="evenodd" d="M21.7313 8.23119L22.0513 8.16619C22.571 8.06382 23.1092 8.11374 23.6013 8.30994C24.4638 8.65619 25.4087 8.71994 26.3075 8.49494L26.3838 8.47619C27.0388 8.31244 27.5 7.70369 27.5 7.00369V4.34119C27.5 3.41869 26.67 2.73869 25.8063 2.95494C25.3113 3.07994 24.7912 3.04369 24.315 2.85369L24.2237 2.81619C23.4309 2.49651 22.5618 2.41612 21.7237 2.58494L21.1625 2.69744C20.4875 2.83244 20 3.44744 20 4.15994V12.8512C20 13.3474 20.3875 13.7499 20.865 13.7499C20.981 13.7478 21.0955 13.7229 21.2018 13.6765C21.3081 13.6301 21.4043 13.5632 21.4848 13.4796C21.5652 13.396 21.6284 13.2973 21.6707 13.1893C21.713 13.0813 21.7336 12.9659 21.7313 12.8499V8.23119Z" fill="#A3A3A3"/>
<path d="M18.125 7.5V12.85C18.125 14.315 19.285 15.625 20.865 15.625C22.445 15.625 23.6062 14.315 23.6062 12.85V10.2863C24.5562 10.5425 25.5562 10.5737 26.525 10.37C27.14 11.4225 27.5 12.695 27.5 14.0638V21.7825C27.5 23.5588 26.265 25 24.7412 25H15.625V14.0625C15.625 11.525 14.585 9.095 12.8537 7.5H18.125Z" fill="#A3A3A3"/>
<path fill-rule="evenodd" clip-rule="evenodd" d="M2.5 14.0625C2.5 10.4375 5.01875 7.5 8.125 7.5C11.2312 7.5 13.75 10.4375 13.75 14.0625V25H5.29125C3.75 25 2.5 23.5425 2.5 21.7438V14.0625ZM5.3125 20C5.3125 19.7514 5.41127 19.5129 5.58709 19.3371C5.7629 19.1613 6.00136 19.0625 6.25 19.0625H10C10.2486 19.0625 10.4871 19.1613 10.6629 19.3371C10.8387 19.5129 10.9375 19.7514 10.9375 20C10.9375 20.2486 10.8387 20.4871 10.6629 20.6629C10.4871 20.8387 10.2486 20.9375 10 20.9375H6.25C6.00136 20.9375 5.7629 20.8387 5.58709 20.6629C5.41127 20.4871 5.3125 20.2486 5.3125 20Z" fill="#A3A3A3"/>
</svg>
