<svg width="28" height="28" viewBox="0 0 28 28" fill="none" xmlns="http://www.w3.org/2000/svg">
<path fill-rule="evenodd" clip-rule="evenodd" d="M25.1183 2.88158C25.2822 3.04564 25.3742 3.26803 25.3742 3.49991C25.3742 3.73178 25.2822 3.95418 25.1183 4.11824L16.1117 13.1249H20.2347C20.4667 13.1249 20.6893 13.2171 20.8534 13.3812C21.0175 13.5453 21.1097 13.7678 21.1097 13.9999C21.1097 14.232 21.0175 14.4545 20.8534 14.6186C20.6893 14.7827 20.4667 14.8749 20.2347 14.8749H14C13.7679 14.8749 13.5454 14.7827 13.3813 14.6186C13.2172 14.4545 13.125 14.232 13.125 13.9999V7.76524C13.125 7.53318 13.2172 7.31062 13.3813 7.14652C13.5454 6.98243 13.7679 6.89024 14 6.89024C14.2321 6.89024 14.4546 6.98243 14.6187 7.14652C14.7828 7.31062 14.875 7.53318 14.875 7.76524V11.8871L23.8817 2.88041C24.0457 2.71655 24.2681 2.62451 24.5 2.62451C24.7319 2.62451 24.9543 2.71772 25.1183 2.88158Z" fill="#107847"/>
<path d="M23.8957 7.8166L20.335 11.3773C21.0202 11.4061 21.6669 11.7019 22.1368 12.2014C22.6067 12.7009 22.8624 13.3645 22.8493 14.0501C22.8362 14.7358 22.5553 15.3891 22.0666 15.8703C21.578 16.3515 20.9204 16.6224 20.2347 16.6249H14C13.3038 16.6249 12.6361 16.3484 12.1438 15.8561C11.6516 15.3638 11.375 14.6961 11.375 13.9999V7.76527C11.3776 7.07948 11.6484 6.42194 12.1296 5.9333C12.6108 5.44466 13.2641 5.16374 13.9498 5.15063C14.6355 5.13752 15.299 5.39326 15.7986 5.86315C16.2981 6.33304 16.5939 6.97975 16.6227 7.66494L20.1833 4.10427C18.3302 2.94331 16.1868 2.32941 14 2.33327C7.5565 2.33327 2.33333 7.55644 2.33333 13.9999C2.33333 20.4434 7.5565 25.6666 14 25.6666C20.4435 25.6666 25.6667 20.4434 25.6667 13.9999C25.6705 11.8132 25.0566 9.66976 23.8957 7.8166Z" fill="url(#paint0_linear_65_16)"/>
<defs>
<linearGradient id="paint0_linear_65_16" x1="26.25" y1="1.74995" x2="4.08333" y2="23.3333" gradientUnits="userSpaceOnUse">
<stop stop-color="#98F1C7"/>
<stop offset="1" stop-color="#006832"/>
</linearGradient>
</defs>
</svg>
