<svg width="24" height="24" viewBox="0 0 24 24" fill="none" xmlns="http://www.w3.org/2000/svg">
<g clip-path="url(#clip0_72_87)">
<path fill-rule="evenodd" clip-rule="evenodd" d="M23.7498 0.250395C23.8673 0.367799 23.9482 0.516824 23.9826 0.679344C24.017 0.841865 24.0034 1.01088 23.9435 1.16582L15.3721 23.4515C15.3114 23.6092 15.2055 23.7455 15.0676 23.8432C14.9298 23.9408 14.7661 23.9956 14.5972 24.0005C14.4283 24.0055 14.2617 23.9604 14.1184 23.871C13.975 23.7815 13.8613 23.6517 13.7915 23.4978L10.207 15.6121L15.4801 10.3373C15.7072 10.0935 15.8309 9.77116 15.825 9.43807C15.8191 9.10498 15.6842 8.78718 15.4486 8.55161C15.213 8.31605 14.8952 8.18111 14.5621 8.17524C14.2291 8.16936 13.9067 8.293 13.663 8.52011L8.3881 13.7933L0.502387 10.2104C0.348044 10.1407 0.21781 10.0268 0.12812 9.88317C0.0384308 9.73952 -0.00669399 9.57251 -0.00155887 9.40324C0.00357626 9.23396 0.0587411 9.07 0.156973 8.93205C0.255206 8.79409 0.392103 8.68833 0.550387 8.62811L22.8361 0.0566807C22.9908 -0.00284865 23.1595 -0.016233 23.3217 0.0181491C23.4838 0.0525312 23.6326 0.133204 23.7498 0.250395Z" fill="#699BF7"/>
</g>
<defs>
<clipPath id="clip0_72_87">
<rect width="24" height="24" fill="white"/>
</clipPath>
</defs>
</svg>
