<svg width="28" height="28" viewBox="0 0 28 28" fill="none" xmlns="http://www.w3.org/2000/svg">
<path fill-rule="evenodd" clip-rule="evenodd" d="M16.9167 3.20825C16.9167 2.97619 17.0089 2.75363 17.173 2.58953C17.337 2.42544 17.5596 2.33325 17.7917 2.33325H24.7917C25.0237 2.33325 25.2463 2.42544 25.4104 2.58953C25.5745 2.75363 25.6667 2.97619 25.6667 3.20825V10.2083C25.6667 10.4403 25.5745 10.6629 25.4104 10.827C25.2463 10.9911 25.0237 11.0833 24.7917 11.0833C24.5596 11.0833 24.337 10.9911 24.1729 10.827C24.0089 10.6629 23.9167 10.4403 23.9167 10.2083V5.31992L16.0767 13.1599C15.9966 13.2459 15.9 13.3148 15.7926 13.3627C15.6853 13.4105 15.5694 13.4362 15.4519 13.4383C15.3345 13.4403 15.2178 13.4187 15.1088 13.3747C14.9999 13.3307 14.9009 13.2652 14.8178 13.1821C14.7347 13.099 14.6692 13.0001 14.6252 12.8911C14.5812 12.7822 14.5596 12.6655 14.5616 12.548C14.5637 12.4305 14.5894 12.3146 14.6373 12.2073C14.6851 12.1 14.754 12.0034 14.84 11.9233L22.68 4.08325H17.7917C17.5596 4.08325 17.337 3.99106 17.173 3.82697C17.0089 3.66288 16.9167 3.44032 16.9167 3.20825Z" fill="#B70A54"/>
<path d="M13.125 3.20825C6.6815 3.20825 1.45833 8.43142 1.45833 14.8749C1.45833 21.3184 6.6815 26.5416 13.125 26.5416C19.5685 26.5416 24.7917 21.3184 24.7917 14.8749C24.7909 14.1749 24.731 13.4924 24.612 12.8274C23.9484 12.7819 23.3268 12.4862 22.8729 12C22.419 11.5138 22.1666 10.8734 22.1667 10.2083V9.54559L17.3145 14.3978C16.8222 14.89 16.1545 15.1666 15.4583 15.1666C14.7621 15.1666 14.0944 14.89 13.6022 14.3978C13.1099 13.9055 12.8333 13.2378 12.8333 12.5416C12.8333 11.8454 13.1099 11.1777 13.6022 10.6854L18.4543 5.83325H17.7917C17.1265 5.83333 16.4861 5.58091 16 5.12699C15.5138 4.67307 15.218 4.05151 15.1725 3.38792C14.5067 3.26892 13.8242 3.20903 13.125 3.20825Z" fill="url(#paint0_linear_65_13)"/>
<defs>
<linearGradient id="paint0_linear_65_13" x1="25.6667" y1="2.33325" x2="3.5" y2="23.3333" gradientUnits="userSpaceOnUse">
<stop stop-color="#FDE0E0"/>
<stop offset="1" stop-color="#B70A54"/>
</linearGradient>
</defs>
</svg>
